<svg width="624" height="342" viewBox="0 0 624 342" fill="none" xmlns="http://www.w3.org/2000/svg">
<g clip-path="url(#clip0_1290_2844)">
<circle cx="237.5" cy="228.5" r="122.5" fill="#B4A1BD"/>
<rect x="115" y="225" width="245" height="137" fill="#B4A1BD"/>
<path d="M120.164 79.7251C119.538 72.5935 127.18 67.7502 132.537 71.8831L208.191 130.248C212.632 133.674 212.142 140.985 207.265 144.076L140.444 186.426C135.566 189.517 129.514 186.353 128.996 180.44L120.164 79.7251Z" fill="#B4A1BD"/>
<path d="M355.66 79.6734C356.286 72.5417 348.644 67.6984 343.287 71.8313L267.633 130.197C263.193 133.623 263.682 140.933 268.559 144.024L335.381 186.374C340.258 189.465 346.31 186.301 346.829 180.389L355.66 79.6734Z" fill="#B4A1BD"/>
<ellipse cx="192.227" cy="228.909" rx="37.2273" ry="31.9091" fill="white"/>
<ellipse cx="302.135" cy="230.091" rx="37.2273" ry="31.9091" fill="white"/>
<circle cx="181.5" cy="228.5" r="19.5" fill="#3F3351"/>
<circle cx="290.5" cy="228.5" r="19.5" fill="#3F3351"/>
<rect x="175" y="216" width="7" height="18" rx="3.5" fill="white"/>
<rect x="281" y="215" width="7" height="18" rx="3.5" fill="white"/>
<path d="M251.885 278.543C248.684 282.783 242.316 282.783 239.115 278.543L233.096 270.57C229.116 265.3 232.876 257.75 239.48 257.75L251.52 257.75C258.124 257.75 261.884 265.3 257.904 270.57L251.885 278.543Z" fill="#A46B6B"/>
<rect x="200" y="111" width="18" height="51" rx="8" fill="#7B6686"/>
<rect x="229" y="108" width="18" height="62" rx="8" fill="#7B6686"/>
<rect x="258" y="111" width="18" height="51" rx="8" fill="#7B6686"/>
<rect x="426.467" y="246.896" width="77" height="108" transform="rotate(24.3139 426.467 246.896)" fill="#B4A1BD"/>
<circle cx="460.111" cy="265.937" r="38.5" transform="rotate(24.3139 460.111 265.937)" fill="#B4A1BD"/>
<ellipse cx="456.357" cy="274.402" rx="20.0909" ry="15.4186" transform="rotate(21.6105 456.357 274.402)" fill="#7B6686"/>
<ellipse cx="442.658" cy="248.752" rx="7.47568" ry="7.94291" transform="rotate(-10.4458 442.658 248.752)" fill="#7B6686"/>
<ellipse cx="462.262" cy="246.816" rx="8.87737" ry="9.58143" transform="rotate(8.71484 462.262 246.816)" fill="#7B6686"/>
<ellipse cx="480.144" cy="255.331" rx="8.41014" ry="9.25809" transform="rotate(53.8513 480.144 255.331)" fill="#7B6686"/>
<ellipse cx="485.729" cy="272.758" rx="7.00845" ry="6.07399" transform="rotate(-10.4029 485.729 272.758)" fill="#7B6686"/>
<path d="M430.486 189.843C427.728 191.213 424.521 189.084 424.714 186.01L425.851 167.859C426.043 164.786 429.49 163.074 432.056 164.777L447.206 174.837C449.772 176.54 449.531 180.382 446.773 181.752L430.486 189.843Z" fill="#7B6686"/>
<ellipse cx="504" cy="123.5" rx="102" ry="71.5" fill="#7B6686"/>
<path d="M436.16 123.72L434.48 138H427.36L431.88 108.6L443.8 125.68L455.76 108.6L460.28 138H453.16L451.48 123.72L443.8 135.4L436.16 123.72ZM469.065 138V132.44H483.185V138H469.065ZM469.065 115.56V110H483.185V115.56H469.065ZM469.065 126V120.56H482.385V126H469.065ZM464.585 110H471.065V138H464.585V110ZM494.247 124C494.247 125.653 494.567 127.12 495.207 128.4C495.873 129.653 496.793 130.64 497.967 131.36C499.167 132.08 500.567 132.44 502.167 132.44C503.74 132.44 505.113 132.08 506.287 131.36C507.487 130.64 508.407 129.653 509.047 128.4C509.713 127.12 510.047 125.653 510.047 124C510.047 122.347 509.727 120.893 509.087 119.64C508.447 118.36 507.54 117.36 506.367 116.64C505.193 115.92 503.793 115.56 502.167 115.56C500.567 115.56 499.167 115.92 497.967 116.64C496.793 117.36 495.873 118.36 495.207 119.64C494.567 120.893 494.247 122.347 494.247 124ZM487.087 124C487.087 121.84 487.46 119.867 488.207 118.08C488.98 116.293 490.047 114.747 491.407 113.44C492.767 112.133 494.367 111.133 496.207 110.44C498.047 109.72 500.033 109.36 502.167 109.36C504.327 109.36 506.313 109.72 508.127 110.44C509.967 111.133 511.567 112.133 512.927 113.44C514.287 114.747 515.34 116.293 516.087 118.08C516.833 119.867 517.207 121.84 517.207 124C517.207 126.16 516.833 128.147 516.087 129.96C515.367 131.773 514.327 133.347 512.967 134.68C511.633 136.013 510.047 137.053 508.207 137.8C506.367 138.52 504.353 138.88 502.167 138.88C499.953 138.88 497.927 138.52 496.087 137.8C494.247 137.053 492.647 136.013 491.287 134.68C489.953 133.347 488.913 131.773 488.167 129.96C487.447 128.147 487.087 126.16 487.087 124ZM546.327 125.96L551.767 110H559.807L547.687 139.64L538.647 122.76L529.647 139.64L517.527 110H525.527L531.047 125.96L538.647 108.6L546.327 125.96ZM566.224 131.44L561.464 131.24C561.384 130.947 561.344 130.627 561.344 130.28C561.344 129.613 561.424 128.973 561.584 128.36C561.771 127.72 562.104 127.107 562.584 126.52C563.144 125.827 563.811 125.267 564.584 124.84C565.358 124.387 566.411 124.16 567.744 124.16C568.358 124.16 568.918 124.24 569.424 124.4C569.931 124.533 570.451 124.747 570.984 125.04C571.518 125.333 572.104 125.693 572.744 126.12C573.358 126.547 573.891 126.88 574.344 127.12C574.824 127.36 575.238 127.48 575.584 127.48C576.038 127.48 576.371 127.333 576.584 127.04C576.798 126.72 576.904 126.347 576.904 125.92C576.904 125.68 576.878 125.453 576.824 125.24C576.771 125 576.704 124.787 576.624 124.6L581.464 124.8C581.518 124.96 581.558 125.133 581.584 125.32C581.611 125.507 581.624 125.707 581.624 125.92C581.624 126.56 581.544 127.213 581.384 127.88C581.251 128.547 580.944 129.173 580.464 129.76C579.958 130.427 579.358 130.947 578.664 131.32C577.998 131.693 577.104 131.88 575.984 131.88C575.184 131.88 574.398 131.707 573.624 131.36C572.878 131.013 572.011 130.52 571.024 129.88C570.598 129.587 570.198 129.347 569.824 129.16C569.451 128.947 569.091 128.787 568.744 128.68C568.398 128.573 568.051 128.52 567.704 128.52C567.064 128.52 566.611 128.72 566.344 129.12C566.104 129.493 565.984 129.893 565.984 130.32C565.984 130.587 566.011 130.8 566.064 130.96C566.118 131.12 566.171 131.28 566.224 131.44Z" fill="white"/>
</g>
<defs>
<clipPath id="clip0_1290_2844">
<rect width="624" height="362" fill="white"/>
</clipPath>
</defs>
</svg>
