<svg width="793" height="107" viewBox="0 0 793 107" fill="none" xmlns="http://www.w3.org/2000/svg">
<path d="M181.2 94.264V92.616H189.808V94.264H187.408L187.008 94.2H183.808L183.44 94.264H181.2ZM180.56 98.104V96.456H182.768L183.2 96.52H186.736L187.152 96.456H189.168V98.104H180.56ZM187.488 89.8H189.296L186.576 101H184.768L185.632 97.4L185.808 97.016L186.608 93.672L186.64 93.256L187.488 89.8ZM183.776 89.8H185.6L184.768 93.224L184.592 93.656L183.776 97.016L183.76 97.384L182.88 101H181.056L183.776 89.8ZM193.063 91.8V89.8H198.071V91.8H193.063ZM193.063 96.216V94.312H197.911V96.216H193.063ZM191.591 89.8H193.799V101H191.591V89.8ZM201.641 91.8V89.8H206.649V91.8H201.641ZM201.641 96.216V94.312H206.489V96.216H201.641ZM200.169 89.8H202.377V101H200.169V89.8ZM210.587 95.4C210.587 96.136 210.753 96.7813 211.083 97.336C211.425 97.88 211.867 98.3013 212.411 98.6C212.955 98.888 213.547 99.032 214.187 99.032C214.721 99.032 215.195 98.9627 215.611 98.824C216.027 98.6853 216.401 98.4987 216.731 98.264C217.073 98.0293 217.366 97.7733 217.611 97.496V100.072C217.153 100.435 216.651 100.717 216.107 100.92C215.574 101.123 214.897 101.224 214.075 101.224C213.222 101.224 212.427 101.085 211.691 100.808C210.966 100.531 210.331 100.131 209.787 99.608C209.254 99.0853 208.838 98.472 208.539 97.768C208.251 97.0533 208.107 96.264 208.107 95.4C208.107 94.536 208.251 93.752 208.539 93.048C208.838 92.3333 209.254 91.7147 209.787 91.192C210.331 90.6693 210.966 90.2693 211.691 89.992C212.427 89.7147 213.222 89.576 214.075 89.576C214.897 89.576 215.574 89.6773 216.107 89.88C216.651 90.0827 217.153 90.3653 217.611 90.728V93.304C217.366 93.0267 217.073 92.7707 216.731 92.536C216.401 92.3013 216.027 92.1147 215.611 91.976C215.195 91.8373 214.721 91.768 214.187 91.768C213.547 91.768 212.955 91.9173 212.411 92.216C211.867 92.504 211.425 92.92 211.083 93.464C210.753 94.008 210.587 94.6533 210.587 95.4ZM221.728 95.4C221.728 96.136 221.893 96.7813 222.224 97.336C222.565 97.88 223.008 98.3013 223.552 98.6C224.096 98.888 224.688 99.032 225.328 99.032C225.861 99.032 226.336 98.9627 226.752 98.824C227.168 98.6853 227.541 98.4987 227.872 98.264C228.213 98.0293 228.507 97.7733 228.752 97.496V100.072C228.293 100.435 227.792 100.717 227.248 100.92C226.715 101.123 226.037 101.224 225.216 101.224C224.363 101.224 223.568 101.085 222.832 100.808C222.107 100.531 221.472 100.131 220.928 99.608C220.395 99.0853 219.979 98.472 219.68 97.768C219.392 97.0533 219.248 96.264 219.248 95.4C219.248 94.536 219.392 93.752 219.68 93.048C219.979 92.3333 220.395 91.7147 220.928 91.192C221.472 90.6693 222.107 90.2693 222.832 89.992C223.568 89.7147 224.363 89.576 225.216 89.576C226.037 89.576 226.715 89.6773 227.248 89.88C227.792 90.0827 228.293 90.3653 228.752 90.728V93.304C228.507 93.0267 228.213 92.7707 227.872 92.536C227.541 92.3013 227.168 92.1147 226.752 91.976C226.336 91.8373 225.861 91.768 225.328 91.768C224.688 91.768 224.096 91.9173 223.552 92.216C223.008 92.504 222.565 92.92 222.224 93.464C221.893 94.008 221.728 94.6533 221.728 95.4ZM230.069 98.936L236.485 89.8H238.036V101H235.685V98.184L235.877 98.008V93.448L233.237 97.224H237.237L237.509 96.984H239.797V98.936H230.069ZM241.542 92.712V90.648L246.454 89.608V101H244.23V92.008L241.542 92.712Z" fill="#FFCC41"/>
<rect width="79.6494" height="79.6494" fill="#007CFD"/>
<rect x="87.6484" width="79.6494" height="79.6494" fill="#FF4600"/>
<rect x="175.297" width="79.6494" height="79.6494" fill="#FFCC41"/>
<rect x="262.949" width="79.6494" height="79.6494" fill="#FFDB7A"/>
<rect x="350.598" width="79.6494" height="79.6494" fill="#FFE5A0"/>
<rect x="438.246" width="79.6494" height="79.6494" fill="#FFE9CD"/>
<rect x="525.895" width="79.6494" height="79.6494" fill="#FFCA8E"/>
<rect x="613.547" width="79.6494" height="79.6494" fill="#6A5D3F"/>
<rect x="701.195" width="79.6494" height="79.6494" fill="#403826"/>
</svg>
