<svg width="272" height="347" viewBox="0 0 272 347" fill="none" xmlns="http://www.w3.org/2000/svg">
<path d="M210.356 330.696V330.696C243.849 330.696 271 303.545 271 270.052V76.2235C271 44.0694 244.934 18.0034 212.78 18.0034V18.0034" stroke="url(#paint0_linear_1537_2323)" stroke-width="0.947552" stroke-dasharray="3.79 3.79"/>
<rect x="54.4845" y="0.473776" width="159.003" height="36.0035" rx="14.6871" fill="#548DFF" fill-opacity="0.2"/>
<rect x="54.4845" y="0.473776" width="159.003" height="36.0035" rx="14.6871" stroke="#548DFF" stroke-width="0.947552"/>
<path d="M68.8271 21.0299H70.2915L71.519 22.6451L71.842 23.0758L73.6725 25.5093H72.2081L71.0021 23.8941L70.7006 23.485L68.8271 21.0299ZM74.1248 18.9626C74.1248 20.1255 73.9148 21.1304 73.4949 21.9775C73.0749 22.8245 72.4988 23.4778 71.7666 23.9372C71.0344 24.3966 70.1982 24.6263 69.2578 24.6263C68.3174 24.6263 67.4811 24.3966 66.7489 23.9372C66.0167 23.4778 65.4407 22.8245 65.0207 21.9775C64.6008 21.1304 64.3908 20.1255 64.3908 18.9626C64.3908 17.7996 64.6008 16.7947 65.0207 15.9476C65.4407 15.1006 66.0167 14.4473 66.7489 13.9879C67.4811 13.5285 68.3174 13.2988 69.2578 13.2988C70.1982 13.2988 71.0344 13.5285 71.7666 13.9879C72.4988 14.4473 73.0749 15.1006 73.4949 15.9476C73.9148 16.7947 74.1248 17.7996 74.1248 18.9626ZM72.8326 18.9626C72.8326 18.0078 72.6729 17.202 72.3535 16.5452C72.0376 15.8884 71.6087 15.3913 71.0667 15.0539C70.5284 14.7165 69.9254 14.5478 69.2578 14.5478C68.5902 14.5478 67.9854 14.7165 67.4434 15.0539C66.9051 15.3913 66.4761 15.8884 66.1567 16.5452C65.8409 17.202 65.6829 18.0078 65.6829 18.9626C65.6829 19.9173 65.8409 20.7231 66.1567 21.3799C66.4761 22.0367 66.9051 22.5338 67.4434 22.8712C67.9854 23.2086 68.5902 23.3773 69.2578 23.3773C69.9254 23.3773 70.5284 23.2086 71.0667 22.8712C71.6087 22.5338 72.0376 22.0367 72.3535 21.3799C72.6729 20.7231 72.8326 19.9173 72.8326 18.9626ZM81.4091 21.0945V16.206H82.6796V24.4756H81.4091V23.0758H81.3229C81.1291 23.4957 80.8276 23.8529 80.4184 24.1472C80.0093 24.4379 79.4924 24.5833 78.8679 24.5833C78.3511 24.5833 77.8916 24.4702 77.4896 24.2441C77.0877 24.0144 76.7718 23.6698 76.5421 23.2104C76.3124 22.7474 76.1975 22.1641 76.1975 21.4606V16.206H77.4681V21.3745C77.4681 21.9775 77.6368 22.4584 77.9742 22.8174C78.3152 23.1763 78.7495 23.3558 79.2771 23.3558C79.5929 23.3558 79.9142 23.275 80.2408 23.1135C80.571 22.952 80.8474 22.7043 81.0699 22.3705C81.296 22.0367 81.4091 21.6114 81.4091 21.0945ZM87.4403 24.6694C86.9163 24.6694 86.4407 24.5707 86.0136 24.3733C85.5865 24.1723 85.2473 23.8834 84.996 23.5065C84.7448 23.126 84.6192 22.6666 84.6192 22.1282C84.6192 21.6545 84.7125 21.2704 84.8991 20.9761C85.0858 20.6782 85.3352 20.4449 85.6475 20.2762C85.9597 20.1075 86.3043 19.9819 86.6812 19.8993C87.0616 19.8132 87.4439 19.745 87.8279 19.6948C88.3304 19.6301 88.7378 19.5817 89.0501 19.5494C89.3659 19.5135 89.5956 19.4543 89.7392 19.3717C89.8863 19.2892 89.9599 19.1456 89.9599 18.941V18.8979C89.9599 18.3667 89.8146 17.954 89.5238 17.6597C89.2367 17.3654 88.8006 17.2182 88.2156 17.2182C87.609 17.2182 87.1334 17.351 86.7888 17.6166C86.4443 17.8822 86.202 18.1657 86.062 18.4672L84.8561 18.0365C85.0714 17.534 85.3585 17.1428 85.7175 16.8629C86.08 16.5793 86.4748 16.3819 86.9019 16.2706C87.3326 16.1558 87.7561 16.0984 88.1725 16.0984C88.4381 16.0984 88.7432 16.1307 89.0877 16.1953C89.4359 16.2563 89.7715 16.3837 90.0945 16.5775C90.4211 16.7713 90.6921 17.0639 90.9075 17.4551C91.1228 17.8463 91.2305 18.3703 91.2305 19.0272V24.4756H89.9599V23.3558H89.8953C89.8092 23.5352 89.6656 23.7272 89.4646 23.9318C89.2636 24.1364 88.9962 24.3105 88.6624 24.4541C88.3286 24.5976 87.9212 24.6694 87.4403 24.6694ZM87.6341 23.528C88.1366 23.528 88.5601 23.4293 88.9047 23.2319C89.2528 23.0345 89.5149 22.7797 89.6907 22.4674C89.8702 22.1552 89.9599 21.8267 89.9599 21.4822V20.3193C89.9061 20.3839 89.7876 20.4431 89.6046 20.4969C89.4251 20.5472 89.217 20.5921 88.9801 20.6315C88.7468 20.6674 88.5188 20.6997 88.2963 20.7284C88.0774 20.7536 87.8997 20.7751 87.7633 20.7931C87.4331 20.8361 87.1244 20.9061 86.8373 21.003C86.5538 21.0963 86.324 21.2381 86.1482 21.4283C85.9759 21.615 85.8898 21.8698 85.8898 22.1928C85.8898 22.6343 86.0531 22.9681 86.3797 23.1942C86.7099 23.4168 87.128 23.528 87.6341 23.528ZM94.8202 13.4495V24.4756H93.5496V13.4495H94.8202ZM97.1473 24.4756V16.206H98.4179V24.4756H97.1473ZM97.7934 14.8278C97.5457 14.8278 97.3322 14.7434 97.1527 14.5747C96.9768 14.406 96.8889 14.2033 96.8889 13.9664C96.8889 13.7295 96.9768 13.5267 97.1527 13.358C97.3322 13.1893 97.5457 13.105 97.7934 13.105C98.041 13.105 98.2528 13.1893 98.4287 13.358C98.6081 13.5267 98.6979 13.7295 98.6979 13.9664C98.6979 14.2033 98.6081 14.406 98.4287 14.5747C98.2528 14.7434 98.041 14.8278 97.7934 14.8278ZM104.341 16.206V17.2828H100.056V16.206H104.341ZM101.305 14.2248H102.576V22.1067C102.576 22.4656 102.628 22.7348 102.732 22.9143C102.839 23.0901 102.976 23.2086 103.141 23.2696C103.31 23.327 103.487 23.3558 103.674 23.3558C103.814 23.3558 103.929 23.3486 104.018 23.3342C104.108 23.3163 104.18 23.3019 104.234 23.2911L104.492 24.4325C104.406 24.4648 104.286 24.4971 104.131 24.5294C103.977 24.5653 103.782 24.5833 103.545 24.5833C103.186 24.5833 102.834 24.5061 102.489 24.3518C102.148 24.1974 101.865 23.9623 101.639 23.6465C101.416 23.3306 101.305 22.9322 101.305 22.4513V14.2248ZM108.686 24.6694C108.162 24.6694 107.687 24.5707 107.259 24.3733C106.832 24.1723 106.493 23.8834 106.242 23.5065C105.991 23.126 105.865 22.6666 105.865 22.1282C105.865 21.6545 105.958 21.2704 106.145 20.9761C106.332 20.6782 106.581 20.4449 106.893 20.2762C107.206 20.1075 107.55 19.9819 107.927 19.8993C108.308 19.8132 108.69 19.745 109.074 19.6948C109.576 19.6301 109.984 19.5817 110.296 19.5494C110.612 19.5135 110.842 19.4543 110.985 19.3717C111.132 19.2892 111.206 19.1456 111.206 18.941V18.8979C111.206 18.3667 111.06 17.954 110.77 17.6597C110.483 17.3654 110.047 17.2182 109.461 17.2182C108.855 17.2182 108.379 17.351 108.035 17.6166C107.69 17.8822 107.448 18.1657 107.308 18.4672L106.102 18.0365C106.317 17.534 106.604 17.1428 106.963 16.8629C107.326 16.5793 107.721 16.3819 108.148 16.2706C108.579 16.1558 109.002 16.0984 109.418 16.0984C109.684 16.0984 109.989 16.1307 110.334 16.1953C110.682 16.2563 111.017 16.3837 111.34 16.5775C111.667 16.7713 111.938 17.0639 112.153 17.4551C112.369 17.8463 112.476 18.3703 112.476 19.0272V24.4756H111.206V23.3558H111.141C111.055 23.5352 110.912 23.7272 110.711 23.9318C110.51 24.1364 110.242 24.3105 109.908 24.4541C109.575 24.5976 109.167 24.6694 108.686 24.6694ZM108.88 23.528C109.383 23.528 109.806 23.4293 110.151 23.2319C110.499 23.0345 110.761 22.7797 110.937 22.4674C111.116 22.1552 111.206 21.8267 111.206 21.4822V20.3193C111.152 20.3839 111.034 20.4431 110.85 20.4969C110.671 20.5472 110.463 20.5921 110.226 20.6315C109.993 20.6674 109.765 20.6997 109.542 20.7284C109.323 20.7536 109.146 20.7751 109.009 20.7931C108.679 20.8361 108.37 20.9061 108.083 21.003C107.8 21.0963 107.57 21.2381 107.394 21.4283C107.222 21.615 107.136 21.8698 107.136 22.1928C107.136 22.6343 107.299 22.9681 107.626 23.1942C107.956 23.4168 108.374 23.528 108.88 23.528ZM118.392 16.206V17.2828H114.106V16.206H118.392ZM115.355 14.2248H116.626V22.1067C116.626 22.4656 116.678 22.7348 116.782 22.9143C116.89 23.0901 117.026 23.2086 117.191 23.2696C117.36 23.327 117.538 23.3558 117.724 23.3558C117.864 23.3558 117.979 23.3486 118.069 23.3342C118.159 23.3163 118.23 23.3019 118.284 23.2911L118.543 24.4325C118.456 24.4648 118.336 24.4971 118.182 24.5294C118.028 24.5653 117.832 24.5833 117.595 24.5833C117.236 24.5833 116.884 24.5061 116.54 24.3518C116.199 24.1974 115.915 23.9623 115.689 23.6465C115.467 23.3306 115.355 22.9322 115.355 22.4513V14.2248ZM120.303 24.4756V16.206H121.574V24.4756H120.303ZM120.949 14.8278C120.702 14.8278 120.488 14.7434 120.309 14.5747C120.133 14.406 120.045 14.2033 120.045 13.9664C120.045 13.7295 120.133 13.5267 120.309 13.358C120.488 13.1893 120.702 13.105 120.949 13.105C121.197 13.105 121.409 13.1893 121.584 13.358C121.764 13.5267 121.854 13.7295 121.854 13.9664C121.854 14.2033 121.764 14.406 121.584 14.5747C121.409 14.7434 121.197 14.8278 120.949 14.8278ZM130.663 16.206L127.605 24.4756H126.313L123.255 16.206H124.633L126.916 22.7958H127.002L129.285 16.206H130.663ZM135.511 24.6479C134.714 24.6479 134.027 24.472 133.449 24.1203C132.875 23.7649 132.432 23.2696 132.119 22.6343C131.811 21.9954 131.656 21.2525 131.656 20.4054C131.656 19.5584 131.811 18.8118 132.119 18.1657C132.432 17.5161 132.866 17.01 133.422 16.6475C133.982 16.2814 134.635 16.0984 135.382 16.0984C135.813 16.0984 136.238 16.1701 136.658 16.3137C137.078 16.4573 137.46 16.6906 137.805 17.0136C138.149 17.3331 138.424 17.7566 138.628 18.2842C138.833 18.8118 138.935 19.4615 138.935 20.2331V20.7715H132.561V19.6732H137.643C137.643 19.2066 137.55 18.7903 137.363 18.4242C137.18 18.0581 136.918 17.7691 136.577 17.5574C136.24 17.3456 135.841 17.2397 135.382 17.2397C134.876 17.2397 134.438 17.3654 134.068 17.6166C133.702 17.8643 133.42 18.1873 133.223 18.5857C133.026 18.9841 132.927 19.4112 132.927 19.867V20.5992C132.927 21.2238 133.035 21.7532 133.25 22.1875C133.469 22.6182 133.772 22.9466 134.16 23.1727C134.547 23.3952 134.998 23.5065 135.511 23.5065C135.845 23.5065 136.146 23.4598 136.416 23.3665C136.688 23.2696 136.923 23.126 137.121 22.9358C137.318 22.742 137.471 22.5015 137.578 22.2144L138.806 22.5589C138.677 22.9753 138.46 23.3414 138.155 23.6572C137.849 23.9695 137.473 24.2136 137.024 24.3894C136.575 24.5617 136.071 24.6479 135.511 24.6479ZM145.304 24.4756V13.4495H151.916V14.634H146.639V18.3596H151.42V19.544H146.639V24.4756H145.304ZM154.03 24.4756V16.206H155.301V24.4756H154.03ZM154.676 14.8278C154.428 14.8278 154.215 14.7434 154.035 14.5747C153.86 14.406 153.772 14.2033 153.772 13.9664C153.772 13.7295 153.86 13.5267 154.035 13.358C154.215 13.1893 154.428 13.105 154.676 13.105C154.924 13.105 155.136 13.1893 155.311 13.358C155.491 13.5267 155.581 13.7295 155.581 13.9664C155.581 14.2033 155.491 14.406 155.311 14.5747C155.136 14.7434 154.924 14.8278 154.676 14.8278ZM158.898 19.5009V24.4756H157.628V16.206H158.855V17.4982H158.963C159.157 17.0782 159.451 16.7408 159.846 16.486C160.241 16.2276 160.75 16.0984 161.375 16.0984C161.935 16.0984 162.425 16.2132 162.845 16.4429C163.265 16.669 163.591 17.0136 163.825 17.4766C164.058 17.936 164.175 18.5175 164.175 19.221V24.4756H162.904V19.3071C162.904 18.6575 162.735 18.1514 162.398 17.7889C162.06 17.4228 161.597 17.2397 161.009 17.2397C160.603 17.2397 160.241 17.3277 159.921 17.5035C159.605 17.6794 159.356 17.936 159.173 18.2734C158.99 18.6108 158.898 19.02 158.898 19.5009ZM169.619 24.6479C168.93 24.6479 168.321 24.4738 167.794 24.1256C167.266 23.7739 166.853 23.2786 166.556 22.6397C166.258 21.9972 166.109 21.2381 166.109 20.3623C166.109 19.4938 166.258 18.74 166.556 18.1011C166.853 17.4623 167.268 16.9687 167.799 16.6206C168.33 16.2724 168.944 16.0984 169.64 16.0984C170.179 16.0984 170.604 16.1881 170.916 16.3676C171.232 16.5434 171.473 16.7444 171.638 16.9705C171.807 17.1931 171.938 17.3761 172.031 17.5197H172.139V13.4495H173.409V24.4756H172.182V23.205H172.031C171.938 23.3558 171.805 23.546 171.632 23.7757C171.46 24.0018 171.214 24.2046 170.895 24.3841C170.575 24.5599 170.15 24.6479 169.619 24.6479ZM169.791 23.5065C170.301 23.5065 170.732 23.3737 171.083 23.1081C171.435 22.8389 171.702 22.4674 171.886 21.9936C172.069 21.5163 172.16 20.9653 172.16 20.3408C172.16 19.7235 172.07 19.1833 171.891 18.7203C171.711 18.2537 171.446 17.8912 171.094 17.6327C170.742 17.3707 170.308 17.2397 169.791 17.2397C169.253 17.2397 168.804 17.3779 168.445 17.6543C168.09 17.9271 167.823 18.2985 167.643 18.7687C167.467 19.2353 167.379 19.7594 167.379 20.3408C167.379 20.9294 167.469 21.4642 167.648 21.9452C167.832 22.4226 168.101 22.803 168.456 23.0866C168.815 23.3665 169.26 23.5065 169.791 23.5065ZM175.913 24.4756V16.206H177.183V24.4756H175.913ZM176.559 14.8278C176.311 14.8278 176.097 14.7434 175.918 14.5747C175.742 14.406 175.654 14.2033 175.654 13.9664C175.654 13.7295 175.742 13.5267 175.918 13.358C176.097 13.1893 176.311 13.105 176.559 13.105C176.806 13.105 177.018 13.1893 177.194 13.358C177.373 13.5267 177.463 13.7295 177.463 13.9664C177.463 14.2033 177.373 14.406 177.194 14.5747C177.018 14.7434 176.806 14.8278 176.559 14.8278ZM180.781 19.5009V24.4756H179.51V16.206H180.738V17.4982H180.846C181.039 17.0782 181.334 16.7408 181.728 16.486C182.123 16.2276 182.633 16.0984 183.257 16.0984C183.817 16.0984 184.307 16.2132 184.727 16.4429C185.147 16.669 185.474 17.0136 185.707 17.4766C185.94 17.936 186.057 18.5175 186.057 19.221V24.4756H184.787V19.3071C184.787 18.6575 184.618 18.1514 184.28 17.7889C183.943 17.4228 183.48 17.2397 182.891 17.2397C182.486 17.2397 182.123 17.3277 181.804 17.5035C181.488 17.6794 181.239 17.936 181.056 18.2734C180.872 18.6108 180.781 19.02 180.781 19.5009ZM191.717 27.7489C191.103 27.7489 190.575 27.67 190.134 27.5121C189.693 27.3577 189.325 27.1531 189.03 26.8983C188.74 26.6471 188.508 26.3779 188.336 26.0907L189.348 25.3801C189.463 25.5308 189.608 25.7031 189.784 25.8969C189.96 26.0943 190.2 26.2648 190.505 26.4084C190.814 26.5555 191.218 26.6291 191.717 26.6291C192.384 26.6291 192.935 26.4676 193.37 26.1446C193.804 25.8215 194.021 25.3155 194.021 24.6263V22.9466H193.913C193.82 23.0973 193.687 23.284 193.515 23.5065C193.346 23.7254 193.102 23.9211 192.783 24.0933C192.467 24.262 192.04 24.3464 191.501 24.3464C190.834 24.3464 190.234 24.1884 189.703 23.8726C189.176 23.5567 188.758 23.0973 188.449 22.4943C188.144 21.8914 187.991 21.1592 187.991 20.2977C187.991 19.4507 188.14 18.7131 188.438 18.085C188.736 17.4533 189.151 16.9652 189.682 16.6206C190.213 16.2724 190.827 16.0984 191.523 16.0984C192.061 16.0984 192.489 16.1881 192.804 16.3676C193.124 16.5434 193.368 16.7444 193.537 16.9705C193.709 17.1931 193.842 17.3761 193.935 17.5197H194.064V16.206H195.292V24.7125C195.292 25.4231 195.13 26.001 194.807 26.4461C194.488 26.8947 194.057 27.2231 193.515 27.4313C192.977 27.6431 192.377 27.7489 191.717 27.7489ZM191.674 23.205C192.183 23.205 192.614 23.0884 192.966 22.8551C193.318 22.6218 193.585 22.2862 193.768 21.8483C193.951 21.4104 194.043 20.8864 194.043 20.2762C194.043 19.6804 193.953 19.1546 193.773 18.6987C193.594 18.2429 193.328 17.8858 192.977 17.6274C192.625 17.3689 192.191 17.2397 191.674 17.2397C191.135 17.2397 190.687 17.3761 190.328 17.6489C189.972 17.9217 189.705 18.2878 189.526 18.7472C189.35 19.2066 189.262 19.7163 189.262 20.2762C189.262 20.8505 189.352 21.3584 189.531 21.7998C189.714 22.2377 189.983 22.5823 190.339 22.8335C190.697 23.0812 191.143 23.205 191.674 23.205ZM203.475 18.0581L202.334 18.3811C202.262 18.1909 202.156 18.006 202.016 17.8266C201.88 17.6435 201.693 17.4928 201.456 17.3743C201.219 17.2559 200.916 17.1967 200.546 17.1967C200.04 17.1967 199.618 17.3133 199.281 17.5466C198.947 17.7763 198.78 18.0688 198.78 18.4242C198.78 18.74 198.895 18.9895 199.125 19.1725C199.355 19.3556 199.714 19.5081 200.202 19.6301L201.429 19.9316C202.169 20.1111 202.72 20.3857 203.082 20.7554C203.445 21.1215 203.626 21.5934 203.626 22.1713C203.626 22.6451 203.489 23.0686 203.217 23.4419C202.947 23.8152 202.571 24.1095 202.086 24.3248C201.602 24.5402 201.038 24.6479 200.396 24.6479C199.552 24.6479 198.854 24.4648 198.301 24.0987C197.749 23.7326 197.399 23.1978 197.251 22.4943L198.457 22.1928C198.572 22.6379 198.789 22.9717 199.109 23.1942C199.432 23.4168 199.854 23.528 200.374 23.528C200.966 23.528 201.436 23.4024 201.785 23.1512C202.136 22.8963 202.312 22.5912 202.312 22.2359C202.312 21.9488 202.212 21.7083 202.011 21.5145C201.81 21.3171 201.501 21.1699 201.085 21.073L199.706 20.75C198.949 20.5705 198.393 20.2924 198.037 19.9155C197.686 19.535 197.51 19.0595 197.51 18.4888C197.51 18.0222 197.641 17.6094 197.903 17.2505C198.168 16.8916 198.529 16.6098 198.985 16.4052C199.444 16.2007 199.965 16.0984 200.546 16.0984C201.365 16.0984 202.007 16.2778 202.474 16.6367C202.944 16.9957 203.278 17.4694 203.475 18.0581Z" fill="white"/>
<rect x="63.0119" y="310.323" width="147.003" height="36.0035" rx="14.6871" fill="#75FF95" fill-opacity="0.2"/>
<rect x="63.0119" y="310.323" width="147.003" height="36.0035" rx="14.6871" stroke="#75FF95" stroke-width="0.947552"/>
<path d="M73.3489 334.325V323.299H77.0745C77.9359 323.299 78.6429 323.446 79.1957 323.741C79.7484 324.031 80.1576 324.432 80.4232 324.941C80.6888 325.451 80.8216 326.031 80.8216 326.68C80.8216 327.33 80.6888 327.906 80.4232 328.408C80.1576 328.911 79.7502 329.306 79.2011 329.593C78.6519 329.876 77.9502 330.018 77.096 330.018H74.0811V328.812H77.0529C77.6416 328.812 78.1153 328.726 78.4743 328.554C78.8368 328.381 79.0988 328.137 79.2603 327.822C79.4254 327.502 79.508 327.122 79.508 326.68C79.508 326.239 79.4254 325.853 79.2603 325.523C79.0952 325.192 78.8314 324.938 78.4689 324.758C78.1064 324.575 77.6272 324.484 77.0314 324.484H74.684V334.325H73.3489ZM78.5389 329.372L81.2523 334.325H79.7018L77.0314 329.372H78.5389ZM85.3077 334.519C84.7836 334.519 84.3081 334.42 83.881 334.223C83.4538 334.022 83.1147 333.733 82.8634 333.356C82.6122 332.976 82.4865 332.516 82.4865 331.978C82.4865 331.504 82.5799 331.12 82.7665 330.826C82.9531 330.528 83.2026 330.295 83.5149 330.126C83.8271 329.957 84.1717 329.831 84.5486 329.749C84.929 329.663 85.3113 329.595 85.6953 329.544C86.1978 329.48 86.6052 329.431 86.9174 329.399C87.2333 329.363 87.463 329.304 87.6066 329.221C87.7537 329.139 87.8273 328.995 87.8273 328.791V328.748C87.8273 328.216 87.6819 327.804 87.3912 327.509C87.1041 327.215 86.668 327.068 86.0829 327.068C85.4764 327.068 85.0008 327.201 84.6562 327.466C84.3117 327.732 84.0694 328.015 83.9294 328.317L82.7234 327.886C82.9388 327.384 83.2259 326.992 83.5848 326.712C83.9474 326.429 84.3422 326.232 84.7693 326.12C85.2 326.005 85.6235 325.948 86.0399 325.948C86.3055 325.948 86.6106 325.98 86.9551 326.045C87.3033 326.106 87.6389 326.233 87.9619 326.427C88.2885 326.621 88.5595 326.913 88.7749 327.305C88.9902 327.696 89.0979 328.22 89.0979 328.877V334.325H87.8273V333.205H87.7627C87.6766 333.385 87.533 333.577 87.332 333.781C87.131 333.986 86.8636 334.16 86.5298 334.304C86.196 334.447 85.7886 334.519 85.3077 334.519ZM85.5015 333.378C86.004 333.378 86.4275 333.279 86.7721 333.082C87.1202 332.884 87.3822 332.629 87.5581 332.317C87.7376 332.005 87.8273 331.676 87.8273 331.332V330.169C87.7735 330.233 87.655 330.293 87.472 330.347C87.2925 330.397 87.0843 330.442 86.8474 330.481C86.6141 330.517 86.3862 330.549 86.1637 330.578C85.9448 330.603 85.7671 330.625 85.6307 330.643C85.3005 330.686 84.9918 330.756 84.7047 330.853C84.4211 330.946 84.1914 331.088 84.0156 331.278C83.8433 331.465 83.7571 331.719 83.7571 332.042C83.7571 332.484 83.9204 332.818 84.2471 333.044C84.5773 333.266 84.9954 333.378 85.5015 333.378ZM91.417 337.426V326.056H92.6445V327.369H92.7952C92.8885 327.226 93.0177 327.043 93.1829 326.82C93.3515 326.594 93.592 326.393 93.9043 326.217C94.2201 326.038 94.6473 325.948 95.1856 325.948C95.8819 325.948 96.4957 326.122 97.0269 326.47C97.5581 326.818 97.9727 327.312 98.2706 327.951C98.5685 328.59 98.7174 329.343 98.7174 330.212C98.7174 331.088 98.5685 331.847 98.2706 332.489C97.9727 333.128 97.5599 333.624 97.0323 333.975C96.5047 334.323 95.8963 334.497 95.2072 334.497C94.676 334.497 94.2506 334.41 93.9312 334.234C93.6118 334.054 93.3659 333.851 93.1936 333.625C93.0213 333.396 92.8885 333.205 92.7952 333.055H92.6875V337.426H91.417ZM92.666 330.19C92.666 330.815 92.7575 331.366 92.9406 331.843C93.1236 332.317 93.391 332.689 93.7428 332.958C94.0945 333.223 94.5252 333.356 95.0349 333.356C95.5661 333.356 96.0094 333.216 96.3647 332.936C96.7236 332.653 96.9928 332.272 97.1723 331.795C97.3553 331.314 97.4468 330.779 97.4468 330.19C97.4468 329.609 97.3571 329.085 97.1776 328.618C97.0018 328.148 96.7344 327.777 96.3755 327.504C96.0201 327.228 95.5733 327.089 95.0349 327.089C94.518 327.089 94.0837 327.22 93.732 327.482C93.3803 327.741 93.1147 328.103 92.9352 328.57C92.7557 329.033 92.666 329.573 92.666 330.19ZM100.656 334.325V326.056H101.926V334.325H100.656ZM101.302 324.677C101.054 324.677 100.84 324.593 100.661 324.424C100.485 324.256 100.397 324.053 100.397 323.816C100.397 323.579 100.485 323.376 100.661 323.208C100.84 323.039 101.054 322.955 101.302 322.955C101.549 322.955 101.761 323.039 101.937 323.208C102.116 323.376 102.206 323.579 102.206 323.816C102.206 324.053 102.116 324.256 101.937 324.424C101.761 324.593 101.549 324.677 101.302 324.677ZM107.376 334.497C106.687 334.497 106.078 334.323 105.551 333.975C105.023 333.624 104.61 333.128 104.313 332.489C104.015 331.847 103.866 331.088 103.866 330.212C103.866 329.343 104.015 328.59 104.313 327.951C104.61 327.312 105.025 326.818 105.556 326.47C106.087 326.122 106.701 325.948 107.397 325.948C107.936 325.948 108.361 326.038 108.673 326.217C108.989 326.393 109.23 326.594 109.395 326.82C109.564 327.043 109.695 327.226 109.788 327.369H109.896V323.299H111.166V334.325H109.939V333.055H109.788C109.695 333.205 109.562 333.396 109.39 333.625C109.217 333.851 108.971 334.054 108.652 334.234C108.332 334.41 107.907 334.497 107.376 334.497ZM107.548 333.356C108.058 333.356 108.489 333.223 108.84 332.958C109.192 332.689 109.459 332.317 109.643 331.843C109.826 331.366 109.917 330.815 109.917 330.19C109.917 329.573 109.827 329.033 109.648 328.57C109.468 328.103 109.203 327.741 108.851 327.482C108.499 327.22 108.065 327.089 107.548 327.089C107.01 327.089 106.561 327.228 106.202 327.504C105.847 327.777 105.58 328.148 105.4 328.618C105.224 329.085 105.136 329.609 105.136 330.19C105.136 330.779 105.226 331.314 105.405 331.795C105.589 332.272 105.858 332.653 106.213 332.936C106.572 333.216 107.017 333.356 107.548 333.356ZM118.106 334.325V323.299H121.832C122.697 323.299 123.404 323.455 123.953 323.768C124.505 324.076 124.915 324.494 125.18 325.022C125.446 325.55 125.579 326.138 125.579 326.788C125.579 327.437 125.446 328.028 125.18 328.559C124.918 329.09 124.513 329.514 123.964 329.83C123.414 330.142 122.711 330.298 121.853 330.298H119.183V329.114H121.81C122.402 329.114 122.878 329.011 123.237 328.807C123.596 328.602 123.856 328.326 124.017 327.978C124.182 327.626 124.265 327.229 124.265 326.788C124.265 326.346 124.182 325.952 124.017 325.603C123.856 325.255 123.594 324.982 123.231 324.785C122.869 324.584 122.388 324.484 121.788 324.484H119.441V334.325H118.106ZM127.557 334.325V326.056H128.785V327.305H128.871C129.022 326.896 129.294 326.564 129.689 326.309C130.084 326.054 130.529 325.926 131.024 325.926C131.118 325.926 131.234 325.928 131.374 325.932C131.514 325.935 131.62 325.941 131.692 325.948V327.24C131.649 327.229 131.55 327.213 131.396 327.192C131.245 327.167 131.085 327.154 130.917 327.154C130.515 327.154 130.156 327.238 129.84 327.407C129.528 327.572 129.28 327.802 129.097 328.096C128.918 328.387 128.828 328.719 128.828 329.092V334.325H127.557ZM136.306 334.497C135.559 334.497 134.904 334.32 134.341 333.964C133.781 333.609 133.343 333.112 133.027 332.473C132.715 331.834 132.559 331.088 132.559 330.233C132.559 329.372 132.715 328.62 133.027 327.978C133.343 327.335 133.781 326.836 134.341 326.481C134.904 326.126 135.559 325.948 136.306 325.948C137.052 325.948 137.706 326.126 138.266 326.481C138.829 326.836 139.267 327.335 139.579 327.978C139.895 328.62 140.053 329.372 140.053 330.233C140.053 331.088 139.895 331.834 139.579 332.473C139.267 333.112 138.829 333.609 138.266 333.964C137.706 334.32 137.052 334.497 136.306 334.497ZM136.306 333.356C136.873 333.356 137.34 333.211 137.706 332.92C138.072 332.629 138.343 332.247 138.519 331.773C138.695 331.299 138.782 330.786 138.782 330.233C138.782 329.681 138.695 329.166 138.519 328.688C138.343 328.211 138.072 327.825 137.706 327.531C137.34 327.236 136.873 327.089 136.306 327.089C135.739 327.089 135.272 327.236 134.906 327.531C134.54 327.825 134.269 328.211 134.093 328.688C133.917 329.166 133.829 329.681 133.829 330.233C133.829 330.786 133.917 331.299 134.093 331.773C134.269 332.247 134.54 332.629 134.906 332.92C135.272 333.211 135.739 333.356 136.306 333.356ZM145.589 326.056V327.132H141.303V326.056H145.589ZM142.552 324.074H143.823V331.956C143.823 332.315 143.875 332.584 143.979 332.764C144.087 332.94 144.223 333.058 144.388 333.119C144.557 333.177 144.735 333.205 144.921 333.205C145.061 333.205 145.176 333.198 145.266 333.184C145.356 333.166 145.427 333.152 145.481 333.141L145.74 334.282C145.654 334.314 145.533 334.347 145.379 334.379C145.225 334.415 145.029 334.433 144.792 334.433C144.433 334.433 144.081 334.356 143.737 334.201C143.396 334.047 143.112 333.812 142.886 333.496C142.664 333.18 142.552 332.782 142.552 332.301V324.074ZM150.771 334.497C150.024 334.497 149.369 334.32 148.806 333.964C148.246 333.609 147.808 333.112 147.492 332.473C147.18 331.834 147.024 331.088 147.024 330.233C147.024 329.372 147.18 328.62 147.492 327.978C147.808 327.335 148.246 326.836 148.806 326.481C149.369 326.126 150.024 325.948 150.771 325.948C151.517 325.948 152.171 326.126 152.731 326.481C153.294 326.836 153.732 327.335 154.044 327.978C154.36 328.62 154.518 329.372 154.518 330.233C154.518 331.088 154.36 331.834 154.044 332.473C153.732 333.112 153.294 333.609 152.731 333.964C152.171 334.32 151.517 334.497 150.771 334.497ZM150.771 333.356C151.338 333.356 151.805 333.211 152.171 332.92C152.537 332.629 152.808 332.247 152.984 331.773C153.16 331.299 153.247 330.786 153.247 330.233C153.247 329.681 153.16 329.166 152.984 328.688C152.808 328.211 152.537 327.825 152.171 327.531C151.805 327.236 151.338 327.089 150.771 327.089C150.204 327.089 149.737 327.236 149.371 327.531C149.005 327.825 148.734 328.211 148.558 328.688C148.382 329.166 148.294 329.681 148.294 330.233C148.294 330.786 148.382 331.299 148.558 331.773C148.734 332.247 149.005 332.629 149.371 332.92C149.737 333.211 150.204 333.356 150.771 333.356ZM160.054 326.056V327.132H155.768V326.056H160.054ZM157.017 324.074H158.288V331.956C158.288 332.315 158.34 332.584 158.444 332.764C158.552 332.94 158.688 333.058 158.853 333.119C159.022 333.177 159.2 333.205 159.386 333.205C159.526 333.205 159.641 333.198 159.731 333.184C159.821 333.166 159.892 333.152 159.946 333.141L160.205 334.282C160.119 334.314 159.998 334.347 159.844 334.379C159.69 334.415 159.494 334.433 159.257 334.433C158.898 334.433 158.546 334.356 158.202 334.201C157.861 334.047 157.577 333.812 157.351 333.496C157.129 333.18 157.017 332.782 157.017 332.301V324.074ZM162.784 337.426C162.568 337.426 162.376 337.408 162.207 337.372C162.039 337.34 161.922 337.308 161.858 337.276L162.181 336.156C162.489 336.235 162.762 336.263 162.999 336.242C163.236 336.22 163.446 336.114 163.629 335.924C163.815 335.738 163.986 335.434 164.14 335.014L164.377 334.368L161.319 326.056H162.697L164.98 332.645H165.066L167.349 326.056H168.727L165.217 335.531C165.059 335.958 164.863 336.312 164.63 336.592C164.397 336.875 164.126 337.085 163.817 337.222C163.512 337.358 163.168 337.426 162.784 337.426ZM170.404 337.426V326.056H171.632V327.369H171.783C171.876 327.226 172.005 327.043 172.17 326.82C172.339 326.594 172.579 326.393 172.892 326.217C173.208 326.038 173.635 325.948 174.173 325.948C174.869 325.948 175.483 326.122 176.014 326.47C176.545 326.818 176.96 327.312 177.258 327.951C177.556 328.59 177.705 329.343 177.705 330.212C177.705 331.088 177.556 331.847 177.258 332.489C176.96 333.128 176.547 333.624 176.02 333.975C175.492 334.323 174.884 334.497 174.195 334.497C173.663 334.497 173.238 334.41 172.919 334.234C172.599 334.054 172.353 333.851 172.181 333.625C172.009 333.396 171.876 333.205 171.783 333.055H171.675V337.426H170.404ZM171.653 330.19C171.653 330.815 171.745 331.366 171.928 331.843C172.111 332.317 172.378 332.689 172.73 332.958C173.082 333.223 173.513 333.356 174.022 333.356C174.553 333.356 174.997 333.216 175.352 332.936C175.711 332.653 175.98 332.272 176.16 331.795C176.343 331.314 176.434 330.779 176.434 330.19C176.434 329.609 176.344 329.085 176.165 328.618C175.989 328.148 175.722 327.777 175.363 327.504C175.008 327.228 174.561 327.089 174.022 327.089C173.505 327.089 173.071 327.22 172.719 327.482C172.368 327.741 172.102 328.103 171.923 328.57C171.743 329.033 171.653 329.573 171.653 330.19ZM179.643 334.325V326.056H180.914V334.325H179.643ZM180.289 324.677C180.041 324.677 179.828 324.593 179.648 324.424C179.472 324.256 179.385 324.053 179.385 323.816C179.385 323.579 179.472 323.376 179.648 323.208C179.828 323.039 180.041 322.955 180.289 322.955C180.537 322.955 180.748 323.039 180.924 323.208C181.104 323.376 181.194 323.579 181.194 323.816C181.194 324.053 181.104 324.256 180.924 324.424C180.748 324.593 180.537 324.677 180.289 324.677ZM184.511 329.351V334.325H183.241V326.056H184.468V327.348H184.576C184.77 326.928 185.064 326.59 185.459 326.336C185.854 326.077 186.363 325.948 186.988 325.948C187.548 325.948 188.038 326.063 188.458 326.293C188.878 326.519 189.204 326.863 189.437 327.326C189.671 327.786 189.787 328.367 189.787 329.071V334.325H188.517V329.157C188.517 328.507 188.348 328.001 188.011 327.638C187.673 327.272 187.21 327.089 186.622 327.089C186.216 327.089 185.854 327.177 185.534 327.353C185.218 327.529 184.969 327.786 184.786 328.123C184.603 328.46 184.511 328.87 184.511 329.351ZM195.447 337.599C194.833 337.599 194.306 337.52 193.864 337.362C193.423 337.207 193.055 337.003 192.761 336.748C192.47 336.497 192.238 336.227 192.066 335.94L193.078 335.23C193.193 335.38 193.339 335.553 193.514 335.747C193.69 335.944 193.931 336.114 194.236 336.258C194.544 336.405 194.948 336.479 195.447 336.479C196.115 336.479 196.666 336.317 197.1 335.994C197.534 335.671 197.751 335.165 197.751 334.476V332.796H197.644C197.55 332.947 197.418 333.134 197.245 333.356C197.077 333.575 196.833 333.771 196.513 333.943C196.197 334.112 195.77 334.196 195.232 334.196C194.564 334.196 193.965 334.038 193.434 333.722C192.906 333.406 192.488 332.947 192.179 332.344C191.874 331.741 191.722 331.009 191.722 330.147C191.722 329.3 191.871 328.563 192.168 327.935C192.466 327.303 192.881 326.815 193.412 326.47C193.943 326.122 194.557 325.948 195.253 325.948C195.792 325.948 196.219 326.038 196.535 326.217C196.854 326.393 197.098 326.594 197.267 326.82C197.439 327.043 197.572 327.226 197.665 327.369H197.795V326.056H199.022V334.562C199.022 335.273 198.861 335.851 198.537 336.296C198.218 336.744 197.787 337.073 197.245 337.281C196.707 337.493 196.108 337.599 195.447 337.599ZM195.404 333.055C195.914 333.055 196.344 332.938 196.696 332.705C197.048 332.471 197.315 332.136 197.498 331.698C197.681 331.26 197.773 330.736 197.773 330.126C197.773 329.53 197.683 329.004 197.504 328.548C197.324 328.093 197.059 327.735 196.707 327.477C196.355 327.219 195.921 327.089 195.404 327.089C194.866 327.089 194.417 327.226 194.058 327.499C193.703 327.771 193.435 328.137 193.256 328.597C193.08 329.056 192.992 329.566 192.992 330.126C192.992 330.7 193.082 331.208 193.261 331.649C193.444 332.087 193.714 332.432 194.069 332.683C194.428 332.931 194.873 333.055 195.404 333.055Z" fill="white"/>
<path d="M115.128 36.9546C114.654 45.9563 115.047 53.511 99.967 66.3287C81.0159 82.4371 63.96 84.3322 63.96 103.757" stroke="#548DFF" stroke-width="0.947552"/>
<path d="M64.4337 140.238C64.9075 149.24 64.5149 156.794 79.5946 169.612C98.5456 185.72 115.602 187.615 115.602 207.04" stroke="#4BCFFF" stroke-width="0.947552"/>
<path d="M205.619 140.238C205.145 149.24 205.538 156.794 190.458 169.612C171.507 185.72 154.451 187.615 154.451 207.04" stroke="#4BCFFF" stroke-width="0.947552"/>
<path d="M154.451 36.9546C154.925 45.9563 154.532 53.511 169.612 66.3287C188.563 82.4371 205.619 84.3322 205.619 103.757" stroke="#548DFF" stroke-width="0.947552"/>
<rect x="0.473776" y="103.757" width="128.003" height="36.0035" rx="14.6871" fill="#4BCFFF" fill-opacity="0.2"/>
<rect x="0.473776" y="103.757" width="128.003" height="36.0035" rx="14.6871" stroke="#4BCFFF" stroke-width="0.947552"/>
<path d="M19.6833 120.178H18.3481C18.2692 119.794 18.131 119.457 17.9336 119.166C17.7398 118.875 17.5029 118.631 17.2229 118.434C16.9465 118.233 16.6397 118.082 16.3023 117.982C15.9649 117.881 15.6131 117.831 15.247 117.831C14.5794 117.831 13.9747 118 13.4327 118.337C12.8943 118.674 12.4654 119.172 12.146 119.828C11.8301 120.485 11.6722 121.291 11.6722 122.246C11.6722 123.2 11.8301 124.006 12.146 124.663C12.4654 125.32 12.8943 125.817 13.4327 126.154C13.9747 126.492 14.5794 126.66 15.247 126.66C15.6131 126.66 15.9649 126.61 16.3023 126.51C16.6397 126.409 16.9465 126.26 17.2229 126.063C17.5029 125.862 17.7398 125.616 17.9336 125.325C18.131 125.031 18.2692 124.694 18.3481 124.313H19.6833C19.5828 124.877 19.3998 125.381 19.1342 125.826C18.8686 126.271 18.5384 126.65 18.1435 126.962C17.7487 127.271 17.3055 127.506 16.8137 127.667C16.3256 127.829 15.8034 127.91 15.247 127.91C14.3067 127.91 13.4704 127.68 12.7382 127.22C12.006 126.761 11.4299 126.108 11.01 125.261C10.59 124.414 10.3801 123.409 10.3801 122.246C10.3801 121.083 10.59 120.078 11.01 119.231C11.4299 118.384 12.006 117.731 12.7382 117.271C13.4704 116.812 14.3067 116.582 15.247 116.582C15.8034 116.582 16.3256 116.663 16.8137 116.824C17.3055 116.986 17.7487 117.223 18.1435 117.535C18.5384 117.844 18.8686 118.22 19.1342 118.666C19.3998 119.107 19.5828 119.611 19.6833 120.178ZM21.6686 127.759V119.489H22.8961V120.738H22.9822C23.133 120.329 23.4058 119.997 23.8006 119.742C24.1954 119.487 24.6405 119.36 25.1358 119.36C25.2291 119.36 25.3457 119.362 25.4857 119.365C25.6257 119.369 25.7316 119.374 25.8034 119.382V120.674C25.7603 120.663 25.6616 120.647 25.5073 120.625C25.3565 120.6 25.1968 120.588 25.0281 120.588C24.6261 120.588 24.2672 120.672 23.9513 120.841C23.6391 121.006 23.3914 121.235 23.2084 121.53C23.0289 121.82 22.9392 122.152 22.9392 122.526V127.759H21.6686ZM30.525 127.931C29.7282 127.931 29.0408 127.755 28.463 127.403C27.8887 127.048 27.4454 126.553 27.1332 125.918C26.8245 125.279 26.6702 124.536 26.6702 123.689C26.6702 122.842 26.8245 122.095 27.1332 121.449C27.4454 120.799 27.8797 120.293 28.4361 119.931C28.996 119.565 29.6492 119.382 30.3958 119.382C30.8265 119.382 31.2518 119.453 31.6717 119.597C32.0917 119.74 32.4739 119.974 32.8185 120.297C33.1631 120.616 33.4376 121.04 33.6422 121.567C33.8468 122.095 33.9491 122.745 33.9491 123.516V124.055H27.5746V122.956H32.657C32.657 122.49 32.5637 122.073 32.377 121.707C32.194 121.341 31.932 121.052 31.591 120.841C31.2536 120.629 30.8552 120.523 30.3958 120.523C29.8897 120.523 29.4518 120.649 29.0821 120.9C28.716 121.147 28.4343 121.47 28.2369 121.869C28.0394 122.267 27.9407 122.694 27.9407 123.15V123.882C27.9407 124.507 28.0484 125.036 28.2638 125.471C28.4827 125.901 28.786 126.23 29.1736 126.456C29.5613 126.678 30.0117 126.79 30.525 126.79C30.8588 126.79 31.1603 126.743 31.4295 126.65C31.7022 126.553 31.9373 126.409 32.1347 126.219C32.3321 126.025 32.4847 125.785 32.5924 125.498L33.8199 125.842C33.6907 126.258 33.4735 126.625 33.1684 126.94C32.8634 127.253 32.4865 127.497 32.0378 127.673C31.5892 127.845 31.0849 127.931 30.525 127.931ZM38.3154 127.953C37.7913 127.953 37.3158 127.854 36.8887 127.656C36.4615 127.456 36.1224 127.167 35.8711 126.79C35.6199 126.409 35.4942 125.95 35.4942 125.411C35.4942 124.938 35.5876 124.554 35.7742 124.259C35.9608 123.961 36.2103 123.728 36.5226 123.559C36.8348 123.391 37.1794 123.265 37.5562 123.183C37.9367 123.096 38.319 123.028 38.703 122.978C39.2055 122.913 39.6129 122.865 39.9251 122.833C40.241 122.797 40.4707 122.737 40.6143 122.655C40.7614 122.572 40.835 122.429 40.835 122.224V122.181C40.835 121.65 40.6896 121.237 40.3989 120.943C40.1118 120.649 39.6757 120.501 39.0906 120.501C38.4841 120.501 38.0085 120.634 37.6639 120.9C37.3194 121.165 37.0771 121.449 36.9371 121.75L35.7311 121.32C35.9465 120.817 36.2336 120.426 36.5925 120.146C36.9551 119.863 37.3499 119.665 37.777 119.554C38.2077 119.439 38.6312 119.382 39.0476 119.382C39.3132 119.382 39.6183 119.414 39.9628 119.478C40.311 119.539 40.6466 119.667 40.9696 119.861C41.2962 120.055 41.5672 120.347 41.7825 120.738C41.9979 121.13 42.1056 121.654 42.1056 122.31V127.759H40.835V126.639H40.7704C40.6842 126.818 40.5407 127.01 40.3397 127.215C40.1387 127.42 39.8713 127.594 39.5375 127.737C39.2037 127.881 38.7963 127.953 38.3154 127.953ZM38.5092 126.811C39.0117 126.811 39.4352 126.713 39.7798 126.515C40.1279 126.318 40.3899 126.063 40.5658 125.751C40.7453 125.438 40.835 125.11 40.835 124.765V123.602C40.7812 123.667 40.6627 123.726 40.4797 123.78C40.3002 123.83 40.092 123.875 39.8551 123.915C39.6218 123.951 39.3939 123.983 39.1714 124.012C38.9525 124.037 38.7748 124.058 38.6384 124.076C38.3082 124.119 37.9995 124.189 37.7124 124.286C37.4288 124.38 37.1991 124.521 37.0233 124.712C36.851 124.898 36.7648 125.153 36.7648 125.476C36.7648 125.918 36.9281 126.251 37.2548 126.477C37.585 126.7 38.0031 126.811 38.5092 126.811ZM48.0211 119.489V120.566H43.7355V119.489H48.0211ZM44.9846 117.508H46.2552V125.39C46.2552 125.749 46.3072 126.018 46.4113 126.197C46.519 126.373 46.6554 126.492 46.8205 126.553C46.9892 126.61 47.1668 126.639 47.3535 126.639C47.4934 126.639 47.6083 126.632 47.698 126.617C47.7878 126.599 47.8595 126.585 47.9134 126.574L48.1718 127.716C48.0857 127.748 47.9654 127.78 47.8111 127.813C47.6567 127.849 47.4611 127.866 47.2242 127.866C46.8653 127.866 46.5136 127.789 46.169 127.635C45.828 127.481 45.5445 127.246 45.3184 126.93C45.0958 126.614 44.9846 126.215 44.9846 125.734V117.508ZM49.9323 127.759V119.489H51.2029V127.759H49.9323ZM50.5784 118.111C50.3307 118.111 50.1172 118.027 49.9377 117.858C49.7618 117.689 49.6739 117.486 49.6739 117.25C49.6739 117.013 49.7618 116.81 49.9377 116.641C50.1172 116.473 50.3307 116.388 50.5784 116.388C50.826 116.388 51.0378 116.473 51.2137 116.641C51.3931 116.81 51.4828 117.013 51.4828 117.25C51.4828 117.486 51.3931 117.689 51.2137 117.858C51.0378 118.027 50.826 118.111 50.5784 118.111ZM60.2921 119.489L57.2341 127.759H55.942L52.884 119.489H54.2622L56.545 126.079H56.6311L58.9139 119.489H60.2921ZM65.1403 127.931C64.3435 127.931 63.6561 127.755 63.0783 127.403C62.504 127.048 62.0607 126.553 61.7484 125.918C61.4398 125.279 61.2854 124.536 61.2854 123.689C61.2854 122.842 61.4398 122.095 61.7484 121.449C62.0607 120.799 62.495 120.293 63.0513 119.931C63.6113 119.565 64.2645 119.382 65.011 119.382C65.4417 119.382 65.8671 119.453 66.287 119.597C66.7069 119.74 67.0892 119.974 67.4338 120.297C67.7783 120.616 68.0529 121.04 68.2575 121.567C68.4621 122.095 68.5644 122.745 68.5644 123.516V124.055H62.1899V122.956H67.2722C67.2722 122.49 67.1789 122.073 66.9923 121.707C66.8092 121.341 66.5472 121.052 66.2063 120.841C65.8689 120.629 65.4705 120.523 65.011 120.523C64.505 120.523 64.0671 120.649 63.6974 120.9C63.3313 121.147 63.0495 121.47 62.8521 121.869C62.6547 122.267 62.556 122.694 62.556 123.15V123.882C62.556 124.507 62.6637 125.036 62.8791 125.471C63.098 125.901 63.4013 126.23 63.7889 126.456C64.1766 126.678 64.627 126.79 65.1403 126.79C65.4741 126.79 65.7755 126.743 66.0447 126.65C66.3175 126.553 66.5526 126.409 66.75 126.219C66.9474 126.025 67.1 125.785 67.2076 125.498L68.4352 125.842C68.3059 126.258 68.0888 126.625 67.7837 126.94C67.4786 127.253 67.1018 127.497 66.6531 127.673C66.2045 127.845 65.7002 127.931 65.1403 127.931ZM74.9334 116.733H76.527L80.2742 125.885H80.4034L84.1505 116.733H85.7441V127.759H84.4951V119.382H84.3874L80.9418 127.759H79.7358L76.2901 119.382H76.1825V127.759H74.9334V116.733ZM90.6824 127.953C90.1584 127.953 89.6828 127.854 89.2557 127.656C88.8286 127.456 88.4894 127.167 88.2382 126.79C87.9869 126.409 87.8613 125.95 87.8613 125.411C87.8613 124.938 87.9546 124.554 88.1413 124.259C88.3279 123.961 88.5774 123.728 88.8896 123.559C89.2019 123.391 89.5465 123.265 89.9233 123.183C90.3038 123.096 90.686 123.028 91.0701 122.978C91.5726 122.913 91.9799 122.865 92.2922 122.833C92.6081 122.797 92.8378 122.737 92.9813 122.655C93.1285 122.572 93.2021 122.429 93.2021 122.224V122.181C93.2021 121.65 93.0567 121.237 92.766 120.943C92.4788 120.649 92.0428 120.501 91.4577 120.501C90.8511 120.501 90.3756 120.634 90.031 120.9C89.6864 121.165 89.4442 121.449 89.3042 121.75L88.0982 121.32C88.3136 120.817 88.6007 120.426 88.9596 120.146C89.3221 119.863 89.7169 119.665 90.1441 119.554C90.5748 119.439 90.9983 119.382 91.4146 119.382C91.6802 119.382 91.9853 119.414 92.3299 119.478C92.678 119.539 93.0136 119.667 93.3367 119.861C93.6633 120.055 93.9343 120.347 94.1496 120.738C94.365 121.13 94.4727 121.654 94.4727 122.31V127.759H93.2021V126.639H93.1375C93.0513 126.818 92.9078 127.01 92.7068 127.215C92.5058 127.42 92.2384 127.594 91.9046 127.737C91.5708 127.881 91.1634 127.953 90.6824 127.953ZM90.8763 126.811C91.3788 126.811 91.8023 126.713 92.1468 126.515C92.495 126.318 92.757 126.063 92.9329 125.751C93.1123 125.438 93.2021 125.11 93.2021 124.765V123.602C93.1482 123.667 93.0298 123.726 92.8467 123.78C92.6673 123.83 92.4591 123.875 92.2222 123.915C91.9889 123.951 91.761 123.983 91.5385 124.012C91.3195 124.037 91.1419 124.058 91.0055 124.076C90.6753 124.119 90.3666 124.189 90.0795 124.286C89.7959 124.38 89.5662 124.521 89.3903 124.712C89.218 124.898 89.1319 125.153 89.1319 125.476C89.1319 125.918 89.2952 126.251 89.6218 126.477C89.952 126.7 90.3702 126.811 90.8763 126.811ZM100.388 119.489V120.566H96.1026V119.489H100.388ZM97.3517 117.508H98.6222V125.39C98.6222 125.749 98.6743 126.018 98.7784 126.197C98.886 126.373 99.0224 126.492 99.1875 126.553C99.3562 126.61 99.5339 126.639 99.7205 126.639C99.8605 126.639 99.9754 126.632 100.065 126.617C100.155 126.599 100.227 126.585 100.28 126.574L100.539 127.716C100.453 127.748 100.332 127.78 100.178 127.813C100.024 127.849 99.8282 127.866 99.5913 127.866C99.2324 127.866 98.8807 127.789 98.5361 127.635C98.1951 127.481 97.9116 127.246 97.6854 126.93C97.4629 126.614 97.3517 126.215 97.3517 125.734V117.508ZM102.299 127.759V119.489H103.527V120.738H103.613C103.764 120.329 104.037 119.997 104.431 119.742C104.826 119.487 105.271 119.36 105.767 119.36C105.86 119.36 105.977 119.362 106.117 119.365C106.256 119.369 106.362 119.374 106.434 119.382V120.674C106.391 120.663 106.292 120.647 106.138 120.625C105.987 120.6 105.828 120.588 105.659 120.588C105.257 120.588 104.898 120.672 104.582 120.841C104.27 121.006 104.022 121.235 103.839 121.53C103.66 121.82 103.57 122.152 103.57 122.526V127.759H102.299ZM107.94 127.759V119.489H109.211V127.759H107.94ZM108.586 118.111C108.339 118.111 108.125 118.027 107.946 117.858C107.77 117.689 107.682 117.486 107.682 117.25C107.682 117.013 107.77 116.81 107.946 116.641C108.125 116.473 108.339 116.388 108.586 116.388C108.834 116.388 109.046 116.473 109.222 116.641C109.401 116.81 109.491 117.013 109.491 117.25C109.491 117.486 109.401 117.689 109.222 117.858C109.046 118.027 108.834 118.111 108.586 118.111ZM112.486 119.489L114.467 122.87L116.448 119.489H117.912L115.242 123.624L117.912 127.759H116.448L114.467 124.55L112.486 127.759H111.021L113.648 123.624L111.021 119.489H112.486Z" fill="white"/>
<rect x="164.401" y="103.757" width="82.0035" height="36.0035" rx="14.6871" fill="#4BCFFF" fill-opacity="0.2"/>
<rect x="164.401" y="103.757" width="82.0035" height="36.0035" rx="14.6871" stroke="#4BCFFF" stroke-width="0.947552"/>
<path d="M183.61 120.178H182.275C182.196 119.794 182.058 119.457 181.86 119.166C181.667 118.875 181.43 118.631 181.15 118.434C180.873 118.233 180.566 118.082 180.229 117.982C179.892 117.881 179.54 117.831 179.174 117.831C178.506 117.831 177.901 118 177.359 118.337C176.821 118.674 176.392 119.172 176.073 119.828C175.757 120.485 175.599 121.291 175.599 122.246C175.599 123.2 175.757 124.006 176.073 124.663C176.392 125.32 176.821 125.817 177.359 126.154C177.901 126.492 178.506 126.66 179.174 126.66C179.54 126.66 179.892 126.61 180.229 126.51C180.566 126.409 180.873 126.26 181.15 126.063C181.43 125.862 181.667 125.616 181.86 125.325C182.058 125.031 182.196 124.694 182.275 124.313H183.61C183.51 124.877 183.327 125.381 183.061 125.826C182.795 126.271 182.465 126.65 182.07 126.962C181.675 127.271 181.232 127.506 180.74 127.667C180.252 127.829 179.73 127.91 179.174 127.91C178.233 127.91 177.397 127.68 176.665 127.22C175.933 126.761 175.357 126.108 174.937 125.261C174.517 124.414 174.307 123.409 174.307 122.246C174.307 121.083 174.517 120.078 174.937 119.231C175.357 118.384 175.933 117.731 176.665 117.271C177.397 116.812 178.233 116.582 179.174 116.582C179.73 116.582 180.252 116.663 180.74 116.824C181.232 116.986 181.675 117.223 182.07 117.535C182.465 117.844 182.795 118.22 183.061 118.666C183.327 119.107 183.51 119.611 183.61 120.178ZM185.595 127.759V119.489H186.823V120.738H186.909C187.06 120.329 187.333 119.997 187.727 119.742C188.122 119.487 188.567 119.36 189.063 119.36C189.156 119.36 189.273 119.362 189.412 119.365C189.552 119.369 189.658 119.374 189.73 119.382V120.674C189.687 120.663 189.588 120.647 189.434 120.625C189.283 120.6 189.124 120.588 188.955 120.588C188.553 120.588 188.194 120.672 187.878 120.841C187.566 121.006 187.318 121.235 187.135 121.53C186.956 121.82 186.866 122.152 186.866 122.526V127.759H185.595ZM193.67 127.953C193.146 127.953 192.67 127.854 192.243 127.656C191.816 127.456 191.477 127.167 191.225 126.79C190.974 126.409 190.849 125.95 190.849 125.411C190.849 124.938 190.942 124.554 191.129 124.259C191.315 123.961 191.565 123.728 191.877 123.559C192.189 123.391 192.534 123.265 192.911 123.183C193.291 123.096 193.673 123.028 194.057 122.978C194.56 122.913 194.967 122.865 195.28 122.833C195.595 122.797 195.825 122.737 195.969 122.655C196.116 122.572 196.189 122.429 196.189 122.224V122.181C196.189 121.65 196.044 121.237 195.753 120.943C195.466 120.649 195.03 120.501 194.445 120.501C193.838 120.501 193.363 120.634 193.018 120.9C192.674 121.165 192.431 121.449 192.291 121.75L191.086 121.32C191.301 120.817 191.588 120.426 191.947 120.146C192.309 119.863 192.704 119.665 193.131 119.554C193.562 119.439 193.986 119.382 194.402 119.382C194.668 119.382 194.973 119.414 195.317 119.478C195.665 119.539 196.001 119.667 196.324 119.861C196.651 120.055 196.922 120.347 197.137 120.738C197.352 121.13 197.46 121.654 197.46 122.31V127.759H196.189V126.639H196.125C196.039 126.818 195.895 127.01 195.694 127.215C195.493 127.42 195.226 127.594 194.892 127.737C194.558 127.881 194.151 127.953 193.67 127.953ZM193.864 126.811C194.366 126.811 194.79 126.713 195.134 126.515C195.482 126.318 195.744 126.063 195.92 125.751C196.1 125.438 196.189 125.11 196.189 124.765V123.602C196.136 123.667 196.017 123.726 195.834 123.78C195.655 123.83 195.446 123.875 195.21 123.915C194.976 123.951 194.748 123.983 194.526 124.012C194.307 124.037 194.129 124.058 193.993 124.076C193.663 124.119 193.354 124.189 193.067 124.286C192.783 124.38 192.553 124.521 192.378 124.712C192.205 124.898 192.119 125.153 192.119 125.476C192.119 125.918 192.283 126.251 192.609 126.477C192.939 126.7 193.357 126.811 193.864 126.811ZM199.542 127.759V126.79L204.237 120.76V120.674H199.693V119.489H205.874V120.501L201.308 126.488V126.574H206.024V127.759H199.542ZM208.8 130.86C208.584 130.86 208.392 130.842 208.224 130.806C208.055 130.774 207.938 130.741 207.874 130.709L208.197 129.589C208.505 129.668 208.778 129.697 209.015 129.675C209.252 129.654 209.462 129.548 209.645 129.358C209.832 129.171 210.002 128.868 210.156 128.448L210.393 127.802L207.335 119.489H208.713L210.996 126.079H211.082L213.365 119.489H214.743L211.233 128.965C211.075 129.392 210.88 129.745 210.646 130.025C210.413 130.309 210.142 130.519 209.833 130.655C209.528 130.792 209.184 130.86 208.8 130.86ZM224.195 127.91C223.455 127.91 222.802 127.779 222.235 127.517C221.671 127.251 221.232 126.887 220.916 126.424C220.6 125.957 220.444 125.426 220.448 124.83C220.444 124.363 220.535 123.933 220.722 123.538C220.909 123.139 221.164 122.807 221.487 122.542C221.813 122.273 222.178 122.102 222.58 122.03V121.966C222.052 121.829 221.632 121.533 221.32 121.077C221.007 120.618 220.853 120.096 220.857 119.511C220.853 118.951 220.995 118.45 221.282 118.009C221.569 117.567 221.964 117.219 222.466 116.964C222.973 116.709 223.549 116.582 224.195 116.582C224.834 116.582 225.404 116.709 225.907 116.964C226.409 117.219 226.804 117.567 227.091 118.009C227.382 118.45 227.529 118.951 227.533 119.511C227.529 120.096 227.369 120.618 227.053 121.077C226.741 121.533 226.327 121.829 225.81 121.966V122.03C226.208 122.102 226.567 122.273 226.887 122.542C227.206 122.807 227.461 123.139 227.651 123.538C227.841 123.933 227.938 124.363 227.942 124.83C227.938 125.426 227.777 125.957 227.457 126.424C227.141 126.887 226.702 127.251 226.138 127.517C225.578 127.779 224.93 127.91 224.195 127.91ZM224.195 126.725C224.694 126.725 225.124 126.644 225.487 126.483C225.849 126.321 226.129 126.093 226.327 125.799C226.524 125.505 226.625 125.16 226.628 124.765C226.625 124.349 226.517 123.981 226.305 123.662C226.093 123.342 225.804 123.091 225.438 122.908C225.076 122.725 224.661 122.633 224.195 122.633C223.724 122.633 223.305 122.725 222.935 122.908C222.569 123.091 222.28 123.342 222.068 123.662C221.86 123.981 221.758 124.349 221.761 124.765C221.758 125.16 221.853 125.505 222.047 125.799C222.244 126.093 222.526 126.321 222.892 126.483C223.258 126.644 223.692 126.725 224.195 126.725ZM224.195 121.492C224.589 121.492 224.939 121.413 225.245 121.255C225.553 121.097 225.795 120.876 225.971 120.593C226.147 120.309 226.237 119.977 226.241 119.597C226.237 119.224 226.149 118.899 225.977 118.622C225.804 118.342 225.566 118.127 225.261 117.976C224.956 117.822 224.6 117.745 224.195 117.745C223.782 117.745 223.421 117.822 223.113 117.976C222.804 118.127 222.565 118.342 222.396 118.622C222.228 118.899 222.145 119.224 222.149 119.597C222.145 119.977 222.23 120.309 222.402 120.593C222.578 120.876 222.82 121.097 223.129 121.255C223.437 121.413 223.793 121.492 224.195 121.492ZM235.884 121.341L234.743 121.664C234.671 121.474 234.565 121.289 234.425 121.11C234.289 120.927 234.102 120.776 233.865 120.658C233.628 120.539 233.325 120.48 232.955 120.48C232.449 120.48 232.028 120.597 231.69 120.83C231.356 121.06 231.19 121.352 231.19 121.707C231.19 122.023 231.304 122.273 231.534 122.456C231.764 122.639 232.123 122.791 232.611 122.913L233.838 123.215C234.578 123.394 235.129 123.669 235.491 124.039C235.854 124.405 236.035 124.877 236.035 125.455C236.035 125.928 235.899 126.352 235.626 126.725C235.357 127.098 234.98 127.393 234.495 127.608C234.011 127.823 233.447 127.931 232.805 127.931C231.961 127.931 231.263 127.748 230.71 127.382C230.158 127.016 229.808 126.481 229.661 125.778L230.867 125.476C230.981 125.921 231.199 126.255 231.518 126.477C231.841 126.7 232.263 126.811 232.783 126.811C233.375 126.811 233.846 126.686 234.194 126.434C234.545 126.18 234.721 125.874 234.721 125.519C234.721 125.232 234.621 124.992 234.42 124.798C234.219 124.6 233.91 124.453 233.494 124.356L232.116 124.033C231.358 123.854 230.802 123.576 230.447 123.199C230.095 122.818 229.919 122.343 229.919 121.772C229.919 121.305 230.05 120.893 230.312 120.534C230.578 120.175 230.938 119.893 231.394 119.688C231.854 119.484 232.374 119.382 232.955 119.382C233.774 119.382 234.416 119.561 234.883 119.92C235.353 120.279 235.687 120.753 235.884 121.341Z" fill="white"/>
<path d="M135.5 242.573V309.85" stroke="#75FFEE" stroke-width="0.947552"/>
<rect x="81.963" y="207.04" width="109.003" height="36.0035" rx="14.6871" fill="#75FFEE" fill-opacity="0.2"/>
<rect x="81.963" y="207.04" width="109.003" height="36.0035" rx="14.6871" stroke="#75FFEE" stroke-width="0.947552"/>
<path d="M92.3 231.042V220.016H96.0256C96.887 220.016 97.5941 220.163 98.1469 220.457C98.6996 220.748 99.1088 221.148 99.3744 221.658C99.64 222.168 99.7728 222.747 99.7728 223.397C99.7728 224.047 99.64 224.623 99.3744 225.125C99.1088 225.628 98.7014 226.022 98.1522 226.31C97.6031 226.593 96.9014 226.735 96.0472 226.735H93.0322V225.529H96.0041C96.5927 225.529 97.0665 225.443 97.4254 225.271C97.7879 225.098 98.05 224.854 98.2115 224.538C98.3766 224.219 98.4591 223.838 98.4591 223.397C98.4591 222.955 98.3766 222.57 98.2115 222.239C98.0464 221.909 97.7826 221.654 97.42 221.475C97.0575 221.292 96.5784 221.2 95.9826 221.2H93.6352V231.042H92.3ZM97.49 226.089L100.203 231.042H98.6529L95.9826 226.089H97.49ZM105.096 231.214C104.349 231.214 103.694 231.037 103.131 230.681C102.571 230.326 102.133 229.829 101.817 229.19C101.505 228.551 101.349 227.805 101.349 226.95C101.349 226.089 101.505 225.337 101.817 224.694C102.133 224.052 102.571 223.553 103.131 223.198C103.694 222.842 104.349 222.665 105.096 222.665C105.843 222.665 106.496 222.842 107.056 223.198C107.619 223.553 108.057 224.052 108.369 224.694C108.685 225.337 108.843 226.089 108.843 226.95C108.843 227.805 108.685 228.551 108.369 229.19C108.057 229.829 107.619 230.326 107.056 230.681C106.496 231.037 105.843 231.214 105.096 231.214ZM105.096 230.073C105.663 230.073 106.13 229.928 106.496 229.637C106.862 229.346 107.133 228.964 107.309 228.49C107.485 228.016 107.573 227.503 107.573 226.95C107.573 226.398 107.485 225.882 107.309 225.405C107.133 224.928 106.862 224.542 106.496 224.248C106.13 223.953 105.663 223.806 105.096 223.806C104.529 223.806 104.062 223.953 103.696 224.248C103.33 224.542 103.059 224.928 102.883 225.405C102.707 225.882 102.619 226.398 102.619 226.95C102.619 227.503 102.707 228.016 102.883 228.49C103.059 228.964 103.33 229.346 103.696 229.637C104.062 229.928 104.529 230.073 105.096 230.073ZM115.994 227.661V222.772H117.265V231.042H115.994V229.642H115.908C115.714 230.062 115.413 230.419 115.004 230.714C114.594 231.004 114.078 231.15 113.453 231.15C112.936 231.15 112.477 231.037 112.075 230.81C111.673 230.581 111.357 230.236 111.127 229.777C110.898 229.314 110.783 228.731 110.783 228.027V222.772H112.053V227.941C112.053 228.544 112.222 229.025 112.559 229.384C112.9 229.743 113.335 229.922 113.862 229.922C114.178 229.922 114.499 229.841 114.826 229.68C115.156 229.518 115.433 229.271 115.655 228.937C115.881 228.603 115.994 228.178 115.994 227.661ZM120.863 226.067V231.042H119.592V222.772H120.819V224.065H120.927C121.121 223.645 121.415 223.307 121.81 223.052C122.205 222.794 122.715 222.665 123.339 222.665C123.899 222.665 124.389 222.78 124.809 223.009C125.229 223.235 125.555 223.58 125.789 224.043C126.022 224.502 126.139 225.084 126.139 225.787V231.042H124.868V225.874C124.868 225.224 124.699 224.718 124.362 224.355C124.025 223.989 123.562 223.806 122.973 223.806C122.567 223.806 122.205 223.894 121.885 224.07C121.57 224.246 121.32 224.502 121.137 224.84C120.954 225.177 120.863 225.586 120.863 226.067ZM131.583 231.214C130.894 231.214 130.286 231.04 129.758 230.692C129.23 230.34 128.818 229.845 128.52 229.206C128.222 228.564 128.073 227.805 128.073 226.929C128.073 226.06 128.222 225.306 128.52 224.668C128.818 224.029 129.232 223.535 129.763 223.187C130.295 222.839 130.908 222.665 131.605 222.665C132.143 222.665 132.568 222.754 132.881 222.934C133.196 223.11 133.437 223.311 133.602 223.537C133.771 223.759 133.902 223.943 133.995 224.086H134.103V220.016H135.373V231.042H134.146V229.771H133.995C133.902 229.922 133.769 230.112 133.597 230.342C133.424 230.568 133.178 230.771 132.859 230.95C132.54 231.126 132.114 231.214 131.583 231.214ZM131.755 230.073C132.265 230.073 132.696 229.94 133.047 229.675C133.399 229.405 133.667 229.034 133.85 228.56C134.033 228.083 134.124 227.532 134.124 226.907C134.124 226.29 134.035 225.75 133.855 225.287C133.676 224.82 133.41 224.458 133.058 224.199C132.707 223.937 132.272 223.806 131.755 223.806C131.217 223.806 130.768 223.944 130.409 224.221C130.054 224.493 129.787 224.865 129.607 225.335C129.431 225.802 129.343 226.326 129.343 226.907C129.343 227.496 129.433 228.031 129.613 228.512C129.796 228.989 130.065 229.369 130.42 229.653C130.779 229.933 131.224 230.073 131.755 230.073ZM142.313 231.042V220.016H146.039C146.9 220.016 147.607 220.163 148.16 220.457C148.713 220.748 149.122 221.148 149.387 221.658C149.653 222.168 149.786 222.747 149.786 223.397C149.786 224.047 149.653 224.623 149.387 225.125C149.122 225.628 148.714 226.022 148.165 226.31C147.616 226.593 146.914 226.735 146.06 226.735H143.045V225.529H146.017C146.606 225.529 147.08 225.443 147.438 225.271C147.801 225.098 148.063 224.854 148.224 224.538C148.39 224.219 148.472 223.838 148.472 223.397C148.472 222.955 148.39 222.57 148.224 222.239C148.059 221.909 147.796 221.654 147.433 221.475C147.071 221.292 146.591 221.2 145.996 221.2H143.648V231.042H142.313ZM147.503 226.089L150.216 231.042H148.666L145.996 226.089H147.503ZM155.109 231.214C154.362 231.214 153.707 231.037 153.144 230.681C152.584 230.326 152.146 229.829 151.83 229.19C151.518 228.551 151.362 227.805 151.362 226.95C151.362 226.089 151.518 225.337 151.83 224.694C152.146 224.052 152.584 223.553 153.144 223.198C153.707 222.842 154.362 222.665 155.109 222.665C155.856 222.665 156.509 222.842 157.069 223.198C157.632 223.553 158.07 224.052 158.382 224.694C158.698 225.337 158.856 226.089 158.856 226.95C158.856 227.805 158.698 228.551 158.382 229.19C158.07 229.829 157.632 230.326 157.069 230.681C156.509 231.037 155.856 231.214 155.109 231.214ZM155.109 230.073C155.676 230.073 156.143 229.928 156.509 229.637C156.875 229.346 157.146 228.964 157.322 228.49C157.498 228.016 157.586 227.503 157.586 226.95C157.586 226.398 157.498 225.882 157.322 225.405C157.146 224.928 156.875 224.542 156.509 224.248C156.143 223.953 155.676 223.806 155.109 223.806C154.542 223.806 154.075 223.953 153.709 224.248C153.343 224.542 153.072 224.928 152.896 225.405C152.72 225.882 152.632 226.398 152.632 226.95C152.632 227.503 152.72 228.016 152.896 228.49C153.072 228.964 153.343 229.346 153.709 229.637C154.075 229.928 154.542 230.073 155.109 230.073ZM160.968 231.042V220.016H162.239V224.086H162.346C162.44 223.943 162.569 223.759 162.734 223.537C162.903 223.311 163.143 223.11 163.455 222.934C163.771 222.754 164.198 222.665 164.737 222.665C165.433 222.665 166.047 222.839 166.578 223.187C167.109 223.535 167.524 224.029 167.822 224.668C168.119 225.306 168.268 226.06 168.268 226.929C168.268 227.805 168.119 228.564 167.822 229.206C167.524 229.845 167.111 230.34 166.583 230.692C166.056 231.04 165.447 231.214 164.758 231.214C164.227 231.214 163.802 231.126 163.482 230.95C163.163 230.771 162.917 230.568 162.745 230.342C162.572 230.112 162.44 229.922 162.346 229.771H162.195V231.042H160.968ZM162.217 226.907C162.217 227.532 162.309 228.083 162.492 228.56C162.675 229.034 162.942 229.405 163.294 229.675C163.646 229.94 164.076 230.073 164.586 230.073C165.117 230.073 165.56 229.933 165.916 229.653C166.275 229.369 166.544 228.989 166.723 228.512C166.906 228.031 166.998 227.496 166.998 226.907C166.998 226.326 166.908 225.802 166.729 225.335C166.553 224.865 166.285 224.493 165.926 224.221C165.571 223.944 165.124 223.806 164.586 223.806C164.069 223.806 163.635 223.937 163.283 224.199C162.931 224.458 162.666 224.82 162.486 225.287C162.307 225.75 162.217 226.29 162.217 226.907ZM170.212 231.042V222.772H171.483V231.042H170.212ZM170.858 221.394C170.61 221.394 170.397 221.31 170.217 221.141C170.042 220.972 169.954 220.77 169.954 220.533C169.954 220.296 170.042 220.093 170.217 219.924C170.397 219.756 170.61 219.671 170.858 219.671C171.106 219.671 171.317 219.756 171.493 219.924C171.673 220.093 171.763 220.296 171.763 220.533C171.763 220.77 171.673 220.972 171.493 221.141C171.317 221.31 171.106 221.394 170.858 221.394ZM175.08 226.067V231.042H173.81V222.772H175.037V224.065H175.145C175.339 223.645 175.633 223.307 176.028 223.052C176.423 222.794 176.932 222.665 177.557 222.665C178.117 222.665 178.607 222.78 179.027 223.009C179.447 223.235 179.773 223.58 180.007 224.043C180.24 224.502 180.356 225.084 180.356 225.787V231.042H179.086V225.874C179.086 225.224 178.917 224.718 178.58 224.355C178.242 223.989 177.779 223.806 177.191 223.806C176.785 223.806 176.423 223.894 176.103 224.07C175.787 224.246 175.538 224.502 175.355 224.84C175.172 225.177 175.08 225.586 175.08 226.067Z" fill="white"/>
<defs>
<linearGradient id="paint0_linear_1537_2323" x1="240.678" y1="18.0034" x2="240.678" y2="330.696" gradientUnits="userSpaceOnUse">
<stop stop-color="#548DFF"/>
<stop offset="1" stop-color="#75FF95"/>
</linearGradient>
</defs>
</svg>
