<svg width="352" height="153" viewBox="0 0 352 153" fill="none" xmlns="http://www.w3.org/2000/svg">
<g filter="url(#filter0_ddd_1605_1973)">
<rect x="6" y="4" width="340" height="139" rx="24" fill="#FFF8F1" shape-rendering="crispEdges"/>
<rect x="6.5" y="4.5" width="339" height="138" rx="23.5" stroke="#CAC3BD" shape-rendering="crispEdges"/>
<path d="M24.2912 46V32.9091H29.2003C30.206 32.9091 31.0497 33.0838 31.7315 33.4332C32.4176 33.7827 32.9354 34.2727 33.2848 34.9034C33.6385 35.5298 33.8153 36.2607 33.8153 37.0959C33.8153 37.9354 33.6364 38.6641 33.2784 39.282C32.9247 39.8956 32.4027 40.3707 31.7124 40.7074C31.022 41.0398 30.174 41.206 29.1683 41.206H25.6719V39.2372H28.8487C29.4368 39.2372 29.9183 39.1562 30.2933 38.9943C30.6683 38.8281 30.9453 38.5874 31.1243 38.272C31.3075 37.9524 31.3991 37.5604 31.3991 37.0959C31.3991 36.6314 31.3075 36.2351 31.1243 35.907C30.9411 35.5746 30.6619 35.3232 30.2869 35.1527C29.9119 34.978 29.4283 34.8906 28.8359 34.8906H26.6626V46H24.2912ZM31.054 40.0682L34.2947 46H31.6484L28.4652 40.0682H31.054ZM40.1019 46.1918C39.1175 46.1918 38.2674 45.9872 37.5515 45.5781C36.8398 45.1648 36.2923 44.581 35.9087 43.8267C35.5252 43.0682 35.3335 42.1754 35.3335 41.1484C35.3335 40.1385 35.5252 39.2521 35.9087 38.4893C36.2965 37.7223 36.8377 37.1257 37.5323 36.6996C38.2269 36.2692 39.043 36.054 39.9805 36.054C40.5856 36.054 41.1566 36.152 41.6935 36.348C42.2347 36.5398 42.712 36.8381 43.1254 37.2429C43.543 37.6477 43.8711 38.1634 44.1097 38.7898C44.3484 39.4119 44.4677 40.1534 44.4677 41.0142V41.7237H36.4201V40.1641H42.2496C42.2454 39.7209 42.1495 39.3267 41.962 38.9815C41.7745 38.6321 41.5124 38.3572 41.1758 38.157C40.8434 37.9567 40.4556 37.8565 40.0124 37.8565C39.5394 37.8565 39.1239 37.9716 38.766 38.2017C38.408 38.4276 38.1289 38.7259 37.9286 39.0966C37.7326 39.4631 37.6325 39.8658 37.6282 40.3047V41.6662C37.6282 42.2372 37.7326 42.7273 37.9414 43.1364C38.1502 43.5412 38.4421 43.8523 38.8171 44.0696C39.1921 44.2827 39.631 44.3892 40.1339 44.3892C40.4705 44.3892 40.7752 44.3423 41.0479 44.2486C41.3207 44.1506 41.5572 44.0078 41.7575 43.8203C41.9577 43.6328 42.109 43.4006 42.2113 43.1236L44.3718 43.3665C44.2354 43.9375 43.9755 44.4361 43.592 44.8622C43.2127 45.2841 42.7269 45.6122 42.1346 45.8466C41.5423 46.0767 40.8647 46.1918 40.1019 46.1918ZM51.3983 36.1818V37.9716H45.5943V36.1818H51.3983ZM47.0453 46V35.255C47.0453 34.5945 47.1816 34.0447 47.4544 33.6058C47.7314 33.1669 48.1021 32.8388 48.5666 32.6214C49.0311 32.4041 49.5467 32.2955 50.1135 32.2955C50.514 32.2955 50.8699 32.3274 51.1809 32.3913C51.492 32.4553 51.7221 32.5128 51.8713 32.5639L51.411 34.3537C51.313 34.3239 51.1895 34.294 51.0403 34.2642C50.8912 34.2301 50.725 34.2131 50.5417 34.2131C50.1113 34.2131 49.8066 34.3175 49.6277 34.5263C49.4529 34.7308 49.3656 35.0249 49.3656 35.4084V46H47.0453ZM55.5243 32.9091V46H53.2104V32.9091H55.5243ZM62.2504 46.1918C61.266 46.1918 60.4158 45.9872 59.6999 45.5781C58.9883 45.1648 58.4407 44.581 58.0572 43.8267C57.6737 43.0682 57.4819 42.1754 57.4819 41.1484C57.4819 40.1385 57.6737 39.2521 58.0572 38.4893C58.445 37.7223 58.9862 37.1257 59.6808 36.6996C60.3754 36.2692 61.1914 36.054 62.1289 36.054C62.734 36.054 63.305 36.152 63.842 36.348C64.3832 36.5398 64.8604 36.8381 65.2738 37.2429C65.6914 37.6477 66.0195 38.1634 66.2582 38.7898C66.4968 39.4119 66.6161 40.1534 66.6161 41.0142V41.7237H58.5685V40.1641H64.3981C64.3938 39.7209 64.2979 39.3267 64.1104 38.9815C63.9229 38.6321 63.6609 38.3572 63.3242 38.157C62.9918 37.9567 62.604 37.8565 62.1609 37.8565C61.6879 37.8565 61.2724 37.9716 60.9144 38.2017C60.5565 38.4276 60.2773 38.7259 60.0771 39.0966C59.881 39.4631 59.7809 39.8658 59.7766 40.3047V41.6662C59.7766 42.2372 59.881 42.7273 60.0898 43.1364C60.2987 43.5412 60.5906 43.8523 60.9656 44.0696C61.3406 44.2827 61.7795 44.3892 62.2823 44.3892C62.619 44.3892 62.9237 44.3423 63.1964 44.2486C63.4691 44.1506 63.7056 44.0078 63.9059 43.8203C64.1062 43.6328 64.2575 43.4006 64.3597 43.1236L66.5202 43.3665C66.3839 43.9375 66.1239 44.4361 65.7404 44.8622C65.3612 45.2841 64.8754 45.6122 64.283 45.8466C63.6907 46.0767 63.0131 46.1918 62.2504 46.1918ZM72.8564 46.1918C71.8762 46.1918 71.0346 45.9766 70.3315 45.5462C69.6326 45.1158 69.0936 44.5213 68.7143 43.7628C68.3393 43 68.1518 42.1222 68.1518 41.1293C68.1518 40.1321 68.3436 39.2521 68.7271 38.4893C69.1106 37.7223 69.6518 37.1257 70.3507 36.6996C71.0538 36.2692 71.8848 36.054 72.8436 36.054C73.6404 36.054 74.3457 36.201 74.9593 36.495C75.5772 36.7848 76.0694 37.196 76.4359 37.7287C76.8024 38.2571 77.0112 38.875 77.0623 39.5824H74.8507C74.7612 39.1094 74.5481 38.7152 74.2115 38.3999C73.8791 38.0803 73.4338 37.9205 72.8755 37.9205C72.4025 37.9205 71.987 38.0483 71.6291 38.304C71.2711 38.5554 70.992 38.9176 70.7917 39.3906C70.5957 39.8636 70.4977 40.4304 70.4977 41.0909C70.4977 41.7599 70.5957 42.3352 70.7917 42.8168C70.9877 43.294 71.2626 43.6626 71.6163 43.9226C71.9743 44.1783 72.394 44.3061 72.8755 44.3061C73.2164 44.3061 73.5211 44.2422 73.7896 44.1143C74.0623 43.9822 74.2903 43.7926 74.4735 43.5455C74.6568 43.2983 74.7825 42.9979 74.8507 42.6442H77.0623C77.0069 43.3388 76.8024 43.9545 76.4487 44.4915C76.095 45.0241 75.6135 45.4418 75.0041 45.7443C74.3947 46.0426 73.6788 46.1918 72.8564 46.1918ZM83.8651 36.1818V37.9716H78.2209V36.1818H83.8651ZM79.6143 33.8295H81.9283V43.0469C81.9283 43.358 81.9751 43.5966 82.0689 43.7628C82.1669 43.9247 82.2947 44.0355 82.4524 44.0952C82.6101 44.1548 82.7848 44.1847 82.9766 44.1847C83.1214 44.1847 83.2536 44.174 83.3729 44.1527C83.4964 44.1314 83.5902 44.1122 83.6541 44.0952L84.044 45.9041C83.9205 45.9467 83.7436 45.9936 83.5135 46.0447C83.2876 46.0959 83.0107 46.1257 82.6825 46.1342C82.103 46.1513 81.581 46.0639 81.1165 45.8722C80.652 45.6761 80.2834 45.3736 80.0107 44.9645C79.7422 44.5554 79.6101 44.044 79.6143 43.4304V33.8295ZM85.8002 46V36.1818H88.1142V46H85.8002ZM86.9636 34.7884C86.5971 34.7884 86.2818 34.6669 86.0176 34.424C85.7534 34.1768 85.6213 33.8807 85.6213 33.5355C85.6213 33.1861 85.7534 32.8899 86.0176 32.647C86.2818 32.3999 86.5971 32.2763 86.9636 32.2763C87.3343 32.2763 87.6497 32.3999 87.9096 32.647C88.1738 32.8899 88.3059 33.1861 88.3059 33.5355C88.3059 33.8807 88.1738 34.1768 87.9096 34.424C87.6497 34.6669 87.3343 34.7884 86.9636 34.7884ZM94.7763 46.1918C93.8175 46.1918 92.9865 45.9808 92.2834 45.5589C91.5803 45.1371 91.0348 44.5469 90.647 43.7884C90.2635 43.0298 90.0717 42.1435 90.0717 41.1293C90.0717 40.1151 90.2635 39.2266 90.647 38.4638C91.0348 37.701 91.5803 37.1087 92.2834 36.6868C92.9865 36.2649 93.8175 36.054 94.7763 36.054C95.7351 36.054 96.5661 36.2649 97.2692 36.6868C97.9723 37.1087 98.5156 37.701 98.8991 38.4638C99.2869 39.2266 99.4808 40.1151 99.4808 41.1293C99.4808 42.1435 99.2869 43.0298 98.8991 43.7884C98.5156 44.5469 97.9723 45.1371 97.2692 45.5589C96.5661 45.9808 95.7351 46.1918 94.7763 46.1918ZM94.7891 44.3381C95.3089 44.3381 95.7436 44.1953 96.093 43.9098C96.4425 43.62 96.7024 43.2322 96.8729 42.7464C97.0476 42.2607 97.1349 41.7195 97.1349 41.1229C97.1349 40.522 97.0476 39.9787 96.8729 39.4929C96.7024 39.0028 96.4425 38.6129 96.093 38.3232C95.7436 38.0334 95.3089 37.8885 94.7891 37.8885C94.2564 37.8885 93.8132 38.0334 93.4595 38.3232C93.1101 38.6129 92.848 39.0028 92.6733 39.4929C92.5028 39.9787 92.4176 40.522 92.4176 41.1229C92.4176 41.7195 92.5028 42.2607 92.6733 42.7464C92.848 43.2322 93.1101 43.62 93.4595 43.9098C93.8132 44.1953 94.2564 44.3381 94.7891 44.3381ZM103.759 40.2472V46H101.445V36.1818H103.656V37.8501H103.771C103.997 37.3004 104.357 36.8636 104.852 36.5398C105.35 36.2159 105.966 36.054 106.699 36.054C107.377 36.054 107.967 36.1989 108.47 36.4886C108.977 36.7784 109.369 37.1982 109.646 37.7479C109.927 38.2976 110.066 38.9645 110.061 39.7486V46H107.747V40.1065C107.747 39.4503 107.577 38.9368 107.236 38.5661C106.899 38.1953 106.433 38.0099 105.836 38.0099C105.431 38.0099 105.071 38.0994 104.756 38.2784C104.445 38.4531 104.2 38.7067 104.021 39.0391C103.846 39.3714 103.759 39.7741 103.759 40.2472ZM120.173 38.777L118.064 39.0071C118.004 38.794 117.9 38.5938 117.751 38.4062C117.606 38.2188 117.41 38.0675 117.163 37.9524C116.916 37.8374 116.613 37.7798 116.255 37.7798C115.774 37.7798 115.369 37.8842 115.041 38.093C114.717 38.3018 114.557 38.5724 114.561 38.9048C114.557 39.1903 114.661 39.4226 114.874 39.6016C115.092 39.7805 115.45 39.9276 115.948 40.0426L117.623 40.4006C118.552 40.6009 119.242 40.9183 119.694 41.353C120.15 41.7876 120.38 42.3565 120.384 43.0597C120.38 43.6776 120.199 44.223 119.841 44.696C119.487 45.1648 118.995 45.5312 118.365 45.7955C117.734 46.0597 117.009 46.1918 116.191 46.1918C114.99 46.1918 114.022 45.9403 113.289 45.4375C112.556 44.9304 112.119 44.2251 111.979 43.3217L114.235 43.1044C114.338 43.5476 114.555 43.8821 114.887 44.108C115.22 44.3338 115.652 44.4467 116.185 44.4467C116.735 44.4467 117.176 44.3338 117.508 44.108C117.845 43.8821 118.013 43.603 118.013 43.2706C118.013 42.9893 117.904 42.7571 117.687 42.5739C117.474 42.3906 117.142 42.25 116.69 42.152L115.015 41.8004C114.073 41.6044 113.377 41.2741 112.925 40.8097C112.473 40.3409 112.249 39.7486 112.254 39.0327C112.249 38.4276 112.414 37.9034 112.746 37.4602C113.083 37.0128 113.549 36.6676 114.146 36.4247C114.747 36.1776 115.439 36.054 116.223 36.054C117.374 36.054 118.279 36.299 118.94 36.7891C119.605 37.2791 120.016 37.9418 120.173 38.777Z" fill="black"/>
<path d="M138.488 32.9091V46H136.116V35.2166H136.04L132.978 37.1726V34.9993L136.232 32.9091H138.488ZM147.181 32.2955L142.962 47.9688H140.936L145.155 32.2955H147.181ZM148.632 46V44.2869L153.177 39.8317C153.612 39.3928 153.974 39.0028 154.263 38.6619C154.553 38.321 154.771 37.9908 154.915 37.6712C155.06 37.3516 155.133 37.0107 155.133 36.6484C155.133 36.2351 155.039 35.8814 154.852 35.5874C154.664 35.2891 154.406 35.0589 154.078 34.897C153.75 34.7351 153.377 34.6541 152.96 34.6541C152.529 34.6541 152.152 34.7436 151.828 34.9226C151.504 35.0973 151.253 35.3466 151.074 35.6705C150.899 35.9943 150.812 36.38 150.812 36.8274H148.555C148.555 35.9964 148.745 35.2741 149.124 34.6605C149.504 34.0469 150.026 33.5717 150.69 33.2351C151.359 32.8984 152.126 32.7301 152.991 32.7301C153.869 32.7301 154.641 32.8942 155.305 33.2223C155.97 33.5504 156.486 34 156.852 34.571C157.223 35.142 157.408 35.794 157.408 36.527C157.408 37.017 157.315 37.4986 157.127 37.9716C156.94 38.4446 156.609 38.9687 156.136 39.544C155.668 40.1193 155.009 40.8161 154.161 41.6342L151.905 43.929V44.0185H157.607V46H148.632ZM164.651 46.2493C163.598 46.2493 162.695 45.983 161.94 45.4503C161.19 44.9134 160.613 44.1399 160.208 43.13C159.808 42.1158 159.607 40.8949 159.607 39.4673C159.612 38.0398 159.814 36.8253 160.214 35.8239C160.619 34.8182 161.197 34.0511 161.947 33.5227C162.701 32.9943 163.602 32.7301 164.651 32.7301C165.699 32.7301 166.6 32.9943 167.354 33.5227C168.109 34.0511 168.686 34.8182 169.087 35.8239C169.491 36.8295 169.694 38.044 169.694 39.4673C169.694 40.8991 169.491 42.1222 169.087 43.1364C168.686 44.1463 168.109 44.9176 167.354 45.4503C166.604 45.983 165.703 46.2493 164.651 46.2493ZM164.651 44.2486C165.469 44.2486 166.114 43.8459 166.587 43.0405C167.065 42.2308 167.303 41.0398 167.303 39.4673C167.303 38.4276 167.195 37.554 166.977 36.8466C166.76 36.1392 166.453 35.6065 166.057 35.2486C165.661 34.8864 165.192 34.7053 164.651 34.7053C163.837 34.7053 163.193 35.1101 162.72 35.9197C162.247 36.7251 162.009 37.9077 162.004 39.4673C162 40.5114 162.104 41.3892 162.317 42.1009C162.535 42.8125 162.842 43.3494 163.238 43.7116C163.634 44.0696 164.105 44.2486 164.651 44.2486Z" fill="black"/>
<rect x="251" y="26.5" width="45" height="26" rx="13" fill="#F3E6D9"/>
<path d="M266.719 37.0653C266.673 36.6619 266.486 36.3494 266.156 36.1278C265.827 35.9034 265.412 35.7912 264.912 35.7912C264.554 35.7912 264.244 35.848 263.983 35.9616C263.722 36.0724 263.518 36.2259 263.374 36.4219C263.232 36.6151 263.161 36.8352 263.161 37.0824C263.161 37.2898 263.209 37.4687 263.305 37.6193C263.405 37.7699 263.534 37.8963 263.693 37.9986C263.855 38.098 264.028 38.1818 264.213 38.25C264.398 38.3153 264.575 38.3693 264.746 38.4119L265.598 38.6335C265.876 38.7017 266.162 38.794 266.455 38.9105C266.747 39.027 267.018 39.1804 267.268 39.3707C267.518 39.5611 267.72 39.7969 267.874 40.0781C268.03 40.3594 268.108 40.696 268.108 41.0881C268.108 41.5824 267.98 42.0213 267.724 42.4048C267.472 42.7884 267.104 43.0909 266.621 43.3125C266.141 43.5341 265.56 43.6449 264.878 43.6449C264.224 43.6449 263.659 43.5412 263.182 43.3338C262.705 43.1264 262.331 42.8324 262.061 42.4517C261.791 42.0682 261.642 41.6136 261.614 41.0881H262.935C262.96 41.4034 263.063 41.6662 263.241 41.8764C263.423 42.0838 263.655 42.2386 263.936 42.3409C264.22 42.4403 264.531 42.4901 264.869 42.4901C265.241 42.4901 265.572 42.4318 265.862 42.3153C266.155 42.196 266.385 42.0312 266.553 41.821C266.72 41.608 266.804 41.3594 266.804 41.0753C266.804 40.8168 266.73 40.6051 266.582 40.4403C266.438 40.2756 266.24 40.1392 265.99 40.0312C265.743 39.9233 265.463 39.8281 265.151 39.7457L264.119 39.4645C263.42 39.2741 262.866 38.9943 262.457 38.625C262.051 38.2557 261.848 37.767 261.848 37.1591C261.848 36.6562 261.984 36.2173 262.257 35.8423C262.53 35.4673 262.899 35.1761 263.365 34.9688C263.831 34.7585 264.357 34.6534 264.942 34.6534C265.533 34.6534 266.054 34.7571 266.506 34.9645C266.96 35.1719 267.318 35.4574 267.58 35.821C267.841 36.1818 267.977 36.5966 267.989 37.0653H266.719ZM270.751 41.2798L270.743 39.7244H270.964L273.572 36.9545H275.098L272.123 40.108H271.923L270.751 41.2798ZM269.579 43.5V34.7727H270.853V43.5H269.579ZM273.713 43.5L271.369 40.3892L272.247 39.4986L275.277 43.5H273.713ZM276.259 43.5V36.9545H277.533V43.5H276.259ZM276.902 35.9446C276.681 35.9446 276.49 35.8707 276.331 35.723C276.175 35.5724 276.097 35.3935 276.097 35.1861C276.097 34.9759 276.175 34.7969 276.331 34.6491C276.49 34.4986 276.681 34.4233 276.902 34.4233C277.124 34.4233 277.313 34.4986 277.469 34.6491C277.628 34.7969 277.708 34.9759 277.708 35.1861C277.708 35.3935 277.628 35.5724 277.469 35.723C277.313 35.8707 277.124 35.9446 276.902 35.9446ZM279.247 45.9545V36.9545H280.491V38.0156H280.598C280.672 37.8793 280.778 37.7216 280.918 37.5426C281.057 37.3636 281.25 37.2074 281.497 37.0739C281.744 36.9375 282.071 36.8693 282.477 36.8693C283.006 36.8693 283.477 37.0028 283.892 37.2699C284.307 37.5369 284.632 37.9219 284.868 38.4247C285.107 38.9276 285.226 39.5327 285.226 40.2401C285.226 40.9474 285.108 41.554 284.872 42.0597C284.636 42.5625 284.313 42.9503 283.901 43.223C283.489 43.4929 283.018 43.6278 282.49 43.6278C282.092 43.6278 281.767 43.5611 281.514 43.4276C281.264 43.294 281.068 43.1378 280.926 42.9588C280.784 42.7798 280.675 42.6207 280.598 42.4815H280.521V45.9545H279.247ZM280.496 40.2273C280.496 40.6875 280.563 41.0909 280.696 41.4375C280.83 41.7841 281.023 42.0554 281.276 42.2514C281.528 42.4446 281.838 42.5412 282.205 42.5412C282.585 42.5412 282.903 42.4403 283.159 42.2386C283.415 42.0341 283.608 41.7571 283.739 41.4077C283.872 41.0582 283.939 40.6648 283.939 40.2273C283.939 39.7955 283.874 39.4077 283.743 39.0639C283.615 38.7202 283.422 38.4489 283.163 38.25C282.908 38.0511 282.588 37.9517 282.205 37.9517C281.835 37.9517 281.523 38.0469 281.267 38.2372C281.014 38.4276 280.822 38.6932 280.692 39.0341C280.561 39.375 280.496 39.7727 280.496 40.2273Z" fill="black"/>
<rect x="304" y="26.5" width="26" height="26" rx="13" fill="#F3E6D9"/>
<path d="M315.625 42.0717V41.9773C315.632 41.3608 315.693 40.8703 315.809 40.5057C315.928 40.1411 316.097 39.8461 316.316 39.6207C316.535 39.3954 316.798 39.1899 317.107 39.0043C317.305 38.8783 317.484 38.7375 317.643 38.5817C317.803 38.4259 317.929 38.2469 318.021 38.0447C318.114 37.8426 318.161 37.6188 318.161 37.3736C318.161 37.0786 318.091 36.8234 317.952 36.608C317.812 36.3925 317.627 36.2268 317.395 36.1108C317.166 35.9915 316.911 35.9318 316.629 35.9318C316.374 35.9318 316.13 35.9848 315.898 36.0909C315.666 36.197 315.474 36.3627 315.322 36.5881C315.169 36.8101 315.081 37.0968 315.058 37.4482H313.547C313.57 36.8516 313.721 36.3478 313.999 35.9368C314.278 35.5225 314.646 35.2093 315.103 34.9972C315.564 34.785 316.072 34.679 316.629 34.679C317.239 34.679 317.773 34.7933 318.23 35.022C318.688 35.2474 319.042 35.5639 319.294 35.9716C319.549 36.3759 319.677 36.8482 319.677 37.3885C319.677 37.7597 319.619 38.0945 319.503 38.3928C319.387 38.6877 319.221 38.9512 319.006 39.1832C318.794 39.4152 318.538 39.6207 318.24 39.7997C317.958 39.9754 317.73 40.1577 317.554 40.3466C317.382 40.5355 317.256 40.7592 317.176 41.0178C317.097 41.2763 317.054 41.5961 317.047 41.9773V42.0717H315.625ZM316.376 45.0945C316.104 45.0945 315.87 44.9983 315.675 44.8061C315.479 44.6106 315.381 44.3752 315.381 44.1001C315.381 43.8284 315.479 43.5964 315.675 43.4041C315.87 43.2086 316.104 43.1108 316.376 43.1108C316.644 43.1108 316.876 43.2086 317.072 43.4041C317.271 43.5964 317.37 43.8284 317.37 44.1001C317.37 44.2824 317.324 44.4498 317.231 44.6023C317.141 44.7514 317.022 44.8707 316.873 44.9602C316.724 45.0497 316.558 45.0945 316.376 45.0945Z" fill="black"/>
<rect x="22.25" y="68.25" width="27.5" height="27.5" rx="13.75" stroke="#208000" stroke-width="1.5"/>
<path d="M66.9631 89L63.3835 75.9091H64.9943L67.7301 86.571H67.858L70.6449 75.9091H72.4347L75.2216 86.571H75.3494L78.0852 75.9091H79.696L76.1165 89H74.4801L71.5909 78.5682H71.4886L68.5994 89H66.9631ZM82.9751 83.0938V89H81.4666V75.9091H82.9751V80.7159H83.103C83.3331 80.2088 83.6783 79.8061 84.1385 79.5078C84.603 79.2053 85.2209 79.054 85.9922 79.054C86.6612 79.054 87.2472 79.1882 87.75 79.4567C88.2528 79.7209 88.6428 80.1278 88.9197 80.6776C89.201 81.223 89.3416 81.9176 89.3416 82.7614V89H87.8331V82.8636C87.8331 82.0838 87.6307 81.4808 87.2259 81.0547C86.8253 80.6243 86.2692 80.4091 85.5575 80.4091C85.0632 80.4091 84.62 80.5135 84.228 80.7223C83.8402 80.9311 83.5334 81.2358 83.3075 81.6364C83.0859 82.0369 82.9751 82.5227 82.9751 83.0938ZM94.9906 89.2301C94.3684 89.2301 93.8038 89.1129 93.2967 88.8786C92.7896 88.6399 92.3869 88.2969 92.0886 87.8494C91.7903 87.3977 91.6412 86.8523 91.6412 86.2131C91.6412 85.6506 91.752 85.1946 91.9735 84.8452C92.1951 84.4915 92.4913 84.2145 92.862 84.0142C93.2328 83.8139 93.6419 83.6648 94.0893 83.5668C94.541 83.4645 94.9949 83.3835 95.4508 83.3239C96.0474 83.2472 96.5311 83.1896 96.9018 83.1513C97.2768 83.1087 97.5495 83.0384 97.72 82.9403C97.8947 82.8423 97.9821 82.6719 97.9821 82.429V82.3778C97.9821 81.7472 97.8095 81.2571 97.4643 80.9077C97.1234 80.5582 96.6056 80.3835 95.911 80.3835C95.1909 80.3835 94.6262 80.5412 94.2172 80.8565C93.8081 81.1719 93.5204 81.5085 93.3542 81.8665L91.9224 81.3551C92.1781 80.7585 92.519 80.294 92.9451 79.9616C93.3755 79.625 93.8443 79.3906 94.3514 79.2585C94.8627 79.1222 95.3656 79.054 95.8599 79.054C96.1752 79.054 96.5375 79.0923 96.9466 79.169C97.3599 79.2415 97.7583 79.3928 98.1419 79.6229C98.5297 79.853 98.8514 80.2003 99.1071 80.6648C99.3627 81.1293 99.4906 81.7514 99.4906 82.5312V89H97.9821V87.6705H97.9054C97.8031 87.8835 97.6326 88.1115 97.394 88.3544C97.1554 88.5973 96.8379 88.804 96.4416 88.9744C96.0453 89.1449 95.5616 89.2301 94.9906 89.2301ZM95.2207 87.875C95.8173 87.875 96.3201 87.7578 96.7292 87.5234C97.1426 87.2891 97.4537 86.9865 97.6625 86.6158C97.8755 86.245 97.9821 85.8551 97.9821 85.446V84.0653C97.9181 84.142 97.7775 84.2124 97.5602 84.2763C97.3471 84.3359 97.1 84.3892 96.8187 84.4361C96.5417 84.4787 96.2711 84.517 96.0069 84.5511C95.747 84.581 95.536 84.6065 95.3741 84.6278C94.9821 84.679 94.6156 84.7621 94.2747 84.8771C93.938 84.9879 93.6653 85.1562 93.4565 85.3821C93.252 85.6037 93.1497 85.9062 93.1497 86.2898C93.1497 86.8139 93.3436 87.2102 93.7314 87.4787C94.1234 87.7429 94.6199 87.875 95.2207 87.875ZM106.514 79.1818V80.4602H101.426V79.1818H106.514ZM102.909 76.8295H104.417V86.1875C104.417 86.6136 104.479 86.9332 104.603 87.1463C104.73 87.3551 104.892 87.4957 105.088 87.5682C105.289 87.6364 105.5 87.6705 105.721 87.6705C105.887 87.6705 106.024 87.6619 106.13 87.6449C106.237 87.6236 106.322 87.6065 106.386 87.5938L106.693 88.9489C106.591 88.9872 106.448 89.0256 106.265 89.0639C106.081 89.1065 105.849 89.1278 105.568 89.1278C105.142 89.1278 104.724 89.0362 104.315 88.853C103.91 88.6697 103.574 88.3906 103.305 88.0156C103.041 87.6406 102.909 87.1676 102.909 86.5966V76.8295ZM115.252 85.4205L115.226 83.554H115.533L119.828 79.1818H121.695L117.118 83.8097H116.99L115.252 85.4205ZM113.846 89V75.9091H115.354V89H113.846ZM120.084 89L116.249 84.142L117.323 83.0938L122.002 89H120.084ZM123.637 89V79.1818H125.145V89H123.637ZM124.404 77.5455C124.11 77.5455 123.856 77.4453 123.643 77.245C123.434 77.0447 123.33 76.804 123.33 76.5227C123.33 76.2415 123.434 76.0007 123.643 75.8004C123.856 75.6001 124.11 75.5 124.404 75.5C124.698 75.5 124.949 75.6001 125.158 75.8004C125.371 76.0007 125.477 76.2415 125.477 76.5227C125.477 76.804 125.371 77.0447 125.158 77.245C124.949 77.4453 124.698 77.5455 124.404 77.5455ZM129.417 83.0938V89H127.908V79.1818H129.365V80.7159H129.493C129.723 80.2173 130.073 79.8168 130.542 79.5142C131.01 79.2074 131.615 79.054 132.357 79.054C133.022 79.054 133.603 79.1903 134.102 79.4631C134.6 79.7315 134.988 80.1406 135.265 80.6903C135.542 81.2358 135.681 81.9261 135.681 82.7614V89H134.172V82.8636C134.172 82.0923 133.972 81.4915 133.571 81.0611C133.171 80.6264 132.621 80.4091 131.922 80.4091C131.441 80.4091 131.01 80.5135 130.631 80.7223C130.256 80.9311 129.96 81.2358 129.743 81.6364C129.525 82.0369 129.417 82.5227 129.417 83.0938ZM142.145 89.2045C141.327 89.2045 140.604 88.9979 139.978 88.5845C139.351 88.1669 138.861 87.5788 138.508 86.8203C138.154 86.0575 137.977 85.1562 137.977 84.1165C137.977 83.0852 138.154 82.1903 138.508 81.4318C138.861 80.6733 139.354 80.0874 139.984 79.674C140.615 79.2607 141.344 79.054 142.17 79.054C142.809 79.054 143.314 79.1605 143.685 79.3736C144.06 79.5824 144.346 79.821 144.542 80.0895C144.742 80.3537 144.898 80.571 145.008 80.7415H145.136V75.9091H146.645V89H145.187V87.4915H145.008C144.898 87.6705 144.74 87.8963 144.535 88.169C144.331 88.4375 144.039 88.6783 143.66 88.8913C143.28 89.1001 142.775 89.2045 142.145 89.2045ZM142.349 87.8494C142.954 87.8494 143.466 87.6918 143.883 87.3764C144.301 87.0568 144.618 86.6158 144.836 86.0533C145.053 85.4865 145.162 84.8324 145.162 84.0909C145.162 83.358 145.055 82.7166 144.842 82.1669C144.629 81.6129 144.314 81.1825 143.896 80.8757C143.479 80.5646 142.963 80.4091 142.349 80.4091C141.71 80.4091 141.177 80.5732 140.751 80.9013C140.329 81.2251 140.012 81.6662 139.799 82.2244C139.59 82.7784 139.486 83.4006 139.486 84.0909C139.486 84.7898 139.592 85.4247 139.805 85.9957C140.023 86.5625 140.342 87.0142 140.764 87.3509C141.19 87.6832 141.719 87.8494 142.349 87.8494ZM158.668 89.2045C157.782 89.2045 157.004 88.9936 156.335 88.5717C155.67 88.1499 155.15 87.5597 154.775 86.8011C154.405 86.0426 154.219 85.1562 154.219 84.142C154.219 83.1193 154.405 82.2266 154.775 81.4638C155.15 80.701 155.67 80.1087 156.335 79.6868C157.004 79.2649 157.782 79.054 158.668 79.054C159.555 79.054 160.33 79.2649 160.995 79.6868C161.664 80.1087 162.184 80.701 162.555 81.4638C162.93 82.2266 163.117 83.1193 163.117 84.142C163.117 85.1562 162.93 86.0426 162.555 86.8011C162.184 87.5597 161.664 88.1499 160.995 88.5717C160.33 88.9936 159.555 89.2045 158.668 89.2045ZM158.668 87.8494C159.341 87.8494 159.895 87.6768 160.33 87.3317C160.765 86.9865 161.086 86.5327 161.295 85.9702C161.504 85.4077 161.608 84.7983 161.608 84.142C161.608 83.4858 161.504 82.8743 161.295 82.3075C161.086 81.7408 160.765 81.2827 160.33 80.9332C159.895 80.5838 159.341 80.4091 158.668 80.4091C157.995 80.4091 157.441 80.5838 157.006 80.9332C156.572 81.2827 156.25 81.7408 156.041 82.3075C155.832 82.8743 155.728 83.4858 155.728 84.142C155.728 84.7983 155.832 85.4077 156.041 85.9702C156.25 86.5327 156.572 86.9865 157.006 87.3317C157.441 87.6768 157.995 87.8494 158.668 87.8494ZM169.792 79.1818V80.4602H164.499V79.1818H169.792ZM166.085 89V77.8267C166.085 77.2642 166.217 76.7955 166.481 76.4205C166.745 76.0455 167.088 75.7642 167.51 75.5767C167.932 75.3892 168.377 75.2955 168.846 75.2955C169.217 75.2955 169.519 75.3253 169.754 75.3849C169.988 75.4446 170.163 75.5 170.278 75.5511L169.843 76.8551C169.766 76.8295 169.66 76.7976 169.523 76.7592C169.391 76.7209 169.217 76.7017 168.999 76.7017C168.501 76.7017 168.141 76.8274 167.919 77.0788C167.702 77.3303 167.593 77.6989 167.593 78.1847V89H166.085ZM178.477 75.9091V89H176.969V75.9091H178.477ZM181.24 89V79.1818H182.749V89H181.24ZM182.007 77.5455C181.713 77.5455 181.46 77.4453 181.246 77.245C181.038 77.0447 180.933 76.804 180.933 76.5227C180.933 76.2415 181.038 76.0007 181.246 75.8004C181.46 75.6001 181.713 75.5 182.007 75.5C182.301 75.5 182.553 75.6001 182.761 75.8004C182.974 76.0007 183.081 76.2415 183.081 76.5227C183.081 76.804 182.974 77.0447 182.761 77.245C182.553 77.4453 182.301 77.5455 182.007 77.5455ZM189.884 79.1818V80.4602H184.591V79.1818H189.884ZM186.176 89V77.8267C186.176 77.2642 186.308 76.7955 186.573 76.4205C186.837 76.0455 187.18 75.7642 187.602 75.5767C188.024 75.3892 188.469 75.2955 188.938 75.2955C189.308 75.2955 189.611 75.3253 189.845 75.3849C190.08 75.4446 190.254 75.5 190.369 75.5511L189.935 76.8551C189.858 76.8295 189.752 76.7976 189.615 76.7592C189.483 76.7209 189.308 76.7017 189.091 76.7017C188.593 76.7017 188.232 76.8274 188.011 77.0788C187.794 77.3303 187.685 77.6989 187.685 78.1847V89H186.176ZM195.71 89.2045C194.764 89.2045 193.948 88.9957 193.262 88.5781C192.58 88.1562 192.054 87.5682 191.683 86.8139C191.317 86.0554 191.133 85.1733 191.133 84.1676C191.133 83.1619 191.317 82.2756 191.683 81.5085C192.054 80.7372 192.569 80.1364 193.23 79.706C193.895 79.2713 194.67 79.054 195.557 79.054C196.068 79.054 196.573 79.1392 197.072 79.3097C197.57 79.4801 198.024 79.7571 198.433 80.1406C198.842 80.5199 199.168 81.0227 199.411 81.6491C199.654 82.2756 199.775 83.0469 199.775 83.9631V84.6023H192.207V83.2983H198.241C198.241 82.7443 198.131 82.25 197.909 81.8153C197.692 81.3807 197.381 81.0376 196.976 80.7862C196.575 80.5348 196.102 80.4091 195.557 80.4091C194.956 80.4091 194.436 80.5582 193.997 80.8565C193.562 81.1506 193.228 81.5341 192.993 82.0071C192.759 82.4801 192.642 82.9872 192.642 83.5284V84.3977C192.642 85.1392 192.77 85.7678 193.025 86.2834C193.285 86.7947 193.645 87.1847 194.106 87.4531C194.566 87.7173 195.101 87.8494 195.71 87.8494C196.106 87.8494 196.464 87.794 196.784 87.6832C197.108 87.5682 197.387 87.3977 197.621 87.1719C197.856 86.9418 198.037 86.6562 198.165 86.3153L199.622 86.7244C199.469 87.2188 199.211 87.6534 198.849 88.0284C198.486 88.3991 198.039 88.6889 197.506 88.8977C196.974 89.1023 196.375 89.2045 195.71 89.2045ZM209.025 81.3807L207.67 81.7642C207.584 81.5384 207.459 81.3189 207.292 81.1058C207.131 80.8885 206.909 80.7095 206.628 80.5689C206.346 80.4283 205.986 80.358 205.547 80.358C204.947 80.358 204.446 80.4964 204.045 80.7734C203.649 81.0462 203.451 81.3935 203.451 81.8153C203.451 82.1903 203.587 82.4865 203.86 82.7038C204.133 82.9212 204.559 83.1023 205.138 83.2472L206.596 83.6051C207.474 83.8182 208.128 84.1442 208.558 84.5831C208.988 85.0178 209.204 85.5781 209.204 86.2642C209.204 86.8267 209.042 87.3295 208.718 87.7727C208.398 88.2159 207.951 88.5653 207.376 88.821C206.8 89.0767 206.131 89.2045 205.368 89.2045C204.367 89.2045 203.538 88.9872 202.882 88.5526C202.226 88.1179 201.81 87.483 201.635 86.6477L203.067 86.2898C203.204 86.8182 203.461 87.2145 203.841 87.4787C204.224 87.7429 204.725 87.875 205.343 87.875C206.046 87.875 206.604 87.7259 207.018 87.4276C207.435 87.125 207.644 86.7628 207.644 86.3409C207.644 86 207.525 85.7145 207.286 85.4844C207.047 85.25 206.681 85.0753 206.187 84.9602L204.55 84.5767C203.651 84.3636 202.991 84.0334 202.569 83.5859C202.151 83.1342 201.942 82.5696 201.942 81.892C201.942 81.3381 202.098 80.848 202.409 80.4219C202.724 79.9957 203.153 79.6612 203.694 79.4183C204.239 79.1754 204.857 79.054 205.547 79.054C206.519 79.054 207.282 79.267 207.836 79.6932C208.394 80.1193 208.79 80.6818 209.025 81.3807ZM215.744 79.1818V80.4602H210.656V79.1818H215.744ZM212.139 76.8295H213.648V86.1875C213.648 86.6136 213.71 86.9332 213.833 87.1463C213.961 87.3551 214.123 87.4957 214.319 87.5682C214.519 87.6364 214.73 87.6705 214.952 87.6705C215.118 87.6705 215.254 87.6619 215.361 87.6449C215.467 87.6236 215.553 87.6065 215.616 87.5938L215.923 88.9489C215.821 88.9872 215.678 89.0256 215.495 89.0639C215.312 89.1065 215.08 89.1278 214.798 89.1278C214.372 89.1278 213.955 89.0362 213.545 88.853C213.141 88.6697 212.804 88.3906 212.536 88.0156C212.271 87.6406 212.139 87.1676 212.139 86.5966V76.8295ZM218.985 92.6818C218.729 92.6818 218.501 92.6605 218.301 92.6179C218.101 92.5795 217.962 92.5412 217.886 92.5028L218.269 91.1733C218.636 91.267 218.96 91.3011 219.241 91.2756C219.522 91.25 219.771 91.1243 219.989 90.8984C220.21 90.6768 220.413 90.3168 220.596 89.8182L220.877 89.0511L217.246 79.1818H218.883L221.593 87.0057H221.695L224.406 79.1818H226.042L221.874 90.4318C221.687 90.9389 221.455 91.3587 221.178 91.6911C220.901 92.0277 220.579 92.277 220.212 92.4389C219.85 92.6009 219.441 92.6818 218.985 92.6818ZM229.542 75.9091V89H228.033V75.9091H229.542ZM236.421 89.2045C235.475 89.2045 234.659 88.9957 233.973 88.5781C233.291 88.1562 232.765 87.5682 232.394 86.8139C232.028 86.0554 231.844 85.1733 231.844 84.1676C231.844 83.1619 232.028 82.2756 232.394 81.5085C232.765 80.7372 233.28 80.1364 233.941 79.706C234.606 79.2713 235.381 79.054 236.268 79.054C236.779 79.054 237.284 79.1392 237.782 79.3097C238.281 79.4801 238.735 79.7571 239.144 80.1406C239.553 80.5199 239.879 81.0227 240.122 81.6491C240.365 82.2756 240.486 83.0469 240.486 83.9631V84.6023H232.918V83.2983H238.952C238.952 82.7443 238.841 82.25 238.62 81.8153C238.403 81.3807 238.091 81.0376 237.687 80.7862C237.286 80.5348 236.813 80.4091 236.268 80.4091C235.667 80.4091 235.147 80.5582 234.708 80.8565C234.273 81.1506 233.939 81.5341 233.704 82.0071C233.47 82.4801 233.353 82.9872 233.353 83.5284V84.3977C233.353 85.1392 233.481 85.7678 233.736 86.2834C233.996 86.7947 234.356 87.1847 234.817 87.4531C235.277 87.7173 235.812 87.8494 236.421 87.8494C236.817 87.8494 237.175 87.794 237.495 87.6832C237.819 87.5682 238.098 87.3977 238.332 87.1719C238.567 86.9418 238.748 86.6562 238.876 86.3153L240.333 86.7244C240.18 87.2188 239.922 87.6534 239.559 88.0284C239.197 88.3991 238.75 88.6889 238.217 88.8977C237.684 89.1023 237.086 89.2045 236.421 89.2045ZM251.551 89.2045C250.733 89.2045 250.01 88.9979 249.384 88.5845C248.758 88.1669 248.268 87.5788 247.914 86.8203C247.56 86.0575 247.383 85.1562 247.383 84.1165C247.383 83.0852 247.56 82.1903 247.914 81.4318C248.268 80.6733 248.76 80.0874 249.39 79.674C250.021 79.2607 250.75 79.054 251.577 79.054C252.216 79.054 252.721 79.1605 253.091 79.3736C253.466 79.5824 253.752 79.821 253.948 80.0895C254.148 80.3537 254.304 80.571 254.415 80.7415H254.542V75.9091H256.051V89H254.594V87.4915H254.415C254.304 87.6705 254.146 87.8963 253.942 88.169C253.737 88.4375 253.445 88.6783 253.066 88.8913C252.687 89.1001 252.182 89.2045 251.551 89.2045ZM251.756 87.8494C252.361 87.8494 252.872 87.6918 253.29 87.3764C253.707 87.0568 254.025 86.6158 254.242 86.0533C254.459 85.4865 254.568 84.8324 254.568 84.0909C254.568 83.358 254.461 82.7166 254.248 82.1669C254.035 81.6129 253.72 81.1825 253.302 80.8757C252.885 80.5646 252.369 80.4091 251.756 80.4091C251.116 80.4091 250.584 80.5732 250.157 80.9013C249.736 81.2251 249.418 81.6662 249.205 82.2244C248.996 82.7784 248.892 83.4006 248.892 84.0909C248.892 84.7898 248.998 85.4247 249.211 85.9957C249.429 86.5625 249.748 87.0142 250.17 87.3509C250.596 87.6832 251.125 87.8494 251.756 87.8494ZM263.012 89.2045C262.126 89.2045 261.348 88.9936 260.679 88.5717C260.014 88.1499 259.494 87.5597 259.119 86.8011C258.748 86.0426 258.563 85.1562 258.563 84.142C258.563 83.1193 258.748 82.2266 259.119 81.4638C259.494 80.701 260.014 80.1087 260.679 79.6868C261.348 79.2649 262.126 79.054 263.012 79.054C263.898 79.054 264.674 79.2649 265.339 79.6868C266.008 80.1087 266.528 80.701 266.898 81.4638C267.273 82.2266 267.461 83.1193 267.461 84.142C267.461 85.1562 267.273 86.0426 266.898 86.8011C266.528 87.5597 266.008 88.1499 265.339 88.5717C264.674 88.9936 263.898 89.2045 263.012 89.2045ZM263.012 87.8494C263.685 87.8494 264.239 87.6768 264.674 87.3317C265.108 86.9865 265.43 86.5327 265.639 85.9702C265.848 85.4077 265.952 84.7983 265.952 84.142C265.952 83.4858 265.848 82.8743 265.639 82.3075C265.43 81.7408 265.108 81.2827 264.674 80.9332C264.239 80.5838 263.685 80.4091 263.012 80.4091C262.339 80.4091 261.785 80.5838 261.35 80.9332C260.915 81.2827 260.594 81.7408 260.385 82.3075C260.176 82.8743 260.072 83.4858 260.072 84.142C260.072 84.7983 260.176 85.4077 260.385 85.9702C260.594 86.5327 260.915 86.9865 261.35 87.3317C261.785 87.6768 262.339 87.8494 263.012 87.8494ZM275.798 92.6818C275.542 92.6818 275.314 92.6605 275.114 92.6179C274.913 92.5795 274.775 92.5412 274.698 92.5028L275.082 91.1733C275.448 91.267 275.772 91.3011 276.053 91.2756C276.335 91.25 276.584 91.1243 276.801 90.8984C277.023 90.6768 277.225 90.3168 277.408 89.8182L277.69 89.0511L274.059 79.1818H275.695L278.406 87.0057H278.508L281.218 79.1818H282.854L278.687 90.4318C278.499 90.9389 278.267 91.3587 277.99 91.6911C277.713 92.0277 277.391 92.277 277.025 92.4389C276.663 92.6009 276.254 92.6818 275.798 92.6818ZM288.483 89.2045C287.596 89.2045 286.819 88.9936 286.15 88.5717C285.485 88.1499 284.965 87.5597 284.59 86.8011C284.219 86.0426 284.034 85.1562 284.034 84.142C284.034 83.1193 284.219 82.2266 284.59 81.4638C284.965 80.701 285.485 80.1087 286.15 79.6868C286.819 79.2649 287.596 79.054 288.483 79.054C289.369 79.054 290.145 79.2649 290.809 79.6868C291.478 80.1087 291.998 80.701 292.369 81.4638C292.744 82.2266 292.931 83.1193 292.931 84.142C292.931 85.1562 292.744 86.0426 292.369 86.8011C291.998 87.5597 291.478 88.1499 290.809 88.5717C290.145 88.9936 289.369 89.2045 288.483 89.2045ZM288.483 87.8494C289.156 87.8494 289.71 87.6768 290.145 87.3317C290.579 86.9865 290.901 86.5327 291.11 85.9702C291.319 85.4077 291.423 84.7983 291.423 84.142C291.423 83.4858 291.319 82.8743 291.11 82.3075C290.901 81.7408 290.579 81.2827 290.145 80.9332C289.71 80.5838 289.156 80.4091 288.483 80.4091C287.809 80.4091 287.255 80.5838 286.821 80.9332C286.386 81.2827 286.064 81.7408 285.855 82.3075C285.647 82.8743 285.542 83.4858 285.542 84.142C285.542 84.7983 285.647 85.4077 285.855 85.9702C286.064 86.5327 286.386 86.9865 286.821 87.3317C287.255 87.6768 287.809 87.8494 288.483 87.8494ZM301.422 84.9858V79.1818H302.93V89H301.422V87.3381H301.319C301.089 87.8366 300.731 88.2607 300.246 88.6101C299.76 88.9553 299.146 89.1278 298.405 89.1278C297.791 89.1278 297.246 88.9936 296.768 88.7251C296.291 88.4524 295.916 88.0433 295.643 87.4979C295.371 86.9482 295.234 86.2557 295.234 85.4205V79.1818H296.743V85.3182C296.743 86.0341 296.943 86.6051 297.344 87.0312C297.748 87.4574 298.264 87.6705 298.89 87.6705C299.265 87.6705 299.647 87.5746 300.035 87.3828C300.427 87.1911 300.755 86.897 301.019 86.5007C301.287 86.1044 301.422 85.5994 301.422 84.9858ZM66.6051 116L63.6136 106.182H65.1989L67.321 113.699H67.4233L69.5199 106.182H71.1307L73.2017 113.673H73.304L75.4261 106.182H77.0114L74.0199 116H72.5369L70.3892 108.457H70.2358L68.0881 116H66.6051ZM81.8949 116.23C81.2727 116.23 80.7081 116.113 80.201 115.879C79.6939 115.64 79.2912 115.297 78.9929 114.849C78.6946 114.398 78.5455 113.852 78.5455 113.213C78.5455 112.651 78.6563 112.195 78.8778 111.845C79.0994 111.491 79.3956 111.214 79.7663 111.014C80.1371 110.814 80.5462 110.665 80.9936 110.567C81.4453 110.464 81.8991 110.384 82.3551 110.324C82.9517 110.247 83.4354 110.19 83.8061 110.151C84.1811 110.109 84.4538 110.038 84.6243 109.94C84.799 109.842 84.8864 109.672 84.8864 109.429V109.378C84.8864 108.747 84.7138 108.257 84.3686 107.908C84.0277 107.558 83.5099 107.384 82.8153 107.384C82.0952 107.384 81.5305 107.541 81.1214 107.857C80.7124 108.172 80.4247 108.509 80.2585 108.866L78.8267 108.355C79.0824 107.759 79.4233 107.294 79.8494 106.962C80.2798 106.625 80.7486 106.391 81.2557 106.259C81.767 106.122 82.2699 106.054 82.7642 106.054C83.0795 106.054 83.4418 106.092 83.8509 106.169C84.2642 106.241 84.6626 106.393 85.0462 106.623C85.4339 106.853 85.7557 107.2 86.0114 107.665C86.267 108.129 86.3949 108.751 86.3949 109.531V116H84.8864V114.67H84.8097C84.7074 114.884 84.5369 115.112 84.2983 115.354C84.0597 115.597 83.7422 115.804 83.3459 115.974C82.9496 116.145 82.4659 116.23 81.8949 116.23ZM82.125 114.875C82.7216 114.875 83.2244 114.758 83.6335 114.523C84.0469 114.289 84.358 113.987 84.5668 113.616C84.7798 113.245 84.8864 112.855 84.8864 112.446V111.065C84.8224 111.142 84.6818 111.212 84.4645 111.276C84.2514 111.336 84.0043 111.389 83.723 111.436C83.446 111.479 83.1754 111.517 82.9112 111.551C82.6513 111.581 82.4403 111.607 82.2784 111.628C81.8864 111.679 81.5199 111.762 81.179 111.877C80.8423 111.988 80.5696 112.156 80.3608 112.382C80.1563 112.604 80.054 112.906 80.054 113.29C80.054 113.814 80.2479 114.21 80.6357 114.479C81.0277 114.743 81.5241 114.875 82.125 114.875ZM90.6568 110.094V116H89.1483V106.182H90.6056V107.716H90.7335C90.9636 107.217 91.313 106.817 91.7818 106.514C92.2505 106.207 92.8556 106.054 93.5971 106.054C94.2619 106.054 94.8436 106.19 95.3422 106.463C95.8407 106.732 96.2285 107.141 96.5055 107.69C96.7825 108.236 96.921 108.926 96.921 109.761V116H95.4125V109.864C95.4125 109.092 95.2122 108.491 94.8116 108.061C94.411 107.626 93.8613 107.409 93.1625 107.409C92.6809 107.409 92.2505 107.513 91.8713 107.722C91.4963 107.931 91.2001 108.236 90.9828 108.636C90.7654 109.037 90.6568 109.523 90.6568 110.094ZM103.947 106.182V107.46H98.8594V106.182H103.947ZM100.342 103.83H101.851V113.188C101.851 113.614 101.913 113.933 102.036 114.146C102.164 114.355 102.326 114.496 102.522 114.568C102.722 114.636 102.933 114.67 103.155 114.67C103.321 114.67 103.457 114.662 103.564 114.645C103.67 114.624 103.756 114.607 103.82 114.594L104.126 115.949C104.024 115.987 103.881 116.026 103.698 116.064C103.515 116.107 103.283 116.128 103.001 116.128C102.575 116.128 102.158 116.036 101.749 115.853C101.344 115.67 101.007 115.391 100.739 115.016C100.474 114.641 100.342 114.168 100.342 113.597V103.83ZM115.549 106.182V107.46H110.461V106.182H115.549ZM111.944 103.83H113.452V113.188C113.452 113.614 113.514 113.933 113.638 114.146C113.766 114.355 113.928 114.496 114.124 114.568C114.324 114.636 114.535 114.67 114.756 114.67C114.923 114.67 115.059 114.662 115.165 114.645C115.272 114.624 115.357 114.607 115.421 114.594L115.728 115.949C115.626 115.987 115.483 116.026 115.3 116.064C115.116 116.107 114.884 116.128 114.603 116.128C114.177 116.128 113.759 116.036 113.35 115.853C112.945 115.67 112.609 115.391 112.34 115.016C112.076 114.641 111.944 114.168 111.944 113.597V103.83ZM121.701 116.205C120.815 116.205 120.037 115.994 119.368 115.572C118.703 115.15 118.184 114.56 117.809 113.801C117.438 113.043 117.252 112.156 117.252 111.142C117.252 110.119 117.438 109.227 117.809 108.464C118.184 107.701 118.703 107.109 119.368 106.687C120.037 106.265 120.815 106.054 121.701 106.054C122.588 106.054 123.363 106.265 124.028 106.687C124.697 107.109 125.217 107.701 125.588 108.464C125.963 109.227 126.15 110.119 126.15 111.142C126.15 112.156 125.963 113.043 125.588 113.801C125.217 114.56 124.697 115.15 124.028 115.572C123.363 115.994 122.588 116.205 121.701 116.205ZM121.701 114.849C122.375 114.849 122.929 114.677 123.363 114.332C123.798 113.987 124.12 113.533 124.328 112.97C124.537 112.408 124.642 111.798 124.642 111.142C124.642 110.486 124.537 109.874 124.328 109.308C124.12 108.741 123.798 108.283 123.363 107.933C122.929 107.584 122.375 107.409 121.701 107.409C121.028 107.409 120.474 107.584 120.039 107.933C119.605 108.283 119.283 108.741 119.074 109.308C118.865 109.874 118.761 110.486 118.761 111.142C118.761 111.798 118.865 112.408 119.074 112.97C119.283 113.533 119.605 113.987 120.039 114.332C120.474 114.677 121.028 114.849 121.701 114.849ZM135.024 110.094V116H133.515V102.909H135.024V107.716H135.152C135.382 107.209 135.727 106.806 136.187 106.508C136.652 106.205 137.27 106.054 138.041 106.054C138.71 106.054 139.296 106.188 139.799 106.457C140.302 106.721 140.692 107.128 140.969 107.678C141.25 108.223 141.39 108.918 141.39 109.761V116H139.882V109.864C139.882 109.084 139.68 108.481 139.275 108.055C138.874 107.624 138.318 107.409 137.606 107.409C137.112 107.409 136.669 107.513 136.277 107.722C135.889 107.931 135.582 108.236 135.356 108.636C135.135 109.037 135.024 109.523 135.024 110.094ZM147.039 116.23C146.417 116.23 145.853 116.113 145.346 115.879C144.838 115.64 144.436 115.297 144.137 114.849C143.839 114.398 143.69 113.852 143.69 113.213C143.69 112.651 143.801 112.195 144.022 111.845C144.244 111.491 144.54 111.214 144.911 111.014C145.282 110.814 145.691 110.665 146.138 110.567C146.59 110.464 147.044 110.384 147.5 110.324C148.096 110.247 148.58 110.19 148.951 110.151C149.326 110.109 149.598 110.038 149.769 109.94C149.944 109.842 150.031 109.672 150.031 109.429V109.378C150.031 108.747 149.858 108.257 149.513 107.908C149.172 107.558 148.654 107.384 147.96 107.384C147.24 107.384 146.675 107.541 146.266 107.857C145.857 108.172 145.569 108.509 145.403 108.866L143.971 108.355C144.227 107.759 144.568 107.294 144.994 106.962C145.424 106.625 145.893 106.391 146.4 106.259C146.912 106.122 147.414 106.054 147.909 106.054C148.224 106.054 148.586 106.092 148.995 106.169C149.409 106.241 149.807 106.393 150.191 106.623C150.578 106.853 150.9 107.2 151.156 107.665C151.412 108.129 151.539 108.751 151.539 109.531V116H150.031V114.67H149.954C149.852 114.884 149.681 115.112 149.443 115.354C149.204 115.597 148.887 115.804 148.49 115.974C148.094 116.145 147.61 116.23 147.039 116.23ZM147.27 114.875C147.866 114.875 148.369 114.758 148.778 114.523C149.191 114.289 149.502 113.987 149.711 113.616C149.924 113.245 150.031 112.855 150.031 112.446V111.065C149.967 111.142 149.826 111.212 149.609 111.276C149.396 111.336 149.149 111.389 148.868 111.436C148.591 111.479 148.32 111.517 148.056 111.551C147.796 111.581 147.585 111.607 147.423 111.628C147.031 111.679 146.664 111.762 146.324 111.877C145.987 111.988 145.714 112.156 145.505 112.382C145.301 112.604 145.199 112.906 145.199 113.29C145.199 113.814 145.392 114.21 145.78 114.479C146.172 114.743 146.669 114.875 147.27 114.875ZM161.97 106.182L158.339 116H156.805L153.174 106.182H154.811L157.521 114.006H157.623L160.333 106.182H161.97ZM167.726 116.205C166.78 116.205 165.964 115.996 165.278 115.578C164.596 115.156 164.069 114.568 163.699 113.814C163.332 113.055 163.149 112.173 163.149 111.168C163.149 110.162 163.332 109.276 163.699 108.509C164.069 107.737 164.585 107.136 165.246 106.706C165.91 106.271 166.686 106.054 167.572 106.054C168.084 106.054 168.589 106.139 169.087 106.31C169.586 106.48 170.04 106.757 170.449 107.141C170.858 107.52 171.184 108.023 171.427 108.649C171.67 109.276 171.791 110.047 171.791 110.963V111.602H164.223V110.298H170.257C170.257 109.744 170.146 109.25 169.925 108.815C169.707 108.381 169.396 108.038 168.991 107.786C168.591 107.535 168.118 107.409 167.572 107.409C166.971 107.409 166.452 107.558 166.013 107.857C165.578 108.151 165.243 108.534 165.009 109.007C164.775 109.48 164.657 109.987 164.657 110.528V111.398C164.657 112.139 164.785 112.768 165.041 113.283C165.301 113.795 165.661 114.185 166.121 114.453C166.581 114.717 167.116 114.849 167.726 114.849C168.122 114.849 168.48 114.794 168.8 114.683C169.123 114.568 169.403 114.398 169.637 114.172C169.871 113.942 170.052 113.656 170.18 113.315L171.638 113.724C171.484 114.219 171.226 114.653 170.864 115.028C170.502 115.399 170.055 115.689 169.522 115.898C168.989 116.102 168.39 116.205 167.726 116.205ZM176.055 112.318V112.241C176.063 111.428 176.148 110.78 176.31 110.298C176.472 109.817 176.702 109.427 177.001 109.129C177.299 108.83 177.657 108.555 178.074 108.304C178.326 108.151 178.552 107.969 178.752 107.761C178.952 107.548 179.11 107.303 179.225 107.026C179.344 106.749 179.404 106.442 179.404 106.105C179.404 105.687 179.306 105.325 179.11 105.018C178.914 104.712 178.652 104.475 178.324 104.309C177.996 104.143 177.631 104.06 177.231 104.06C176.881 104.06 176.545 104.132 176.221 104.277C175.897 104.422 175.626 104.65 175.409 104.961C175.192 105.272 175.066 105.679 175.032 106.182H173.421C173.455 105.457 173.643 104.837 173.983 104.322C174.329 103.806 174.782 103.412 175.345 103.139C175.912 102.866 176.54 102.73 177.231 102.73C177.981 102.73 178.633 102.879 179.187 103.178C179.745 103.476 180.175 103.885 180.478 104.405C180.785 104.925 180.938 105.517 180.938 106.182C180.938 106.651 180.866 107.075 180.721 107.454C180.58 107.833 180.376 108.172 180.107 108.47C179.843 108.768 179.523 109.033 179.148 109.263C178.773 109.497 178.473 109.744 178.247 110.004C178.021 110.26 177.857 110.565 177.755 110.918C177.653 111.272 177.597 111.713 177.589 112.241V112.318H176.055ZM176.873 116.102C176.557 116.102 176.287 115.989 176.061 115.763C175.835 115.538 175.722 115.267 175.722 114.952C175.722 114.636 175.835 114.366 176.061 114.14C176.287 113.914 176.557 113.801 176.873 113.801C177.188 113.801 177.459 113.914 177.684 114.14C177.91 114.366 178.023 114.636 178.023 114.952C178.023 115.161 177.97 115.352 177.863 115.527C177.761 115.702 177.623 115.842 177.448 115.949C177.278 116.051 177.086 116.102 176.873 116.102Z" fill="black"/>
</g>
<defs>
<filter id="filter0_ddd_1605_1973" x="0" y="0" width="352" height="153" filterUnits="userSpaceOnUse" color-interpolation-filters="sRGB">
<feFlood flood-opacity="0" result="BackgroundImageFix"/>
<feColorMatrix in="SourceAlpha" type="matrix" values="0 0 0 0 0 0 0 0 0 0 0 0 0 0 0 0 0 0 127 0" result="hardAlpha"/>
<feOffset dy="4"/>
<feGaussianBlur stdDeviation="3"/>
<feComposite in2="hardAlpha" operator="out"/>
<feColorMatrix type="matrix" values="0 0 0 0 0.145098 0 0 0 0 0.101961 0 0 0 0 0 0 0 0 0.12 0"/>
<feBlend mode="normal" in2="BackgroundImageFix" result="effect1_dropShadow_1605_1973"/>
<feColorMatrix in="SourceAlpha" type="matrix" values="0 0 0 0 0 0 0 0 0 0 0 0 0 0 0 0 0 0 127 0" result="hardAlpha"/>
<feOffset dx="2"/>
<feGaussianBlur stdDeviation="2"/>
<feComposite in2="hardAlpha" operator="out"/>
<feColorMatrix type="matrix" values="0 0 0 0 0 0 0 0 0 0 0 0 0 0 0 0 0 0 0.12 0"/>
<feBlend mode="normal" in2="effect1_dropShadow_1605_1973" result="effect2_dropShadow_1605_1973"/>
<feColorMatrix in="SourceAlpha" type="matrix" values="0 0 0 0 0 0 0 0 0 0 0 0 0 0 0 0 0 0 127 0" result="hardAlpha"/>
<feOffset dx="-2"/>
<feGaussianBlur stdDeviation="2"/>
<feComposite in2="hardAlpha" operator="out"/>
<feColorMatrix type="matrix" values="0 0 0 0 0 0 0 0 0 0 0 0 0 0 0 0 0 0 0.12 0"/>
<feBlend mode="normal" in2="effect2_dropShadow_1605_1973" result="effect3_dropShadow_1605_1973"/>
<feBlend mode="normal" in="SourceGraphic" in2="effect3_dropShadow_1605_1973" result="shape"/>
</filter>
</defs>
</svg>
