<svg width="280" height="235" viewBox="0 0 280 235" fill="none" xmlns="http://www.w3.org/2000/svg">
<rect x="0.75" y="0.75" width="278.5" height="233.5" rx="15.25" fill="#FFF8F1"/>
<rect x="0.75" y="0.75" width="278.5" height="233.5" rx="15.25" stroke="#6A5D3F" stroke-width="1.5"/>
<rect x="12" y="12" width="256" height="39" rx="8" fill="#FFCC41" fill-opacity="0.7"/>
<path d="M25.5227 37L22.3409 25.3636H23.7727L26.2045 34.8409H26.3182L28.7955 25.3636H30.3864L32.8636 34.8409H32.9773L35.4091 25.3636H36.8409L33.6591 37H32.2045L29.6364 27.7273H29.5455L26.9773 37H25.5227ZM39.7557 31.75V37H38.4148V25.3636H39.7557V29.6364H39.8693C40.0739 29.1856 40.3807 28.8277 40.7898 28.5625C41.2027 28.2936 41.7519 28.1591 42.4375 28.1591C43.0322 28.1591 43.553 28.2784 44 28.517C44.447 28.7519 44.7936 29.1136 45.0398 29.6023C45.2898 30.0871 45.4148 30.7045 45.4148 31.4545V37H44.0739V31.5455C44.0739 30.8523 43.8939 30.3163 43.5341 29.9375C43.178 29.5549 42.6837 29.3636 42.0511 29.3636C41.6117 29.3636 41.2178 29.4564 40.8693 29.642C40.5246 29.8277 40.2519 30.0985 40.0511 30.4545C39.8542 30.8106 39.7557 31.2424 39.7557 31.75ZM51.527 37.1818C50.6861 37.1818 49.9607 36.9962 49.3509 36.625C48.7448 36.25 48.277 35.7273 47.9474 35.0568C47.6217 34.3826 47.4588 33.5985 47.4588 32.7045C47.4588 31.8106 47.6217 31.0227 47.9474 30.3409C48.277 29.6553 48.7353 29.1212 49.3224 28.7386C49.9134 28.3523 50.6027 28.1591 51.3906 28.1591C51.8452 28.1591 52.294 28.2348 52.7372 28.3864C53.1804 28.5379 53.5838 28.7841 53.9474 29.125C54.3111 29.4621 54.6009 29.9091 54.8168 30.4659C55.0327 31.0227 55.1406 31.7083 55.1406 32.5227V33.0909H48.4134V31.9318H53.777C53.777 31.4394 53.6785 31 53.4815 30.6136C53.2884 30.2273 53.0118 29.9223 52.652 29.6989C52.2959 29.4754 51.8755 29.3636 51.3906 29.3636C50.8565 29.3636 50.3944 29.4962 50.0043 29.7614C49.6179 30.0227 49.3205 30.3636 49.1122 30.7841C48.9039 31.2045 48.7997 31.6553 48.7997 32.1364V32.9091C48.7997 33.5682 48.9134 34.1269 49.1406 34.5852C49.3717 35.0398 49.6918 35.3864 50.1009 35.625C50.5099 35.8598 50.9853 35.9773 51.527 35.9773C51.8793 35.9773 52.1974 35.928 52.4815 35.8295C52.7694 35.7273 53.0175 35.5758 53.2259 35.375C53.4342 35.1705 53.5952 34.9167 53.7088 34.6136L55.0043 34.9773C54.8679 35.4167 54.6387 35.803 54.3168 36.1364C53.9948 36.4659 53.5971 36.7235 53.1236 36.9091C52.6501 37.0909 52.1179 37.1818 51.527 37.1818ZM57.1804 37V28.2727H58.4759V29.5909H58.5668C58.7259 29.1591 59.0137 28.8087 59.4304 28.5398C59.8471 28.2708 60.3168 28.1364 60.8395 28.1364C60.938 28.1364 61.0611 28.1383 61.2088 28.142C61.3565 28.1458 61.4683 28.1515 61.544 28.1591V29.5227C61.4986 29.5114 61.3944 29.4943 61.2315 29.4716C61.0724 29.4451 60.9039 29.4318 60.7259 29.4318C60.3016 29.4318 59.9228 29.5208 59.5895 29.6989C59.2599 29.8731 58.9986 30.1155 58.8054 30.4261C58.616 30.733 58.5213 31.0833 58.5213 31.4773V37H57.1804ZM66.527 37.1818C65.6861 37.1818 64.9607 36.9962 64.3509 36.625C63.7448 36.25 63.277 35.7273 62.9474 35.0568C62.6217 34.3826 62.4588 33.5985 62.4588 32.7045C62.4588 31.8106 62.6217 31.0227 62.9474 30.3409C63.277 29.6553 63.7353 29.1212 64.3224 28.7386C64.9134 28.3523 65.6027 28.1591 66.3906 28.1591C66.8452 28.1591 67.294 28.2348 67.7372 28.3864C68.1804 28.5379 68.5838 28.7841 68.9474 29.125C69.3111 29.4621 69.6009 29.9091 69.8168 30.4659C70.0327 31.0227 70.1406 31.7083 70.1406 32.5227V33.0909H63.4134V31.9318H68.777C68.777 31.4394 68.6785 31 68.4815 30.6136C68.2884 30.2273 68.0118 29.9223 67.652 29.6989C67.2959 29.4754 66.8755 29.3636 66.3906 29.3636C65.8565 29.3636 65.3944 29.4962 65.0043 29.7614C64.6179 30.0227 64.3205 30.3636 64.1122 30.7841C63.9039 31.2045 63.7997 31.6553 63.7997 32.1364V32.9091C63.7997 33.5682 63.9134 34.1269 64.1406 34.5852C64.3717 35.0398 64.6918 35.3864 65.1009 35.625C65.5099 35.8598 65.9853 35.9773 66.527 35.9773C66.8793 35.9773 67.1974 35.928 67.4815 35.8295C67.7694 35.7273 68.0175 35.5758 68.2259 35.375C68.4342 35.1705 68.5952 34.9167 68.7088 34.6136L70.0043 34.9773C69.8679 35.4167 69.6387 35.803 69.3168 36.1364C68.9948 36.4659 68.5971 36.7235 68.1236 36.9091C67.6501 37.0909 67.1179 37.1818 66.527 37.1818ZM79.9759 37.1591C79.2107 37.1591 78.5516 37.0189 77.9986 36.7386C77.4455 36.4583 77.0194 36.0739 76.7202 35.5852C76.4209 35.0966 76.2713 34.5379 76.2713 33.9091C76.2713 33.4242 76.3736 32.9943 76.5781 32.6193C76.7865 32.2405 77.0724 31.8902 77.4361 31.5682C77.8035 31.2424 78.2259 30.9167 78.7031 30.5909L80.3849 29.3409C80.7145 29.125 80.9777 28.8939 81.1747 28.6477C81.3755 28.4015 81.4759 28.0795 81.4759 27.6818C81.4759 27.3864 81.3452 27.1004 81.0838 26.8239C80.8262 26.5473 80.4872 26.4091 80.0668 26.4091C79.7713 26.4091 79.5099 26.4848 79.2827 26.6364C79.0592 26.7841 78.883 26.9735 78.7543 27.2045C78.6293 27.4318 78.5668 27.6667 78.5668 27.9091C78.5668 28.1818 78.6406 28.4583 78.7884 28.7386C78.9399 29.0152 79.1312 29.2992 79.3622 29.5909C79.5971 29.8788 79.8395 30.1742 80.0895 30.4773L85.4304 37H83.8168L79.4077 31.6818C78.9986 31.1894 78.6274 30.7424 78.294 30.3409C77.9607 29.9394 77.6955 29.5436 77.4986 29.1534C77.3016 28.7633 77.2031 28.3409 77.2031 27.8864C77.2031 27.3636 77.3187 26.9053 77.5497 26.5114C77.7846 26.1136 78.1122 25.8049 78.5327 25.5852C78.9569 25.3617 79.4531 25.25 80.0213 25.25C80.6046 25.25 81.1065 25.3636 81.527 25.5909C81.9474 25.8144 82.2713 26.1117 82.4986 26.483C82.7259 26.8504 82.8395 27.25 82.8395 27.6818C82.8395 28.2386 82.7012 28.7216 82.4247 29.1307C82.1482 29.5398 81.7713 29.9205 81.294 30.2727L78.9759 32C78.4531 32.3864 78.099 32.7614 77.9134 33.125C77.7277 33.4886 77.6349 33.75 77.6349 33.9091C77.6349 34.2727 77.7296 34.6117 77.919 34.9261C78.1084 35.2405 78.3755 35.4943 78.7202 35.6875C79.0649 35.8807 79.4683 35.9773 79.9304 35.9773C80.3698 35.9773 80.7978 35.8845 81.2145 35.6989C81.6312 35.5095 82.008 35.2367 82.3452 34.8807C82.6861 34.5246 82.955 34.0966 83.152 33.5966C83.3527 33.0966 83.4531 32.5341 83.4531 31.9091H84.7486C84.7486 32.6818 84.6596 33.3125 84.4815 33.8011C84.3035 34.2898 84.1027 34.6723 83.8793 34.9489C83.6558 35.2254 83.4759 35.4318 83.3395 35.5682C83.294 35.625 83.2524 35.6818 83.2145 35.7386C83.1766 35.7955 83.1349 35.8523 83.0895 35.9091C82.7145 36.3295 82.241 36.6439 81.669 36.8523C81.0971 37.0568 80.5327 37.1591 79.9759 37.1591ZM92.7557 31.75V37H91.4148V25.3636H92.7557V29.6364H92.8693C93.0739 29.1856 93.3807 28.8277 93.7898 28.5625C94.2027 28.2936 94.7519 28.1591 95.4375 28.1591C96.0322 28.1591 96.553 28.2784 97 28.517C97.447 28.7519 97.7936 29.1136 98.0398 29.6023C98.2898 30.0871 98.4148 30.7045 98.4148 31.4545V37H97.0739V31.5455C97.0739 30.8523 96.8939 30.3163 96.5341 29.9375C96.178 29.5549 95.6837 29.3636 95.0511 29.3636C94.6117 29.3636 94.2178 29.4564 93.8693 29.642C93.5246 29.8277 93.2519 30.0985 93.0511 30.4545C92.8542 30.8106 92.7557 31.2424 92.7557 31.75ZM104.413 37.1818C103.625 37.1818 102.934 36.9943 102.339 36.6193C101.749 36.2443 101.286 35.7197 100.953 35.0455C100.624 34.3712 100.459 33.5833 100.459 32.6818C100.459 31.7727 100.624 30.9792 100.953 30.3011C101.286 29.6231 101.749 29.0966 102.339 28.7216C102.934 28.3466 103.625 28.1591 104.413 28.1591C105.201 28.1591 105.891 28.3466 106.482 28.7216C107.076 29.0966 107.538 29.6231 107.868 30.3011C108.201 30.9792 108.368 31.7727 108.368 32.6818C108.368 33.5833 108.201 34.3712 107.868 35.0455C107.538 35.7197 107.076 36.2443 106.482 36.6193C105.891 36.9943 105.201 37.1818 104.413 37.1818ZM104.413 35.9773C105.012 35.9773 105.504 35.8239 105.891 35.517C106.277 35.2102 106.563 34.8068 106.749 34.3068C106.934 33.8068 107.027 33.2652 107.027 32.6818C107.027 32.0985 106.934 31.5549 106.749 31.0511C106.563 30.5473 106.277 30.1402 105.891 29.8295C105.504 29.5189 105.012 29.3636 104.413 29.3636C103.815 29.3636 103.322 29.5189 102.936 29.8295C102.55 30.1402 102.264 30.5473 102.078 31.0511C101.893 31.5549 101.8 32.0985 101.8 32.6818C101.8 33.2652 101.893 33.8068 102.078 34.3068C102.264 34.8068 102.55 35.2102 102.936 35.517C103.322 35.8239 103.815 35.9773 104.413 35.9773ZM112.095 37L109.436 28.2727H110.845L112.732 34.9545H112.822L114.686 28.2727H116.118L117.959 34.9318H118.05L119.936 28.2727H121.345L118.686 37H117.368L115.459 30.2955H115.322L113.413 37H112.095ZM129.209 25.3636V37H127.8V25.3636H129.209ZM138.33 37L135.67 28.2727H137.08L138.966 34.9545H139.057L140.92 28.2727H142.352L144.193 34.9318H144.284L146.17 28.2727H147.58L144.92 37H143.602L141.693 30.2955H141.557L139.648 37H138.33ZM151.92 37.2045C151.367 37.2045 150.866 37.1004 150.415 36.892C149.964 36.6799 149.606 36.375 149.341 35.9773C149.076 35.5758 148.943 35.0909 148.943 34.5227C148.943 34.0227 149.042 33.6174 149.239 33.3068C149.436 32.9924 149.699 32.7462 150.028 32.5682C150.358 32.3902 150.722 32.2576 151.119 32.1705C151.521 32.0795 151.924 32.0076 152.33 31.9545C152.86 31.8864 153.29 31.8352 153.619 31.8011C153.953 31.7633 154.195 31.7008 154.347 31.6136C154.502 31.5265 154.58 31.375 154.58 31.1591V31.1136C154.58 30.553 154.426 30.1174 154.119 29.8068C153.816 29.4962 153.356 29.3409 152.739 29.3409C152.098 29.3409 151.597 29.4811 151.233 29.7614C150.869 30.0417 150.614 30.3409 150.466 30.6591L149.193 30.2045C149.42 29.6742 149.723 29.2614 150.102 28.9659C150.485 28.6667 150.902 28.4583 151.352 28.3409C151.807 28.2197 152.254 28.1591 152.693 28.1591C152.973 28.1591 153.295 28.1932 153.659 28.2614C154.027 28.3258 154.381 28.4602 154.722 28.6648C155.066 28.8693 155.352 29.178 155.58 29.5909C155.807 30.0038 155.92 30.5568 155.92 31.25V37H154.58V35.8182H154.511C154.42 36.0076 154.269 36.2102 154.057 36.4261C153.845 36.642 153.563 36.8258 153.21 36.9773C152.858 37.1288 152.428 37.2045 151.92 37.2045ZM152.125 36C152.655 36 153.102 35.8958 153.466 35.6875C153.833 35.4792 154.11 35.2102 154.295 34.8807C154.485 34.5511 154.58 34.2045 154.58 33.8409V32.6136C154.523 32.6818 154.398 32.7443 154.205 32.8011C154.015 32.8542 153.795 32.9015 153.545 32.9432C153.299 32.9811 153.059 33.0152 152.824 33.0455C152.593 33.072 152.405 33.0947 152.261 33.1136C151.913 33.1591 151.587 33.233 151.284 33.3352C150.985 33.4337 150.742 33.5833 150.557 33.7841C150.375 33.9811 150.284 34.25 150.284 34.5909C150.284 35.0568 150.456 35.4091 150.801 35.6477C151.15 35.8826 151.591 36 152.125 36ZM159.709 31.75V37H158.368V28.2727H159.663V29.6364H159.777C159.982 29.1932 160.292 28.8371 160.709 28.5682C161.125 28.2955 161.663 28.1591 162.322 28.1591C162.913 28.1591 163.43 28.2803 163.874 28.5227C164.317 28.7614 164.661 29.125 164.908 29.6136C165.154 30.0985 165.277 30.7121 165.277 31.4545V37H163.936V31.5455C163.936 30.8598 163.758 30.3258 163.402 29.9432C163.046 29.5568 162.557 29.3636 161.936 29.3636C161.508 29.3636 161.125 29.4564 160.788 29.642C160.455 29.8277 160.192 30.0985 159.999 30.4545C159.805 30.8106 159.709 31.2424 159.709 31.75ZM171.523 28.2727V29.4091H167V28.2727H171.523ZM168.318 26.1818H169.659V34.5C169.659 34.8788 169.714 35.1629 169.824 35.3523C169.938 35.5379 170.081 35.6629 170.256 35.7273C170.434 35.7879 170.621 35.8182 170.818 35.8182C170.966 35.8182 171.087 35.8106 171.182 35.7955C171.277 35.7765 171.352 35.7614 171.409 35.75L171.682 36.9545C171.591 36.9886 171.464 37.0227 171.301 37.0568C171.138 37.0947 170.932 37.1136 170.682 37.1136C170.303 37.1136 169.932 37.0322 169.568 36.8693C169.208 36.7064 168.909 36.4583 168.67 36.125C168.436 35.7917 168.318 35.3712 168.318 34.8636V26.1818ZM181.835 28.2727V29.4091H177.312V28.2727H181.835ZM178.631 26.1818H179.972V34.5C179.972 34.8788 180.027 35.1629 180.136 35.3523C180.25 35.5379 180.394 35.6629 180.568 35.7273C180.746 35.7879 180.934 35.8182 181.131 35.8182C181.278 35.8182 181.4 35.8106 181.494 35.7955C181.589 35.7765 181.665 35.7614 181.722 35.75L181.994 36.9545C181.903 36.9886 181.777 37.0227 181.614 37.0568C181.451 37.0947 181.244 37.1136 180.994 37.1136C180.616 37.1136 180.244 37.0322 179.881 36.8693C179.521 36.7064 179.222 36.4583 178.983 36.125C178.748 35.7917 178.631 35.3712 178.631 34.8636V26.1818ZM187.304 37.1818C186.516 37.1818 185.825 36.9943 185.23 36.6193C184.639 36.2443 184.177 35.7197 183.844 35.0455C183.514 34.3712 183.349 33.5833 183.349 32.6818C183.349 31.7727 183.514 30.9792 183.844 30.3011C184.177 29.6231 184.639 29.0966 185.23 28.7216C185.825 28.3466 186.516 28.1591 187.304 28.1591C188.092 28.1591 188.781 28.3466 189.372 28.7216C189.967 29.0966 190.429 29.6231 190.759 30.3011C191.092 30.9792 191.259 31.7727 191.259 32.6818C191.259 33.5833 191.092 34.3712 190.759 35.0455C190.429 35.7197 189.967 36.2443 189.372 36.6193C188.781 36.9943 188.092 37.1818 187.304 37.1818ZM187.304 35.9773C187.902 35.9773 188.395 35.8239 188.781 35.517C189.168 35.2102 189.454 34.8068 189.639 34.3068C189.825 33.8068 189.918 33.2652 189.918 32.6818C189.918 32.0985 189.825 31.5549 189.639 31.0511C189.454 30.5473 189.168 30.1402 188.781 29.8295C188.395 29.5189 187.902 29.3636 187.304 29.3636C186.705 29.3636 186.213 29.5189 185.827 29.8295C185.44 30.1402 185.154 30.5473 184.969 31.0511C184.783 31.5549 184.69 32.0985 184.69 32.6818C184.69 33.2652 184.783 33.8068 184.969 34.3068C185.154 34.8068 185.44 35.2102 185.827 35.517C186.213 35.8239 186.705 35.9773 187.304 35.9773ZM199.146 25.3636V37H197.805V25.3636H199.146ZM201.602 37V28.2727H202.943V37H201.602ZM202.284 26.8182C202.023 26.8182 201.797 26.7292 201.608 26.5511C201.422 26.3731 201.33 26.1591 201.33 25.9091C201.33 25.6591 201.422 25.4451 201.608 25.267C201.797 25.089 202.023 25 202.284 25C202.545 25 202.769 25.089 202.955 25.267C203.144 25.4451 203.239 25.6591 203.239 25.9091C203.239 26.1591 203.144 26.3731 202.955 26.5511C202.769 26.7292 202.545 26.8182 202.284 26.8182ZM212.536 28.2727L209.308 37H207.945L204.717 28.2727H206.172L208.581 35.2273H208.672L211.081 28.2727H212.536ZM217.652 37.1818C216.811 37.1818 216.086 36.9962 215.476 36.625C214.87 36.25 214.402 35.7273 214.072 35.0568C213.747 34.3826 213.584 33.5985 213.584 32.7045C213.584 31.8106 213.747 31.0227 214.072 30.3409C214.402 29.6553 214.86 29.1212 215.447 28.7386C216.038 28.3523 216.728 28.1591 217.516 28.1591C217.97 28.1591 218.419 28.2348 218.862 28.3864C219.305 28.5379 219.709 28.7841 220.072 29.125C220.436 29.4621 220.726 29.9091 220.942 30.4659C221.158 31.0227 221.266 31.7083 221.266 32.5227V33.0909H214.538V31.9318H219.902C219.902 31.4394 219.804 31 219.607 30.6136C219.413 30.2273 219.137 29.9223 218.777 29.6989C218.421 29.4754 218 29.3636 217.516 29.3636C216.982 29.3636 216.519 29.4962 216.129 29.7614C215.743 30.0227 215.446 30.3636 215.237 30.7841C215.029 31.2045 214.925 31.6553 214.925 32.1364V32.9091C214.925 33.5682 215.038 34.1269 215.266 34.5852C215.497 35.0398 215.817 35.3864 216.226 35.625C216.635 35.8598 217.11 35.9773 217.652 35.9773C218.004 35.9773 218.322 35.928 218.607 35.8295C218.894 35.7273 219.143 35.5758 219.351 35.375C219.559 35.1705 219.72 34.9167 219.834 34.6136L221.129 34.9773C220.993 35.4167 220.764 35.803 220.442 36.1364C220.12 36.4659 219.722 36.7235 219.249 36.9091C218.775 37.0909 218.243 37.1818 217.652 37.1818Z" fill="black"/>
<circle cx="247.713" cy="31.5" r="2" fill="black"/>
<path fill-rule="evenodd" clip-rule="evenodd" d="M238.793 31.6283L241.323 33.9288C244.947 37.2229 250.481 37.2229 254.104 33.9288L256.635 31.6283L254.104 29.3278C250.481 26.0337 244.947 26.0337 241.323 29.3278L238.793 31.6283ZM257.594 31.6283C257.686 31.822 257.646 32.0608 257.479 32.2125L254.777 34.6687C250.772 38.3096 244.656 38.3096 240.651 34.6687L237.949 32.2125C237.782 32.0608 237.741 31.822 237.833 31.6283C237.741 31.4346 237.782 31.1958 237.949 31.0441L240.651 28.5879C244.656 24.947 250.772 24.947 254.777 28.5879L257.479 31.0441C257.646 31.1958 257.686 31.4346 257.594 31.6283Z" fill="black"/>
<rect x="12" y="55" width="256" height="39" rx="8" fill="#FFF8F1"/>
<path d="M27 80H23.4091V68.3636H27.1591C28.2879 68.3636 29.2538 68.5966 30.0568 69.0625C30.8598 69.5246 31.4754 70.1894 31.9034 71.0568C32.3314 71.9205 32.5455 72.9545 32.5455 74.1591C32.5455 75.3712 32.3295 76.4148 31.8977 77.2898C31.4659 78.161 30.8371 78.8314 30.0114 79.3011C29.1856 79.767 28.1818 80 27 80ZM24.8182 78.75H26.9091C27.8712 78.75 28.6686 78.5644 29.3011 78.1932C29.9337 77.822 30.4053 77.2936 30.7159 76.608C31.0265 75.9223 31.1818 75.1061 31.1818 74.1591C31.1818 73.2197 31.0284 72.411 30.7216 71.733C30.4148 71.0511 29.9564 70.5284 29.3466 70.1648C28.7367 69.7973 27.9773 69.6136 27.0682 69.6136H24.8182V78.75ZM34.7273 80V71.2727H36.0227V72.5909H36.1136C36.2727 72.1591 36.5606 71.8087 36.9773 71.5398C37.3939 71.2708 37.8636 71.1364 38.3864 71.1364C38.4848 71.1364 38.608 71.1383 38.7557 71.142C38.9034 71.1458 39.0152 71.1515 39.0909 71.1591V72.5227C39.0455 72.5114 38.9413 72.4943 38.7784 72.4716C38.6193 72.4451 38.4508 72.4318 38.2727 72.4318C37.8485 72.4318 37.4697 72.5208 37.1364 72.6989C36.8068 72.8731 36.5455 73.1155 36.3523 73.4261C36.1629 73.733 36.0682 74.0833 36.0682 74.4773V80H34.7273ZM44.0739 80.1818C43.233 80.1818 42.5076 79.9962 41.8977 79.625C41.2917 79.25 40.8239 78.7273 40.4943 78.0568C40.1686 77.3826 40.0057 76.5985 40.0057 75.7045C40.0057 74.8106 40.1686 74.0227 40.4943 73.3409C40.8239 72.6553 41.2822 72.1212 41.8693 71.7386C42.4602 71.3523 43.1496 71.1591 43.9375 71.1591C44.392 71.1591 44.8409 71.2348 45.2841 71.3864C45.7273 71.5379 46.1307 71.7841 46.4943 72.125C46.858 72.4621 47.1477 72.9091 47.3636 73.4659C47.5795 74.0227 47.6875 74.7083 47.6875 75.5227V76.0909H40.9602V74.9318H46.3239C46.3239 74.4394 46.2254 74 46.0284 73.6136C45.8352 73.2273 45.5587 72.9223 45.1989 72.6989C44.8428 72.4754 44.4223 72.3636 43.9375 72.3636C43.4034 72.3636 42.9413 72.4962 42.5511 72.7614C42.1648 73.0227 41.8674 73.3636 41.6591 73.7841C41.4508 74.2045 41.3466 74.6553 41.3466 75.1364V75.9091C41.3466 76.5682 41.4602 77.1269 41.6875 77.5852C41.9186 78.0398 42.2386 78.3864 42.6477 78.625C43.0568 78.8598 43.5322 78.9773 44.0739 78.9773C44.4261 78.9773 44.7443 78.928 45.0284 78.8295C45.3163 78.7273 45.5644 78.5758 45.7727 78.375C45.9811 78.1705 46.142 77.9167 46.2557 77.6136L47.5511 77.9773C47.4148 78.4167 47.1856 78.803 46.8636 79.1364C46.5417 79.4659 46.1439 79.7235 45.6705 79.9091C45.197 80.0909 44.6648 80.1818 44.0739 80.1818ZM52.2955 80.2045C51.7424 80.2045 51.2405 80.1004 50.7898 79.892C50.339 79.6799 49.9811 79.375 49.7159 78.9773C49.4508 78.5758 49.3182 78.0909 49.3182 77.5227C49.3182 77.0227 49.4167 76.6174 49.6136 76.3068C49.8106 75.9924 50.0739 75.7462 50.4034 75.5682C50.733 75.3902 51.0966 75.2576 51.4943 75.1705C51.8958 75.0795 52.2992 75.0076 52.7045 74.9545C53.2348 74.8864 53.6648 74.8352 53.9943 74.8011C54.3277 74.7633 54.5701 74.7008 54.7216 74.6136C54.8769 74.5265 54.9545 74.375 54.9545 74.1591V74.1136C54.9545 73.553 54.8011 73.1174 54.4943 72.8068C54.1913 72.4962 53.7311 72.3409 53.1136 72.3409C52.4735 72.3409 51.9716 72.4811 51.608 72.7614C51.2443 73.0417 50.9886 73.3409 50.8409 73.6591L49.5682 73.2045C49.7955 72.6742 50.0985 72.2614 50.4773 71.9659C50.8598 71.6667 51.2765 71.4583 51.7273 71.3409C52.1818 71.2197 52.6288 71.1591 53.0682 71.1591C53.3485 71.1591 53.6705 71.1932 54.0341 71.2614C54.4015 71.3258 54.7557 71.4602 55.0966 71.6648C55.4413 71.8693 55.7273 72.178 55.9545 72.5909C56.1818 73.0038 56.2955 73.5568 56.2955 74.25V80H54.9545V78.8182H54.8864C54.7955 79.0076 54.6439 79.2102 54.4318 79.4261C54.2197 79.642 53.9375 79.8258 53.5852 79.9773C53.233 80.1288 52.803 80.2045 52.2955 80.2045ZM52.5 79C53.0303 79 53.4773 78.8958 53.8409 78.6875C54.2083 78.4792 54.4848 78.2102 54.6705 77.8807C54.8598 77.5511 54.9545 77.2045 54.9545 76.8409V75.6136C54.8977 75.6818 54.7727 75.7443 54.5795 75.8011C54.3902 75.8542 54.1705 75.9015 53.9205 75.9432C53.6742 75.9811 53.4337 76.0152 53.1989 76.0455C52.9678 76.072 52.7803 76.0947 52.6364 76.1136C52.2879 76.1591 51.9621 76.233 51.6591 76.3352C51.3598 76.4337 51.1174 76.5833 50.9318 76.7841C50.75 76.9811 50.6591 77.25 50.6591 77.5909C50.6591 78.0568 50.8314 78.4091 51.1761 78.6477C51.5246 78.8826 51.9659 79 52.5 79ZM58.7429 80V71.2727H60.0384V72.6364H60.152C60.3338 72.1705 60.6274 71.8087 61.0327 71.5511C61.438 71.2898 61.9247 71.1591 62.4929 71.1591C63.0687 71.1591 63.5478 71.2898 63.9304 71.5511C64.3168 71.8087 64.6179 72.1705 64.8338 72.6364H64.9247C65.1482 72.1856 65.4834 71.8277 65.9304 71.5625C66.3774 71.2936 66.9134 71.1591 67.5384 71.1591C68.3187 71.1591 68.9569 71.4034 69.4531 71.892C69.9493 72.3769 70.1974 73.1326 70.1974 74.1591V80H68.8565V74.1591C68.8565 73.5152 68.6804 73.0549 68.3281 72.7784C67.9759 72.5019 67.5611 72.3636 67.0838 72.3636C66.4702 72.3636 65.9948 72.5492 65.6577 72.9205C65.3205 73.2879 65.152 73.7538 65.152 74.3182V80H63.7884V74.0227C63.7884 73.5265 63.6274 73.1269 63.3054 72.8239C62.9834 72.517 62.5687 72.3636 62.0611 72.3636C61.7126 72.3636 61.3868 72.4564 61.0838 72.642C60.7846 72.8277 60.5421 73.0852 60.3565 73.4148C60.1747 73.7405 60.0838 74.1174 60.0838 74.5455V80H58.7429ZM77.1491 71.2727H78.4901V80.6364C78.4901 81.1742 78.3973 81.6402 78.2116 82.0341C78.0298 82.428 77.7533 82.733 77.3821 82.9489C77.0147 83.1648 76.5507 83.2727 75.9901 83.2727C75.9446 83.2727 75.8991 83.2727 75.8537 83.2727C75.8082 83.2727 75.7628 83.2727 75.7173 83.2727V82.0227C75.7628 82.0227 75.8045 82.0227 75.8423 82.0227C75.8802 82.0227 75.9219 82.0227 75.9673 82.0227C76.3764 82.0227 76.6757 81.9015 76.8651 81.6591C77.0545 81.4205 77.1491 81.0795 77.1491 80.6364V71.2727ZM77.8082 69.8182C77.5469 69.8182 77.3215 69.7292 77.1321 69.5511C76.9465 69.3731 76.8537 69.1591 76.8537 68.9091C76.8537 68.6591 76.9465 68.4451 77.1321 68.267C77.3215 68.089 77.5469 68 77.8082 68C78.0696 68 78.2931 68.089 78.4787 68.267C78.6681 68.4451 78.7628 68.6591 78.7628 68.9091C78.7628 69.1591 78.6681 69.3731 78.4787 69.5511C78.2931 69.7292 78.0696 69.8182 77.8082 69.8182ZM84.4915 80.1818C83.7036 80.1818 83.0123 79.9943 82.4176 79.6193C81.8267 79.2443 81.3646 78.7197 81.0312 78.0455C80.7017 77.3712 80.5369 76.5833 80.5369 75.6818C80.5369 74.7727 80.7017 73.9792 81.0312 73.3011C81.3646 72.6231 81.8267 72.0966 82.4176 71.7216C83.0123 71.3466 83.7036 71.1591 84.4915 71.1591C85.2794 71.1591 85.9688 71.3466 86.5597 71.7216C87.1544 72.0966 87.6165 72.6231 87.946 73.3011C88.2794 73.9792 88.446 74.7727 88.446 75.6818C88.446 76.5833 88.2794 77.3712 87.946 78.0455C87.6165 78.7197 87.1544 79.2443 86.5597 79.6193C85.9688 79.9943 85.2794 80.1818 84.4915 80.1818ZM84.4915 78.9773C85.09 78.9773 85.5824 78.8239 85.9688 78.517C86.3551 78.2102 86.6411 77.8068 86.8267 77.3068C87.0123 76.8068 87.1051 76.2652 87.1051 75.6818C87.1051 75.0985 87.0123 74.5549 86.8267 74.0511C86.6411 73.5473 86.3551 73.1402 85.9688 72.8295C85.5824 72.5189 85.09 72.3636 84.4915 72.3636C83.893 72.3636 83.4006 72.5189 83.0142 72.8295C82.6278 73.1402 82.3419 73.5473 82.1562 74.0511C81.9706 74.5549 81.8778 75.0985 81.8778 75.6818C81.8778 76.2652 81.9706 76.8068 82.1562 77.3068C82.3419 77.8068 82.6278 78.2102 83.0142 78.517C83.4006 78.8239 83.893 78.9773 84.4915 78.9773ZM90.6747 80V68.3636H92.0156V72.6591H92.1293C92.2277 72.5076 92.3641 72.3144 92.5384 72.0795C92.7164 71.8409 92.9702 71.6288 93.2997 71.4432C93.633 71.2538 94.0838 71.1591 94.652 71.1591C95.3868 71.1591 96.0346 71.3428 96.5952 71.7102C97.1558 72.0777 97.5933 72.5985 97.9077 73.2727C98.2221 73.947 98.3793 74.7424 98.3793 75.6591C98.3793 76.5833 98.2221 77.3845 97.9077 78.0625C97.5933 78.7367 97.1577 79.2595 96.6009 79.6307C96.044 79.9981 95.402 80.1818 94.6747 80.1818C94.1141 80.1818 93.6652 80.089 93.3281 79.9034C92.991 79.714 92.7315 79.5 92.5497 79.2614C92.3679 79.0189 92.2277 78.8182 92.1293 78.6591H91.9702V80H90.6747ZM91.9929 75.6364C91.9929 76.2955 92.0895 76.8769 92.2827 77.3807C92.4759 77.8807 92.758 78.2727 93.1293 78.5568C93.5005 78.8371 93.955 78.9773 94.4929 78.9773C95.0535 78.9773 95.5213 78.8295 95.8963 78.5341C96.2751 78.2348 96.5592 77.8333 96.7486 77.3295C96.9418 76.822 97.0384 76.2576 97.0384 75.6364C97.0384 75.0227 96.9437 74.4697 96.7543 73.9773C96.5687 73.4811 96.2865 73.089 95.9077 72.8011C95.5327 72.5095 95.0611 72.3636 94.4929 72.3636C93.9474 72.3636 93.4891 72.5019 93.1179 72.7784C92.7467 73.0511 92.4664 73.4337 92.277 73.9261C92.0876 74.4148 91.9929 74.9848 91.9929 75.6364ZM106.612 73.2273L105.408 73.5682C105.332 73.3674 105.22 73.1723 105.072 72.983C104.929 72.7898 104.732 72.6307 104.482 72.5057C104.232 72.3807 103.911 72.3182 103.521 72.3182C102.987 72.3182 102.542 72.4413 102.186 72.6875C101.834 72.9299 101.658 73.2386 101.658 73.6136C101.658 73.947 101.779 74.2102 102.021 74.4034C102.264 74.5966 102.643 74.7576 103.158 74.8864L104.453 75.2045C105.233 75.3939 105.815 75.6837 106.197 76.0739C106.58 76.4602 106.771 76.9583 106.771 77.5682C106.771 78.0682 106.627 78.5152 106.339 78.9091C106.055 79.303 105.658 79.6136 105.146 79.8409C104.635 80.0682 104.04 80.1818 103.362 80.1818C102.472 80.1818 101.735 79.9886 101.152 79.6023C100.569 79.2159 100.199 78.6515 100.044 77.9091L101.317 77.5909C101.438 78.0606 101.667 78.4129 102.004 78.6477C102.345 78.8826 102.79 79 103.339 79C103.964 79 104.461 78.8674 104.828 78.6023C105.199 78.3333 105.385 78.0114 105.385 77.6364C105.385 77.3333 105.279 77.0795 105.067 76.875C104.855 76.6667 104.529 76.5114 104.089 76.4091L102.635 76.0682C101.836 75.8788 101.249 75.5852 100.874 75.1875C100.502 74.786 100.317 74.2841 100.317 73.6818C100.317 73.1894 100.455 72.7538 100.732 72.375C101.012 71.9962 101.393 71.6989 101.874 71.483C102.358 71.267 102.908 71.1591 103.521 71.1591C104.385 71.1591 105.063 71.3485 105.555 71.7273C106.052 72.1061 106.404 72.6061 106.612 73.2273Z" fill="black"/>
<rect x="12" y="98" width="256" height="39" rx="8" fill="#F3E6D9"/>
<path d="M23.4091 123V111.364H27.3409C28.2538 111.364 29 111.528 29.5795 111.858C30.1629 112.184 30.5947 112.625 30.875 113.182C31.1553 113.739 31.2955 114.36 31.2955 115.045C31.2955 115.731 31.1553 116.354 30.875 116.915C30.5985 117.475 30.1705 117.922 29.5909 118.256C29.0114 118.585 28.2689 118.75 27.3636 118.75H24.5455V117.5H27.3182C27.9432 117.5 28.4451 117.392 28.8239 117.176C29.2027 116.96 29.4773 116.669 29.6477 116.301C29.822 115.93 29.9091 115.511 29.9091 115.045C29.9091 114.58 29.822 114.163 29.6477 113.795C29.4773 113.428 29.2008 113.14 28.8182 112.932C28.4356 112.72 27.928 112.614 27.2955 112.614H24.8182V123H23.4091ZM36.9489 123.182C36.108 123.182 35.3826 122.996 34.7727 122.625C34.1667 122.25 33.6989 121.727 33.3693 121.057C33.0436 120.383 32.8807 119.598 32.8807 118.705C32.8807 117.811 33.0436 117.023 33.3693 116.341C33.6989 115.655 34.1572 115.121 34.7443 114.739C35.3352 114.352 36.0246 114.159 36.8125 114.159C37.267 114.159 37.7159 114.235 38.1591 114.386C38.6023 114.538 39.0057 114.784 39.3693 115.125C39.733 115.462 40.0227 115.909 40.2386 116.466C40.4545 117.023 40.5625 117.708 40.5625 118.523V119.091H33.8352V117.932H39.1989C39.1989 117.439 39.1004 117 38.9034 116.614C38.7102 116.227 38.4337 115.922 38.0739 115.699C37.7178 115.475 37.2973 115.364 36.8125 115.364C36.2784 115.364 35.8163 115.496 35.4261 115.761C35.0398 116.023 34.7424 116.364 34.5341 116.784C34.3258 117.205 34.2216 117.655 34.2216 118.136V118.909C34.2216 119.568 34.3352 120.127 34.5625 120.585C34.7936 121.04 35.1136 121.386 35.5227 121.625C35.9318 121.86 36.4072 121.977 36.9489 121.977C37.3011 121.977 37.6193 121.928 37.9034 121.83C38.1913 121.727 38.4394 121.576 38.6477 121.375C38.8561 121.17 39.017 120.917 39.1307 120.614L40.4261 120.977C40.2898 121.417 40.0606 121.803 39.7386 122.136C39.4167 122.466 39.0189 122.723 38.5455 122.909C38.072 123.091 37.5398 123.182 36.9489 123.182ZM46.1477 123.182C45.3598 123.182 44.6686 122.994 44.0739 122.619C43.483 122.244 43.0208 121.72 42.6875 121.045C42.358 120.371 42.1932 119.583 42.1932 118.682C42.1932 117.773 42.358 116.979 42.6875 116.301C43.0208 115.623 43.483 115.097 44.0739 114.722C44.6686 114.347 45.3598 114.159 46.1477 114.159C46.9356 114.159 47.625 114.347 48.2159 114.722C48.8106 115.097 49.2727 115.623 49.6023 116.301C49.9356 116.979 50.1023 117.773 50.1023 118.682C50.1023 119.583 49.9356 120.371 49.6023 121.045C49.2727 121.72 48.8106 122.244 48.2159 122.619C47.625 122.994 46.9356 123.182 46.1477 123.182ZM46.1477 121.977C46.7462 121.977 47.2386 121.824 47.625 121.517C48.0114 121.21 48.2973 120.807 48.483 120.307C48.6686 119.807 48.7614 119.265 48.7614 118.682C48.7614 118.098 48.6686 117.555 48.483 117.051C48.2973 116.547 48.0114 116.14 47.625 115.83C47.2386 115.519 46.7462 115.364 46.1477 115.364C45.5492 115.364 45.0568 115.519 44.6705 115.83C44.2841 116.14 43.9981 116.547 43.8125 117.051C43.6269 117.555 43.5341 118.098 43.5341 118.682C43.5341 119.265 43.6269 119.807 43.8125 120.307C43.9981 120.807 44.2841 121.21 44.6705 121.517C45.0568 121.824 45.5492 121.977 46.1477 121.977ZM52.1491 126.273V114.273H53.4446V115.659H53.6037C53.7022 115.508 53.8385 115.314 54.0128 115.08C54.1908 114.841 54.4446 114.629 54.7741 114.443C55.1075 114.254 55.5582 114.159 56.1264 114.159C56.8613 114.159 57.509 114.343 58.0696 114.71C58.6302 115.078 59.0677 115.598 59.3821 116.273C59.6965 116.947 59.8537 117.742 59.8537 118.659C59.8537 119.583 59.6965 120.384 59.3821 121.062C59.0677 121.737 58.6321 122.259 58.0753 122.631C57.5185 122.998 56.8764 123.182 56.1491 123.182C55.5885 123.182 55.1397 123.089 54.8026 122.903C54.4654 122.714 54.206 122.5 54.0241 122.261C53.8423 122.019 53.7022 121.818 53.6037 121.659H53.4901V126.273H52.1491ZM53.4673 118.636C53.4673 119.295 53.5639 119.877 53.7571 120.381C53.9503 120.881 54.2325 121.273 54.6037 121.557C54.9749 121.837 55.4295 121.977 55.9673 121.977C56.5279 121.977 56.9957 121.83 57.3707 121.534C57.7495 121.235 58.0336 120.833 58.223 120.33C58.4162 119.822 58.5128 119.258 58.5128 118.636C58.5128 118.023 58.4181 117.47 58.2287 116.977C58.0431 116.481 57.7609 116.089 57.3821 115.801C57.0071 115.509 56.5355 115.364 55.9673 115.364C55.4219 115.364 54.9635 115.502 54.5923 115.778C54.2211 116.051 53.9408 116.434 53.7514 116.926C53.562 117.415 53.4673 117.985 53.4673 118.636ZM63.2401 111.364V123H61.8991V111.364H63.2401ZM69.3551 123.182C68.5142 123.182 67.7888 122.996 67.179 122.625C66.5729 122.25 66.1051 121.727 65.7756 121.057C65.4498 120.383 65.2869 119.598 65.2869 118.705C65.2869 117.811 65.4498 117.023 65.7756 116.341C66.1051 115.655 66.5634 115.121 67.1506 114.739C67.7415 114.352 68.4309 114.159 69.2188 114.159C69.6733 114.159 70.1222 114.235 70.5653 114.386C71.0085 114.538 71.4119 114.784 71.7756 115.125C72.1392 115.462 72.429 115.909 72.6449 116.466C72.8608 117.023 72.9688 117.708 72.9688 118.523V119.091H66.2415V117.932H71.6051C71.6051 117.439 71.5066 117 71.3097 116.614C71.1165 116.227 70.84 115.922 70.4801 115.699C70.1241 115.475 69.7036 115.364 69.2188 115.364C68.6847 115.364 68.2225 115.496 67.8324 115.761C67.446 116.023 67.1487 116.364 66.9403 116.784C66.732 117.205 66.6278 117.655 66.6278 118.136V118.909C66.6278 119.568 66.7415 120.127 66.9688 120.585C67.1998 121.04 67.5199 121.386 67.929 121.625C68.3381 121.86 68.8134 121.977 69.3551 121.977C69.7074 121.977 70.0256 121.928 70.3097 121.83C70.5975 121.727 70.8456 121.576 71.054 121.375C71.2623 121.17 71.4233 120.917 71.5369 120.614L72.8324 120.977C72.696 121.417 72.4669 121.803 72.1449 122.136C71.8229 122.466 71.4252 122.723 70.9517 122.909C70.4782 123.091 69.946 123.182 69.3551 123.182ZM82.0767 123.205C81.5237 123.205 81.0218 123.1 80.571 122.892C80.1203 122.68 79.7623 122.375 79.4972 121.977C79.232 121.576 79.0994 121.091 79.0994 120.523C79.0994 120.023 79.1979 119.617 79.3949 119.307C79.5919 118.992 79.8551 118.746 80.1847 118.568C80.5142 118.39 80.8778 118.258 81.2756 118.17C81.6771 118.08 82.0805 118.008 82.4858 117.955C83.0161 117.886 83.446 117.835 83.7756 117.801C84.1089 117.763 84.3513 117.701 84.5028 117.614C84.6581 117.527 84.7358 117.375 84.7358 117.159V117.114C84.7358 116.553 84.5824 116.117 84.2756 115.807C83.9725 115.496 83.5123 115.341 82.8949 115.341C82.2547 115.341 81.7528 115.481 81.3892 115.761C81.0256 116.042 80.7699 116.341 80.6222 116.659L79.3494 116.205C79.5767 115.674 79.8797 115.261 80.2585 114.966C80.6411 114.667 81.0578 114.458 81.5085 114.341C81.9631 114.22 82.41 114.159 82.8494 114.159C83.1297 114.159 83.4517 114.193 83.8153 114.261C84.1828 114.326 84.5369 114.46 84.8778 114.665C85.2225 114.869 85.5085 115.178 85.7358 115.591C85.9631 116.004 86.0767 116.557 86.0767 117.25V123H84.7358V121.818H84.6676C84.5767 122.008 84.4252 122.21 84.2131 122.426C84.0009 122.642 83.7188 122.826 83.3665 122.977C83.0142 123.129 82.5843 123.205 82.0767 123.205ZM82.2812 122C82.8116 122 83.2585 121.896 83.6222 121.688C83.9896 121.479 84.2661 121.21 84.4517 120.881C84.6411 120.551 84.7358 120.205 84.7358 119.841V118.614C84.679 118.682 84.554 118.744 84.3608 118.801C84.1714 118.854 83.9517 118.902 83.7017 118.943C83.4555 118.981 83.215 119.015 82.9801 119.045C82.7491 119.072 82.5616 119.095 82.4176 119.114C82.0691 119.159 81.7434 119.233 81.4403 119.335C81.1411 119.434 80.8987 119.583 80.7131 119.784C80.5313 119.981 80.4403 120.25 80.4403 120.591C80.4403 121.057 80.6127 121.409 80.9574 121.648C81.3059 121.883 81.7472 122 82.2812 122ZM88.5241 123V114.273H89.8196V115.591H89.9105C90.0696 115.159 90.3575 114.809 90.7741 114.54C91.1908 114.271 91.6605 114.136 92.1832 114.136C92.2817 114.136 92.4048 114.138 92.5526 114.142C92.7003 114.146 92.812 114.152 92.8878 114.159V115.523C92.8423 115.511 92.7382 115.494 92.5753 115.472C92.4162 115.445 92.2476 115.432 92.0696 115.432C91.6454 115.432 91.2666 115.521 90.9332 115.699C90.6037 115.873 90.3423 116.116 90.1491 116.426C89.9598 116.733 89.8651 117.083 89.8651 117.477V123H88.5241ZM97.7571 123.182C96.9692 123.182 96.2779 122.994 95.6832 122.619C95.0923 122.244 94.6302 121.72 94.2969 121.045C93.9673 120.371 93.8026 119.583 93.8026 118.682C93.8026 117.773 93.9673 116.979 94.2969 116.301C94.6302 115.623 95.0923 115.097 95.6832 114.722C96.2779 114.347 96.9692 114.159 97.7571 114.159C98.545 114.159 99.2344 114.347 99.8253 114.722C100.42 115.097 100.882 115.623 101.212 116.301C101.545 116.979 101.712 117.773 101.712 118.682C101.712 119.583 101.545 120.371 101.212 121.045C100.882 121.72 100.42 122.244 99.8253 122.619C99.2344 122.994 98.545 123.182 97.7571 123.182ZM97.7571 121.977C98.3556 121.977 98.848 121.824 99.2344 121.517C99.6207 121.21 99.9067 120.807 100.092 120.307C100.278 119.807 100.371 119.265 100.371 118.682C100.371 118.098 100.278 117.555 100.092 117.051C99.9067 116.547 99.6207 116.14 99.2344 115.83C98.848 115.519 98.3556 115.364 97.7571 115.364C97.1586 115.364 96.6662 115.519 96.2798 115.83C95.8935 116.14 95.6075 116.547 95.4219 117.051C95.2363 117.555 95.1435 118.098 95.1435 118.682C95.1435 119.265 95.2363 119.807 95.4219 120.307C95.6075 120.807 95.8935 121.21 96.2798 121.517C96.6662 121.824 97.1586 121.977 97.7571 121.977ZM109.259 119.432V114.273H110.599V123H109.259V121.523H109.168C108.963 121.966 108.645 122.343 108.213 122.653C107.781 122.96 107.236 123.114 106.577 123.114C106.031 123.114 105.546 122.994 105.122 122.756C104.698 122.513 104.365 122.15 104.122 121.665C103.88 121.176 103.759 120.561 103.759 119.818V114.273H105.099V119.727C105.099 120.364 105.277 120.871 105.634 121.25C105.993 121.629 106.452 121.818 107.009 121.818C107.342 121.818 107.681 121.733 108.026 121.562C108.374 121.392 108.666 121.131 108.901 120.778C109.139 120.426 109.259 119.977 109.259 119.432ZM114.396 117.75V123H113.055V114.273H114.351V115.636H114.464C114.669 115.193 114.98 114.837 115.396 114.568C115.813 114.295 116.351 114.159 117.01 114.159C117.601 114.159 118.118 114.28 118.561 114.523C119.004 114.761 119.349 115.125 119.595 115.614C119.841 116.098 119.964 116.712 119.964 117.455V123H118.624V117.545C118.624 116.86 118.446 116.326 118.089 115.943C117.733 115.557 117.245 115.364 116.624 115.364C116.196 115.364 115.813 115.456 115.476 115.642C115.143 115.828 114.879 116.098 114.686 116.455C114.493 116.811 114.396 117.242 114.396 117.75ZM125.71 123.182C124.983 123.182 124.341 122.998 123.784 122.631C123.227 122.259 122.792 121.737 122.477 121.062C122.163 120.384 122.006 119.583 122.006 118.659C122.006 117.742 122.163 116.947 122.477 116.273C122.792 115.598 123.229 115.078 123.79 114.71C124.35 114.343 124.998 114.159 125.733 114.159C126.301 114.159 126.75 114.254 127.08 114.443C127.413 114.629 127.667 114.841 127.841 115.08C128.019 115.314 128.157 115.508 128.256 115.659H128.369V111.364H129.71V123H128.415V121.659H128.256C128.157 121.818 128.017 122.019 127.835 122.261C127.653 122.5 127.394 122.714 127.057 122.903C126.72 123.089 126.271 123.182 125.71 123.182ZM125.892 121.977C126.43 121.977 126.884 121.837 127.256 121.557C127.627 121.273 127.909 120.881 128.102 120.381C128.295 119.877 128.392 119.295 128.392 118.636C128.392 117.985 128.297 117.415 128.108 116.926C127.919 116.434 127.638 116.051 127.267 115.778C126.896 115.502 126.438 115.364 125.892 115.364C125.324 115.364 124.85 115.509 124.472 115.801C124.097 116.089 123.814 116.481 123.625 116.977C123.439 117.47 123.347 118.023 123.347 118.636C123.347 119.258 123.441 119.822 123.631 120.33C123.824 120.833 124.108 121.235 124.483 121.534C124.862 121.83 125.331 121.977 125.892 121.977ZM136.852 123V114.273H138.148V115.636H138.261C138.443 115.17 138.737 114.809 139.142 114.551C139.547 114.29 140.034 114.159 140.602 114.159C141.178 114.159 141.657 114.29 142.04 114.551C142.426 114.809 142.727 115.17 142.943 115.636H143.034C143.258 115.186 143.593 114.828 144.04 114.562C144.487 114.294 145.023 114.159 145.648 114.159C146.428 114.159 147.066 114.403 147.562 114.892C148.059 115.377 148.307 116.133 148.307 117.159V123H146.966V117.159C146.966 116.515 146.79 116.055 146.438 115.778C146.085 115.502 145.67 115.364 145.193 115.364C144.58 115.364 144.104 115.549 143.767 115.92C143.43 116.288 143.261 116.754 143.261 117.318V123H141.898V117.023C141.898 116.527 141.737 116.127 141.415 115.824C141.093 115.517 140.678 115.364 140.17 115.364C139.822 115.364 139.496 115.456 139.193 115.642C138.894 115.828 138.652 116.085 138.466 116.415C138.284 116.741 138.193 117.117 138.193 117.545V123H136.852ZM154.418 123.182C153.577 123.182 152.851 122.996 152.241 122.625C151.635 122.25 151.168 121.727 150.838 121.057C150.512 120.383 150.349 119.598 150.349 118.705C150.349 117.811 150.512 117.023 150.838 116.341C151.168 115.655 151.626 115.121 152.213 114.739C152.804 114.352 153.493 114.159 154.281 114.159C154.736 114.159 155.185 114.235 155.628 114.386C156.071 114.538 156.474 114.784 156.838 115.125C157.202 115.462 157.491 115.909 157.707 116.466C157.923 117.023 158.031 117.708 158.031 118.523V119.091H151.304V117.932H156.668C156.668 117.439 156.569 117 156.372 116.614C156.179 116.227 155.902 115.922 155.543 115.699C155.187 115.475 154.766 115.364 154.281 115.364C153.747 115.364 153.285 115.496 152.895 115.761C152.509 116.023 152.211 116.364 152.003 116.784C151.795 117.205 151.69 117.655 151.69 118.136V118.909C151.69 119.568 151.804 120.127 152.031 120.585C152.262 121.04 152.582 121.386 152.991 121.625C153.401 121.86 153.876 121.977 154.418 121.977C154.77 121.977 155.088 121.928 155.372 121.83C155.66 121.727 155.908 121.576 156.116 121.375C156.325 121.17 156.486 120.917 156.599 120.614L157.895 120.977C157.759 121.417 157.529 121.803 157.207 122.136C156.885 122.466 156.488 122.723 156.014 122.909C155.541 123.091 155.009 123.182 154.418 123.182Z" fill="black"/>
<rect x="12" y="141" width="256" height="39" rx="8" fill="#FFF8F1"/>
<path d="M23.4091 166V154.364H24.8182V159.545H31.0227V154.364H32.4318V166H31.0227V160.795H24.8182V166H23.4091ZM38.6165 166.182C37.8286 166.182 37.1373 165.994 36.5426 165.619C35.9517 165.244 35.4896 164.72 35.1562 164.045C34.8267 163.371 34.6619 162.583 34.6619 161.682C34.6619 160.773 34.8267 159.979 35.1562 159.301C35.4896 158.623 35.9517 158.097 36.5426 157.722C37.1373 157.347 37.8286 157.159 38.6165 157.159C39.4044 157.159 40.0938 157.347 40.6847 157.722C41.2794 158.097 41.7415 158.623 42.071 159.301C42.4044 159.979 42.571 160.773 42.571 161.682C42.571 162.583 42.4044 163.371 42.071 164.045C41.7415 164.72 41.2794 165.244 40.6847 165.619C40.0938 165.994 39.4044 166.182 38.6165 166.182ZM38.6165 164.977C39.215 164.977 39.7074 164.824 40.0938 164.517C40.4801 164.21 40.7661 163.807 40.9517 163.307C41.1373 162.807 41.2301 162.265 41.2301 161.682C41.2301 161.098 41.1373 160.555 40.9517 160.051C40.7661 159.547 40.4801 159.14 40.0938 158.83C39.7074 158.519 39.215 158.364 38.6165 158.364C38.018 158.364 37.5256 158.519 37.1392 158.83C36.7528 159.14 36.4669 159.547 36.2812 160.051C36.0956 160.555 36.0028 161.098 36.0028 161.682C36.0028 162.265 36.0956 162.807 36.2812 163.307C36.4669 163.807 36.7528 164.21 37.1392 164.517C37.5256 164.824 38.018 164.977 38.6165 164.977ZM44.7997 166V154.364H46.1406V158.659H46.2543C46.3527 158.508 46.4891 158.314 46.6634 158.08C46.8414 157.841 47.0952 157.629 47.4247 157.443C47.758 157.254 48.2088 157.159 48.777 157.159C49.5118 157.159 50.1596 157.343 50.7202 157.71C51.2808 158.078 51.7183 158.598 52.0327 159.273C52.3471 159.947 52.5043 160.742 52.5043 161.659C52.5043 162.583 52.3471 163.384 52.0327 164.062C51.7183 164.737 51.2827 165.259 50.7259 165.631C50.169 165.998 49.527 166.182 48.7997 166.182C48.2391 166.182 47.7902 166.089 47.4531 165.903C47.116 165.714 46.8565 165.5 46.6747 165.261C46.4929 165.019 46.3527 164.818 46.2543 164.659H46.0952V166H44.7997ZM46.1179 161.636C46.1179 162.295 46.2145 162.877 46.4077 163.381C46.6009 163.881 46.883 164.273 47.2543 164.557C47.6255 164.837 48.08 164.977 48.6179 164.977C49.1785 164.977 49.6463 164.83 50.0213 164.534C50.4001 164.235 50.6842 163.833 50.8736 163.33C51.0668 162.822 51.1634 162.258 51.1634 161.636C51.1634 161.023 51.0687 160.47 50.8793 159.977C50.6937 159.481 50.4115 159.089 50.0327 158.801C49.6577 158.509 49.1861 158.364 48.6179 158.364C48.0724 158.364 47.6141 158.502 47.2429 158.778C46.8717 159.051 46.5914 159.434 46.402 159.926C46.2126 160.415 46.1179 160.985 46.1179 161.636ZM54.7372 166V154.364H56.0781V158.659H56.1918C56.2902 158.508 56.4266 158.314 56.6009 158.08C56.7789 157.841 57.0327 157.629 57.3622 157.443C57.6955 157.254 58.1463 157.159 58.7145 157.159C59.4493 157.159 60.0971 157.343 60.6577 157.71C61.2183 158.078 61.6558 158.598 61.9702 159.273C62.2846 159.947 62.4418 160.742 62.4418 161.659C62.4418 162.583 62.2846 163.384 61.9702 164.062C61.6558 164.737 61.2202 165.259 60.6634 165.631C60.1065 165.998 59.4645 166.182 58.7372 166.182C58.1766 166.182 57.7277 166.089 57.3906 165.903C57.0535 165.714 56.794 165.5 56.6122 165.261C56.4304 165.019 56.2902 164.818 56.1918 164.659H56.0327V166H54.7372ZM56.0554 161.636C56.0554 162.295 56.152 162.877 56.3452 163.381C56.5384 163.881 56.8205 164.273 57.1918 164.557C57.563 164.837 58.0175 164.977 58.5554 164.977C59.116 164.977 59.5838 164.83 59.9588 164.534C60.3376 164.235 60.6217 163.833 60.8111 163.33C61.0043 162.822 61.1009 162.258 61.1009 161.636C61.1009 161.023 61.0062 160.47 60.8168 159.977C60.6312 159.481 60.349 159.089 59.9702 158.801C59.5952 158.509 59.1236 158.364 58.5554 158.364C58.0099 158.364 57.5516 158.502 57.1804 158.778C56.8092 159.051 56.5289 159.434 56.3395 159.926C56.1501 160.415 56.0554 160.985 56.0554 161.636ZM64.4929 166V157.273H65.8338V166H64.4929ZM65.1747 155.818C64.9134 155.818 64.688 155.729 64.4986 155.551C64.313 155.373 64.2202 155.159 64.2202 154.909C64.2202 154.659 64.313 154.445 64.4986 154.267C64.688 154.089 64.9134 154 65.1747 154C65.4361 154 65.6596 154.089 65.8452 154.267C66.0346 154.445 66.1293 154.659 66.1293 154.909C66.1293 155.159 66.0346 155.373 65.8452 155.551C65.6596 155.729 65.4361 155.818 65.1747 155.818ZM71.9489 166.182C71.108 166.182 70.3826 165.996 69.7727 165.625C69.1667 165.25 68.6989 164.727 68.3693 164.057C68.0436 163.383 67.8807 162.598 67.8807 161.705C67.8807 160.811 68.0436 160.023 68.3693 159.341C68.6989 158.655 69.1572 158.121 69.7443 157.739C70.3352 157.352 71.0246 157.159 71.8125 157.159C72.267 157.159 72.7159 157.235 73.1591 157.386C73.6023 157.538 74.0057 157.784 74.3693 158.125C74.733 158.462 75.0227 158.909 75.2386 159.466C75.4545 160.023 75.5625 160.708 75.5625 161.523V162.091H68.8352V160.932H74.1989C74.1989 160.439 74.1004 160 73.9034 159.614C73.7102 159.227 73.4337 158.922 73.0739 158.699C72.7178 158.475 72.2973 158.364 71.8125 158.364C71.2784 158.364 70.8163 158.496 70.4261 158.761C70.0398 159.023 69.7424 159.364 69.5341 159.784C69.3258 160.205 69.2216 160.655 69.2216 161.136V161.909C69.2216 162.568 69.3352 163.127 69.5625 163.585C69.7936 164.04 70.1136 164.386 70.5227 164.625C70.9318 164.86 71.4072 164.977 71.9489 164.977C72.3011 164.977 72.6193 164.928 72.9034 164.83C73.1913 164.727 73.4394 164.576 73.6477 164.375C73.8561 164.17 74.017 163.917 74.1307 163.614L75.4261 163.977C75.2898 164.417 75.0606 164.803 74.7386 165.136C74.4167 165.466 74.0189 165.723 73.5455 165.909C73.072 166.091 72.5398 166.182 71.9489 166.182ZM83.7841 159.227L82.5795 159.568C82.5038 159.367 82.392 159.172 82.2443 158.983C82.1004 158.79 81.9034 158.631 81.6534 158.506C81.4034 158.381 81.0833 158.318 80.6932 158.318C80.1591 158.318 79.714 158.441 79.358 158.688C79.0057 158.93 78.8295 159.239 78.8295 159.614C78.8295 159.947 78.9508 160.21 79.1932 160.403C79.4356 160.597 79.8144 160.758 80.3295 160.886L81.625 161.205C82.4053 161.394 82.9867 161.684 83.3693 162.074C83.7519 162.46 83.9432 162.958 83.9432 163.568C83.9432 164.068 83.7992 164.515 83.5114 164.909C83.2273 165.303 82.8295 165.614 82.3182 165.841C81.8068 166.068 81.2121 166.182 80.5341 166.182C79.6439 166.182 78.9072 165.989 78.3239 165.602C77.7405 165.216 77.3712 164.652 77.2159 163.909L78.4886 163.591C78.6098 164.061 78.839 164.413 79.1761 164.648C79.517 164.883 79.9621 165 80.5114 165C81.1364 165 81.6326 164.867 82 164.602C82.3712 164.333 82.5568 164.011 82.5568 163.636C82.5568 163.333 82.4508 163.08 82.2386 162.875C82.0265 162.667 81.7008 162.511 81.2614 162.409L79.8068 162.068C79.0076 161.879 78.4205 161.585 78.0455 161.188C77.6742 160.786 77.4886 160.284 77.4886 159.682C77.4886 159.189 77.6269 158.754 77.9034 158.375C78.1837 157.996 78.5644 157.699 79.0455 157.483C79.5303 157.267 80.0795 157.159 80.6932 157.159C81.5568 157.159 82.2348 157.348 82.7273 157.727C83.2235 158.106 83.5758 158.606 83.7841 159.227ZM93.7571 166.159C92.992 166.159 92.3329 166.019 91.7798 165.739C91.2268 165.458 90.8007 165.074 90.5014 164.585C90.2022 164.097 90.0526 163.538 90.0526 162.909C90.0526 162.424 90.1548 161.994 90.3594 161.619C90.5677 161.241 90.8537 160.89 91.2173 160.568C91.5848 160.242 92.0071 159.917 92.4844 159.591L94.1662 158.341C94.4957 158.125 94.759 157.894 94.956 157.648C95.1567 157.402 95.2571 157.08 95.2571 156.682C95.2571 156.386 95.1264 156.1 94.8651 155.824C94.6075 155.547 94.2685 155.409 93.848 155.409C93.5526 155.409 93.2912 155.485 93.0639 155.636C92.8404 155.784 92.6643 155.973 92.5355 156.205C92.4105 156.432 92.348 156.667 92.348 156.909C92.348 157.182 92.4219 157.458 92.5696 157.739C92.7211 158.015 92.9124 158.299 93.1435 158.591C93.3783 158.879 93.6207 159.174 93.8707 159.477L99.2116 166H97.598L93.1889 160.682C92.7798 160.189 92.4086 159.742 92.0753 159.341C91.742 158.939 91.4768 158.544 91.2798 158.153C91.0829 157.763 90.9844 157.341 90.9844 156.886C90.9844 156.364 91.0999 155.905 91.331 155.511C91.5658 155.114 91.8935 154.805 92.3139 154.585C92.7382 154.362 93.2344 154.25 93.8026 154.25C94.3859 154.25 94.8878 154.364 95.3082 154.591C95.7287 154.814 96.0526 155.112 96.2798 155.483C96.5071 155.85 96.6207 156.25 96.6207 156.682C96.6207 157.239 96.4825 157.722 96.206 158.131C95.9295 158.54 95.5526 158.92 95.0753 159.273L92.7571 161C92.2344 161.386 91.8802 161.761 91.6946 162.125C91.509 162.489 91.4162 162.75 91.4162 162.909C91.4162 163.273 91.5109 163.612 91.7003 163.926C91.8897 164.241 92.1567 164.494 92.5014 164.688C92.8461 164.881 93.2495 164.977 93.7116 164.977C94.151 164.977 94.5791 164.884 94.9957 164.699C95.4124 164.509 95.7893 164.237 96.1264 163.881C96.4673 163.525 96.7363 163.097 96.9332 162.597C97.134 162.097 97.2344 161.534 97.2344 160.909H98.5298C98.5298 161.682 98.4408 162.312 98.2628 162.801C98.0848 163.29 97.884 163.672 97.6605 163.949C97.437 164.225 97.2571 164.432 97.1207 164.568C97.0753 164.625 97.0336 164.682 96.9957 164.739C96.9579 164.795 96.9162 164.852 96.8707 164.909C96.4957 165.33 96.0223 165.644 95.4503 165.852C94.8783 166.057 94.3139 166.159 93.7571 166.159ZM105.196 166V157.273H106.537V166H105.196ZM105.878 155.818C105.616 155.818 105.391 155.729 105.202 155.551C105.016 155.373 104.923 155.159 104.923 154.909C104.923 154.659 105.016 154.445 105.202 154.267C105.391 154.089 105.616 154 105.878 154C106.139 154 106.363 154.089 106.548 154.267C106.738 154.445 106.832 154.659 106.832 154.909C106.832 155.159 106.738 155.373 106.548 155.551C106.363 155.729 106.139 155.818 105.878 155.818ZM110.334 160.75V166H108.993V157.273H110.288V158.636H110.402C110.607 158.193 110.917 157.837 111.334 157.568C111.75 157.295 112.288 157.159 112.947 157.159C113.538 157.159 114.055 157.28 114.499 157.523C114.942 157.761 115.286 158.125 115.533 158.614C115.779 159.098 115.902 159.712 115.902 160.455V166H114.561V160.545C114.561 159.86 114.383 159.326 114.027 158.943C113.671 158.557 113.182 158.364 112.561 158.364C112.133 158.364 111.75 158.456 111.413 158.642C111.08 158.828 110.817 159.098 110.624 159.455C110.43 159.811 110.334 160.242 110.334 160.75ZM122.148 157.273V158.409H117.625V157.273H122.148ZM118.943 155.182H120.284V163.5C120.284 163.879 120.339 164.163 120.449 164.352C120.563 164.538 120.706 164.663 120.881 164.727C121.059 164.788 121.246 164.818 121.443 164.818C121.591 164.818 121.712 164.811 121.807 164.795C121.902 164.777 121.977 164.761 122.034 164.75L122.307 165.955C122.216 165.989 122.089 166.023 121.926 166.057C121.763 166.095 121.557 166.114 121.307 166.114C120.928 166.114 120.557 166.032 120.193 165.869C119.833 165.706 119.534 165.458 119.295 165.125C119.061 164.792 118.943 164.371 118.943 163.864V155.182ZM127.73 166.182C126.889 166.182 126.164 165.996 125.554 165.625C124.948 165.25 124.48 164.727 124.151 164.057C123.825 163.383 123.662 162.598 123.662 161.705C123.662 160.811 123.825 160.023 124.151 159.341C124.48 158.655 124.938 158.121 125.526 157.739C126.116 157.352 126.806 157.159 127.594 157.159C128.048 157.159 128.497 157.235 128.94 157.386C129.384 157.538 129.787 157.784 130.151 158.125C130.514 158.462 130.804 158.909 131.02 159.466C131.236 160.023 131.344 160.708 131.344 161.523V162.091H124.616V160.932H129.98C129.98 160.439 129.882 160 129.685 159.614C129.491 159.227 129.215 158.922 128.855 158.699C128.499 158.475 128.079 158.364 127.594 158.364C127.06 158.364 126.598 158.496 126.207 158.761C125.821 159.023 125.524 159.364 125.315 159.784C125.107 160.205 125.003 160.655 125.003 161.136V161.909C125.003 162.568 125.116 163.127 125.344 163.585C125.575 164.04 125.895 164.386 126.304 164.625C126.713 164.86 127.188 164.977 127.73 164.977C128.082 164.977 128.401 164.928 128.685 164.83C128.973 164.727 129.221 164.576 129.429 164.375C129.637 164.17 129.798 163.917 129.912 163.614L131.207 163.977C131.071 164.417 130.842 164.803 130.52 165.136C130.198 165.466 129.8 165.723 129.327 165.909C128.853 166.091 128.321 166.182 127.73 166.182ZM133.384 166V157.273H134.679V158.591H134.77C134.929 158.159 135.217 157.809 135.634 157.54C136.05 157.271 136.52 157.136 137.043 157.136C137.141 157.136 137.264 157.138 137.412 157.142C137.56 157.146 137.671 157.152 137.747 157.159V158.523C137.702 158.511 137.598 158.494 137.435 158.472C137.276 158.445 137.107 158.432 136.929 158.432C136.505 158.432 136.126 158.521 135.793 158.699C135.463 158.873 135.202 159.116 135.009 159.426C134.819 159.733 134.724 160.083 134.724 160.477V166H133.384ZM142.73 166.182C141.889 166.182 141.164 165.996 140.554 165.625C139.948 165.25 139.48 164.727 139.151 164.057C138.825 163.383 138.662 162.598 138.662 161.705C138.662 160.811 138.825 160.023 139.151 159.341C139.48 158.655 139.938 158.121 140.526 157.739C141.116 157.352 141.806 157.159 142.594 157.159C143.048 157.159 143.497 157.235 143.94 157.386C144.384 157.538 144.787 157.784 145.151 158.125C145.514 158.462 145.804 158.909 146.02 159.466C146.236 160.023 146.344 160.708 146.344 161.523V162.091H139.616V160.932H144.98C144.98 160.439 144.882 160 144.685 159.614C144.491 159.227 144.215 158.922 143.855 158.699C143.499 158.475 143.079 158.364 142.594 158.364C142.06 158.364 141.598 158.496 141.207 158.761C140.821 159.023 140.524 159.364 140.315 159.784C140.107 160.205 140.003 160.655 140.003 161.136V161.909C140.003 162.568 140.116 163.127 140.344 163.585C140.575 164.04 140.895 164.386 141.304 164.625C141.713 164.86 142.188 164.977 142.73 164.977C143.082 164.977 143.401 164.928 143.685 164.83C143.973 164.727 144.221 164.576 144.429 164.375C144.637 164.17 144.798 163.917 144.912 163.614L146.207 163.977C146.071 164.417 145.842 164.803 145.52 165.136C145.198 165.466 144.8 165.723 144.327 165.909C143.853 166.091 143.321 166.182 142.73 166.182ZM154.565 159.227L153.361 159.568C153.285 159.367 153.173 159.172 153.026 158.983C152.882 158.79 152.685 158.631 152.435 158.506C152.185 158.381 151.865 158.318 151.474 158.318C150.94 158.318 150.495 158.441 150.139 158.688C149.787 158.93 149.611 159.239 149.611 159.614C149.611 159.947 149.732 160.21 149.974 160.403C150.217 160.597 150.596 160.758 151.111 160.886L152.406 161.205C153.187 161.394 153.768 161.684 154.151 162.074C154.533 162.46 154.724 162.958 154.724 163.568C154.724 164.068 154.58 164.515 154.293 164.909C154.009 165.303 153.611 165.614 153.099 165.841C152.588 166.068 151.993 166.182 151.315 166.182C150.425 166.182 149.688 165.989 149.105 165.602C148.522 165.216 148.152 164.652 147.997 163.909L149.27 163.591C149.391 164.061 149.62 164.413 149.957 164.648C150.298 164.883 150.743 165 151.293 165C151.918 165 152.414 164.867 152.781 164.602C153.152 164.333 153.338 164.011 153.338 163.636C153.338 163.333 153.232 163.08 153.02 162.875C152.808 162.667 152.482 162.511 152.043 162.409L150.588 162.068C149.789 161.879 149.202 161.585 148.827 161.188C148.455 160.786 148.27 160.284 148.27 159.682C148.27 159.189 148.408 158.754 148.685 158.375C148.965 157.996 149.346 157.699 149.827 157.483C150.312 157.267 150.861 157.159 151.474 157.159C152.338 157.159 153.016 157.348 153.509 157.727C154.005 158.106 154.357 158.606 154.565 159.227ZM160.538 157.273V158.409H156.016V157.273H160.538ZM157.334 155.182H158.675V163.5C158.675 163.879 158.73 164.163 158.839 164.352C158.953 164.538 159.097 164.663 159.271 164.727C159.449 164.788 159.637 164.818 159.834 164.818C159.982 164.818 160.103 164.811 160.197 164.795C160.292 164.777 160.368 164.761 160.425 164.75L160.697 165.955C160.607 165.989 160.48 166.023 160.317 166.057C160.154 166.095 159.947 166.114 159.697 166.114C159.319 166.114 158.947 166.032 158.584 165.869C158.224 165.706 157.925 165.458 157.686 165.125C157.451 164.792 157.334 164.371 157.334 163.864V155.182ZM168.581 159.227L167.376 159.568C167.301 159.367 167.189 159.172 167.041 158.983C166.897 158.79 166.7 158.631 166.45 158.506C166.2 158.381 165.88 158.318 165.49 158.318C164.956 158.318 164.511 158.441 164.155 158.688C163.803 158.93 163.626 159.239 163.626 159.614C163.626 159.947 163.748 160.21 163.99 160.403C164.232 160.597 164.611 160.758 165.126 160.886L166.422 161.205C167.202 161.394 167.784 161.684 168.166 162.074C168.549 162.46 168.74 162.958 168.74 163.568C168.74 164.068 168.596 164.515 168.308 164.909C168.024 165.303 167.626 165.614 167.115 165.841C166.604 166.068 166.009 166.182 165.331 166.182C164.441 166.182 163.704 165.989 163.121 165.602C162.537 165.216 162.168 164.652 162.013 163.909L163.286 163.591C163.407 164.061 163.636 164.413 163.973 164.648C164.314 164.883 164.759 165 165.308 165C165.933 165 166.429 164.867 166.797 164.602C167.168 164.333 167.354 164.011 167.354 163.636C167.354 163.333 167.248 163.08 167.036 162.875C166.823 162.667 166.498 162.511 166.058 162.409L164.604 162.068C163.804 161.879 163.217 161.585 162.842 161.188C162.471 160.786 162.286 160.284 162.286 159.682C162.286 159.189 162.424 158.754 162.7 158.375C162.981 157.996 163.361 157.699 163.842 157.483C164.327 157.267 164.876 157.159 165.49 157.159C166.354 157.159 167.032 157.348 167.524 157.727C168.02 158.106 168.373 158.606 168.581 159.227Z" fill="black"/>
<rect x="12" y="184" width="256" height="39" rx="8" fill="#FFF8F1"/>
<path d="M25.5227 209L22.3409 197.364H23.7727L26.2045 206.841H26.3182L28.7955 197.364H30.3864L32.8636 206.841H32.9773L35.4091 197.364H36.8409L33.6591 209H32.2045L29.6364 199.727H29.5455L26.9773 209H25.5227ZM39.7557 203.75V209H38.4148V197.364H39.7557V201.636H39.8693C40.0739 201.186 40.3807 200.828 40.7898 200.562C41.2027 200.294 41.7519 200.159 42.4375 200.159C43.0322 200.159 43.553 200.278 44 200.517C44.447 200.752 44.7936 201.114 45.0398 201.602C45.2898 202.087 45.4148 202.705 45.4148 203.455V209H44.0739V203.545C44.0739 202.852 43.8939 202.316 43.5341 201.938C43.178 201.555 42.6837 201.364 42.0511 201.364C41.6117 201.364 41.2178 201.456 40.8693 201.642C40.5246 201.828 40.2519 202.098 40.0511 202.455C39.8542 202.811 39.7557 203.242 39.7557 203.75ZM50.4361 209.205C49.883 209.205 49.3812 209.1 48.9304 208.892C48.4796 208.68 48.1217 208.375 47.8565 207.977C47.5914 207.576 47.4588 207.091 47.4588 206.523C47.4588 206.023 47.5573 205.617 47.7543 205.307C47.9512 204.992 48.2145 204.746 48.544 204.568C48.8736 204.39 49.2372 204.258 49.6349 204.17C50.0365 204.08 50.4399 204.008 50.8452 203.955C51.3755 203.886 51.8054 203.835 52.1349 203.801C52.4683 203.763 52.7107 203.701 52.8622 203.614C53.0175 203.527 53.0952 203.375 53.0952 203.159V203.114C53.0952 202.553 52.9418 202.117 52.6349 201.807C52.3319 201.496 51.8717 201.341 51.2543 201.341C50.6141 201.341 50.1122 201.481 49.7486 201.761C49.3849 202.042 49.1293 202.341 48.9815 202.659L47.7088 202.205C47.9361 201.674 48.2391 201.261 48.6179 200.966C49.0005 200.667 49.4171 200.458 49.8679 200.341C50.3224 200.22 50.7694 200.159 51.2088 200.159C51.4891 200.159 51.8111 200.193 52.1747 200.261C52.5421 200.326 52.8963 200.46 53.2372 200.665C53.5819 200.869 53.8679 201.178 54.0952 201.591C54.3224 202.004 54.4361 202.557 54.4361 203.25V209H53.0952V207.818H53.027C52.9361 208.008 52.7846 208.21 52.5724 208.426C52.3603 208.642 52.0781 208.826 51.7259 208.977C51.3736 209.129 50.9437 209.205 50.4361 209.205ZM50.6406 208C51.1709 208 51.6179 207.896 51.9815 207.688C52.349 207.479 52.6255 207.21 52.8111 206.881C53.0005 206.551 53.0952 206.205 53.0952 205.841V204.614C53.0384 204.682 52.9134 204.744 52.7202 204.801C52.5308 204.854 52.3111 204.902 52.0611 204.943C51.8149 204.981 51.5743 205.015 51.3395 205.045C51.1084 205.072 50.9209 205.095 50.777 205.114C50.4285 205.159 50.1027 205.233 49.7997 205.335C49.5005 205.434 49.258 205.583 49.0724 205.784C48.8906 205.981 48.7997 206.25 48.7997 206.591C48.7997 207.057 48.9721 207.409 49.3168 207.648C49.6652 207.883 50.1065 208 50.6406 208ZM60.679 200.273V201.409H56.1562V200.273H60.679ZM57.4744 198.182H58.8153V206.5C58.8153 206.879 58.8703 207.163 58.9801 207.352C59.0938 207.538 59.2377 207.663 59.4119 207.727C59.59 207.788 59.7775 207.818 59.9744 207.818C60.1222 207.818 60.2434 207.811 60.3381 207.795C60.4328 207.777 60.5085 207.761 60.5653 207.75L60.8381 208.955C60.7472 208.989 60.6203 209.023 60.4574 209.057C60.2945 209.095 60.0881 209.114 59.8381 209.114C59.4593 209.114 59.0881 209.032 58.7244 208.869C58.3646 208.706 58.0653 208.458 57.8267 208.125C57.5919 207.792 57.4744 207.371 57.4744 206.864V198.182ZM67.196 209V200.273H68.4915V201.636H68.6051C68.7869 201.17 69.0805 200.809 69.4858 200.551C69.8911 200.29 70.3778 200.159 70.946 200.159C71.5218 200.159 72.0009 200.29 72.3835 200.551C72.7699 200.809 73.071 201.17 73.2869 201.636H73.3778C73.6013 201.186 73.9366 200.828 74.3835 200.562C74.8305 200.294 75.3665 200.159 75.9915 200.159C76.7718 200.159 77.41 200.403 77.9062 200.892C78.4025 201.377 78.6506 202.133 78.6506 203.159V209H77.3097V203.159C77.3097 202.515 77.1335 202.055 76.7812 201.778C76.429 201.502 76.0142 201.364 75.5369 201.364C74.9233 201.364 74.4479 201.549 74.1108 201.92C73.7737 202.288 73.6051 202.754 73.6051 203.318V209H72.2415V203.023C72.2415 202.527 72.0805 202.127 71.7585 201.824C71.4366 201.517 71.0218 201.364 70.5142 201.364C70.1657 201.364 69.84 201.456 69.5369 201.642C69.2377 201.828 68.9953 202.085 68.8097 202.415C68.6278 202.741 68.5369 203.117 68.5369 203.545V209H67.196ZM83.6705 209.205C83.1174 209.205 82.6155 209.1 82.1648 208.892C81.714 208.68 81.3561 208.375 81.0909 207.977C80.8258 207.576 80.6932 207.091 80.6932 206.523C80.6932 206.023 80.7917 205.617 80.9886 205.307C81.1856 204.992 81.4489 204.746 81.7784 204.568C82.108 204.39 82.4716 204.258 82.8693 204.17C83.2708 204.08 83.6742 204.008 84.0795 203.955C84.6098 203.886 85.0398 203.835 85.3693 203.801C85.7027 203.763 85.9451 203.701 86.0966 203.614C86.2519 203.527 86.3295 203.375 86.3295 203.159V203.114C86.3295 202.553 86.1761 202.117 85.8693 201.807C85.5663 201.496 85.1061 201.341 84.4886 201.341C83.8485 201.341 83.3466 201.481 82.983 201.761C82.6193 202.042 82.3636 202.341 82.2159 202.659L80.9432 202.205C81.1705 201.674 81.4735 201.261 81.8523 200.966C82.2348 200.667 82.6515 200.458 83.1023 200.341C83.5568 200.22 84.0038 200.159 84.4432 200.159C84.7235 200.159 85.0455 200.193 85.4091 200.261C85.7765 200.326 86.1307 200.46 86.4716 200.665C86.8163 200.869 87.1023 201.178 87.3295 201.591C87.5568 202.004 87.6705 202.557 87.6705 203.25V209H86.3295V207.818H86.2614C86.1705 208.008 86.0189 208.21 85.8068 208.426C85.5947 208.642 85.3125 208.826 84.9602 208.977C84.608 209.129 84.178 209.205 83.6705 209.205ZM83.875 208C84.4053 208 84.8523 207.896 85.2159 207.688C85.5833 207.479 85.8598 207.21 86.0455 206.881C86.2348 206.551 86.3295 206.205 86.3295 205.841V204.614C86.2727 204.682 86.1477 204.744 85.9545 204.801C85.7652 204.854 85.5455 204.902 85.2955 204.943C85.0492 204.981 84.8087 205.015 84.5739 205.045C84.3428 205.072 84.1553 205.095 84.0114 205.114C83.6629 205.159 83.3371 205.233 83.0341 205.335C82.7348 205.434 82.4924 205.583 82.3068 205.784C82.125 205.981 82.0341 206.25 82.0341 206.591C82.0341 207.057 82.2064 207.409 82.5511 207.648C82.8996 207.883 83.3409 208 83.875 208ZM91.3679 205.818L91.3452 204.159H91.6179L95.4361 200.273H97.0952L93.027 204.386H92.9134L91.3679 205.818ZM90.1179 209V197.364H91.4588V209H90.1179ZM95.6634 209L92.2543 204.682L93.2088 203.75L97.3679 209H95.6634ZM102.121 209.182C101.28 209.182 100.554 208.996 99.9446 208.625C99.3385 208.25 98.8707 207.727 98.5412 207.057C98.2154 206.383 98.0526 205.598 98.0526 204.705C98.0526 203.811 98.2154 203.023 98.5412 202.341C98.8707 201.655 99.3291 201.121 99.9162 200.739C100.507 200.352 101.196 200.159 101.984 200.159C102.439 200.159 102.888 200.235 103.331 200.386C103.774 200.538 104.178 200.784 104.541 201.125C104.905 201.462 105.195 201.909 105.411 202.466C105.626 203.023 105.734 203.708 105.734 204.523V205.091H99.0071V203.932H104.371C104.371 203.439 104.272 203 104.075 202.614C103.882 202.227 103.606 201.922 103.246 201.699C102.89 201.475 102.469 201.364 101.984 201.364C101.45 201.364 100.988 201.496 100.598 201.761C100.212 202.023 99.9143 202.364 99.706 202.784C99.4976 203.205 99.3935 203.655 99.3935 204.136V204.909C99.3935 205.568 99.5071 206.127 99.7344 206.585C99.9654 207.04 100.286 207.386 100.695 207.625C101.104 207.86 101.579 207.977 102.121 207.977C102.473 207.977 102.791 207.928 103.075 207.83C103.363 207.727 103.611 207.576 103.82 207.375C104.028 207.17 104.189 206.917 104.303 206.614L105.598 206.977C105.462 207.417 105.232 207.803 104.911 208.136C104.589 208.466 104.191 208.723 103.717 208.909C103.244 209.091 102.712 209.182 102.121 209.182ZM113.956 202.227L112.751 202.568C112.676 202.367 112.564 202.172 112.416 201.983C112.272 201.79 112.075 201.631 111.825 201.506C111.575 201.381 111.255 201.318 110.865 201.318C110.331 201.318 109.886 201.441 109.53 201.688C109.178 201.93 109.001 202.239 109.001 202.614C109.001 202.947 109.123 203.21 109.365 203.403C109.607 203.597 109.986 203.758 110.501 203.886L111.797 204.205C112.577 204.394 113.159 204.684 113.541 205.074C113.924 205.46 114.115 205.958 114.115 206.568C114.115 207.068 113.971 207.515 113.683 207.909C113.399 208.303 113.001 208.614 112.49 208.841C111.979 209.068 111.384 209.182 110.706 209.182C109.816 209.182 109.079 208.989 108.496 208.602C107.912 208.216 107.543 207.652 107.388 206.909L108.661 206.591C108.782 207.061 109.011 207.413 109.348 207.648C109.689 207.883 110.134 208 110.683 208C111.308 208 111.804 207.867 112.172 207.602C112.543 207.333 112.729 207.011 112.729 206.636C112.729 206.333 112.623 206.08 112.411 205.875C112.198 205.667 111.873 205.511 111.433 205.409L109.979 205.068C109.179 204.879 108.592 204.585 108.217 204.188C107.846 203.786 107.661 203.284 107.661 202.682C107.661 202.189 107.799 201.754 108.075 201.375C108.356 200.996 108.736 200.699 109.217 200.483C109.702 200.267 110.251 200.159 110.865 200.159C111.729 200.159 112.407 200.348 112.899 200.727C113.395 201.106 113.748 201.606 113.956 202.227ZM120.634 209V200.273H121.929V201.636H122.043C122.224 201.17 122.518 200.809 122.923 200.551C123.329 200.29 123.815 200.159 124.384 200.159C124.959 200.159 125.438 200.29 125.821 200.551C126.207 200.809 126.509 201.17 126.724 201.636H126.815C127.039 201.186 127.374 200.828 127.821 200.562C128.268 200.294 128.804 200.159 129.429 200.159C130.209 200.159 130.848 200.403 131.344 200.892C131.84 201.377 132.088 202.133 132.088 203.159V209H130.747V203.159C130.747 202.515 130.571 202.055 130.219 201.778C129.866 201.502 129.452 201.364 128.974 201.364C128.361 201.364 127.885 201.549 127.548 201.92C127.211 202.288 127.043 202.754 127.043 203.318V209H125.679V203.023C125.679 202.527 125.518 202.127 125.196 201.824C124.874 201.517 124.459 201.364 123.952 201.364C123.603 201.364 123.277 201.456 122.974 201.642C122.675 201.828 122.433 202.085 122.247 202.415C122.065 202.741 121.974 203.117 121.974 203.545V209H120.634ZM138.199 209.182C137.358 209.182 136.633 208.996 136.023 208.625C135.417 208.25 134.949 207.727 134.619 207.057C134.294 206.383 134.131 205.598 134.131 204.705C134.131 203.811 134.294 203.023 134.619 202.341C134.949 201.655 135.407 201.121 135.994 200.739C136.585 200.352 137.275 200.159 138.062 200.159C138.517 200.159 138.966 200.235 139.409 200.386C139.852 200.538 140.256 200.784 140.619 201.125C140.983 201.462 141.273 201.909 141.489 202.466C141.705 203.023 141.812 203.708 141.812 204.523V205.091H135.085V203.932H140.449C140.449 203.439 140.35 203 140.153 202.614C139.96 202.227 139.684 201.922 139.324 201.699C138.968 201.475 138.547 201.364 138.062 201.364C137.528 201.364 137.066 201.496 136.676 201.761C136.29 202.023 135.992 202.364 135.784 202.784C135.576 203.205 135.472 203.655 135.472 204.136V204.909C135.472 205.568 135.585 206.127 135.812 206.585C136.044 207.04 136.364 207.386 136.773 207.625C137.182 207.86 137.657 207.977 138.199 207.977C138.551 207.977 138.869 207.928 139.153 207.83C139.441 207.727 139.689 207.576 139.898 207.375C140.106 207.17 140.267 206.917 140.381 206.614L141.676 206.977C141.54 207.417 141.311 207.803 140.989 208.136C140.667 208.466 140.269 208.723 139.795 208.909C139.322 209.091 138.79 209.182 138.199 209.182ZM148.352 212.273V200.273H149.648V201.659H149.807C149.905 201.508 150.042 201.314 150.216 201.08C150.394 200.841 150.648 200.629 150.977 200.443C151.311 200.254 151.761 200.159 152.33 200.159C153.064 200.159 153.712 200.343 154.273 200.71C154.833 201.078 155.271 201.598 155.585 202.273C155.9 202.947 156.057 203.742 156.057 204.659C156.057 205.583 155.9 206.384 155.585 207.062C155.271 207.737 154.835 208.259 154.278 208.631C153.722 208.998 153.08 209.182 152.352 209.182C151.792 209.182 151.343 209.089 151.006 208.903C150.669 208.714 150.409 208.5 150.227 208.261C150.045 208.019 149.905 207.818 149.807 207.659H149.693V212.273H148.352ZM149.67 204.636C149.67 205.295 149.767 205.877 149.96 206.381C150.153 206.881 150.436 207.273 150.807 207.557C151.178 207.837 151.633 207.977 152.17 207.977C152.731 207.977 153.199 207.83 153.574 207.534C153.953 207.235 154.237 206.833 154.426 206.33C154.619 205.822 154.716 205.258 154.716 204.636C154.716 204.023 154.621 203.47 154.432 202.977C154.246 202.481 153.964 202.089 153.585 201.801C153.21 201.509 152.739 201.364 152.17 201.364C151.625 201.364 151.167 201.502 150.795 201.778C150.424 202.051 150.144 202.434 149.955 202.926C149.765 203.415 149.67 203.985 149.67 204.636ZM158.102 209V200.273H159.398V201.591H159.489C159.648 201.159 159.936 200.809 160.352 200.54C160.769 200.271 161.239 200.136 161.761 200.136C161.86 200.136 161.983 200.138 162.131 200.142C162.278 200.146 162.39 200.152 162.466 200.159V201.523C162.42 201.511 162.316 201.494 162.153 201.472C161.994 201.445 161.826 201.432 161.648 201.432C161.223 201.432 160.845 201.521 160.511 201.699C160.182 201.873 159.92 202.116 159.727 202.426C159.538 202.733 159.443 203.083 159.443 203.477V209H158.102ZM167.335 209.182C166.547 209.182 165.856 208.994 165.261 208.619C164.67 208.244 164.208 207.72 163.875 207.045C163.545 206.371 163.381 205.583 163.381 204.682C163.381 203.773 163.545 202.979 163.875 202.301C164.208 201.623 164.67 201.097 165.261 200.722C165.856 200.347 166.547 200.159 167.335 200.159C168.123 200.159 168.813 200.347 169.403 200.722C169.998 201.097 170.46 201.623 170.79 202.301C171.123 202.979 171.29 203.773 171.29 204.682C171.29 205.583 171.123 206.371 170.79 207.045C170.46 207.72 169.998 208.244 169.403 208.619C168.813 208.994 168.123 209.182 167.335 209.182ZM167.335 207.977C167.934 207.977 168.426 207.824 168.812 207.517C169.199 207.21 169.485 206.807 169.67 206.307C169.856 205.807 169.949 205.265 169.949 204.682C169.949 204.098 169.856 203.555 169.67 203.051C169.485 202.547 169.199 202.14 168.812 201.83C168.426 201.519 167.934 201.364 167.335 201.364C166.737 201.364 166.244 201.519 165.858 201.83C165.472 202.14 165.186 202.547 165 203.051C164.814 203.555 164.722 204.098 164.722 204.682C164.722 205.265 164.814 205.807 165 206.307C165.186 206.807 165.472 207.21 165.858 207.517C166.244 207.824 166.737 207.977 167.335 207.977ZM178.837 205.432V200.273H180.178V209H178.837V207.523H178.746C178.541 207.966 178.223 208.343 177.791 208.653C177.359 208.96 176.814 209.114 176.155 209.114C175.609 209.114 175.125 208.994 174.7 208.756C174.276 208.513 173.943 208.15 173.7 207.665C173.458 207.176 173.337 206.561 173.337 205.818V200.273H174.678V205.727C174.678 206.364 174.856 206.871 175.212 207.25C175.571 207.629 176.03 207.818 176.587 207.818C176.92 207.818 177.259 207.733 177.604 207.562C177.952 207.392 178.244 207.131 178.479 206.778C178.717 206.426 178.837 205.977 178.837 205.432ZM185.929 209.182C185.202 209.182 184.56 208.998 184.003 208.631C183.446 208.259 183.01 207.737 182.696 207.062C182.382 206.384 182.224 205.583 182.224 204.659C182.224 203.742 182.382 202.947 182.696 202.273C183.01 201.598 183.448 201.078 184.009 200.71C184.569 200.343 185.217 200.159 185.952 200.159C186.52 200.159 186.969 200.254 187.298 200.443C187.632 200.629 187.885 200.841 188.06 201.08C188.238 201.314 188.376 201.508 188.474 201.659H188.588V197.364H189.929V209H188.634V207.659H188.474C188.376 207.818 188.236 208.019 188.054 208.261C187.872 208.5 187.613 208.714 187.276 208.903C186.938 209.089 186.49 209.182 185.929 209.182ZM186.111 207.977C186.649 207.977 187.103 207.837 187.474 207.557C187.846 207.273 188.128 206.881 188.321 206.381C188.514 205.877 188.611 205.295 188.611 204.636C188.611 203.985 188.516 203.415 188.327 202.926C188.137 202.434 187.857 202.051 187.486 201.778C187.115 201.502 186.656 201.364 186.111 201.364C185.543 201.364 185.069 201.509 184.69 201.801C184.315 202.089 184.033 202.481 183.844 202.977C183.658 203.47 183.565 204.023 183.565 204.636C183.565 205.258 183.66 205.822 183.849 206.33C184.043 206.833 184.327 207.235 184.702 207.534C185.08 207.83 185.55 207.977 186.111 207.977Z" fill="black"/>
</svg>
