<svg width="507" height="415" viewBox="0 0 507 415" fill="none" xmlns="http://www.w3.org/2000/svg">
<rect x="71" y="265" width="184" height="118" fill="#0066FF" fill-opacity="0.2"/>
<rect x="70.6445" y="145.676" width="184.363" height="237.764" fill="#FF00C4" fill-opacity="0.1"/>
<rect x="70.6445" y="180.005" width="306.424" height="203.435" fill="#FF8C4E" fill-opacity="0.1"/>
<rect x="70.6445" y="42.687" width="375.083" height="340.753" fill="#7BFFCA" fill-opacity="0.1"/>
<path d="M71.5436 1.10092C71.047 0.60437 70.242 0.60437 69.7455 1.10092L61.6539 9.19247C61.1573 9.68903 61.1573 10.494 61.6539 10.9906C62.1504 11.4872 62.9555 11.4872 63.452 10.9906L70.6445 3.7981L77.837 10.9906C78.3336 11.4872 79.1386 11.4872 79.6351 10.9906C80.1317 10.494 80.1317 9.68903 79.6351 9.19247L71.5436 1.10092ZM71.916 384.712L71.916 1.99997L69.373 1.99997L69.3731 384.712L71.916 384.712Z" fill="white"/>
<path d="M501.299 385.611C501.796 385.114 501.796 384.309 501.299 383.812L493.208 375.721C492.711 375.224 491.906 375.224 491.41 375.721C490.913 376.217 490.913 377.023 491.41 377.519L498.602 384.712L491.41 391.904C490.913 392.401 490.913 393.206 491.41 393.702C491.906 394.199 492.711 394.199 493.208 393.702L501.299 385.611ZM70.6445 385.983H500.4V383.44H70.6445V385.983Z" fill="white"/>
<path d="M16.4388 48.1734C15.6585 48.1734 14.9867 47.9892 14.4232 47.6207C13.8597 47.2523 13.4263 46.7448 13.1228 46.0982C12.8194 45.4516 12.6677 44.713 12.6677 43.8822C12.6677 43.0369 12.823 42.291 13.1337 41.6445C13.4479 40.9943 13.885 40.4868 14.4449 40.122C15.0084 39.7535 15.6658 39.5693 16.4171 39.5693C17.0023 39.5693 17.5296 39.6777 17.9992 39.8944C18.4688 40.1111 18.8535 40.4145 19.1533 40.8047C19.4531 41.1948 19.6391 41.6499 19.7113 42.17H18.4327C18.3351 41.7908 18.1184 41.4548 17.7825 41.1623C17.4502 40.8661 17.0023 40.718 16.4388 40.718C15.9403 40.718 15.5032 40.848 15.1276 41.1081C14.7555 41.3645 14.4647 41.7275 14.2552 42.1971C14.0493 42.6631 13.9464 43.2103 13.9464 43.8388C13.9464 44.4818 14.0475 45.0417 14.2498 45.5185C14.4557 45.9953 14.7447 46.3655 15.1167 46.6292C15.4924 46.8929 15.9331 47.0247 16.4388 47.0247C16.7711 47.0247 17.0727 46.9669 17.3436 46.8513C17.6145 46.7358 17.8439 46.5696 18.0317 46.3529C18.2195 46.1361 18.3532 45.8761 18.4327 45.5727H19.7113C19.6391 46.0639 19.4603 46.5064 19.1749 46.9001C18.8932 47.2902 18.5193 47.6009 18.0534 47.832C17.591 48.0596 17.0528 48.1734 16.4388 48.1734ZM22.8593 36.9036L22.8593 48H21.5806L21.5806 36.9036H22.8593ZM25.2013 48L25.2013 39.6777H26.48L26.48 48H25.2013ZM25.8515 38.2906C25.6023 38.2906 25.3873 38.2057 25.2067 38.036C25.0297 37.8662 24.9412 37.6621 24.9412 37.4237C24.9412 37.1853 25.0297 36.9812 25.2067 36.8115C25.3873 36.6417 25.6023 36.5568 25.8515 36.5568C26.1007 36.5568 26.3139 36.6417 26.4908 36.8115C26.6715 36.9812 26.7618 37.1853 26.7618 37.4237C26.7618 37.6621 26.6715 37.8662 26.4908 38.036C26.3139 38.2057 26.1007 38.2906 25.8515 38.2906ZM32.3113 48.1734C31.5094 48.1734 30.8177 47.9964 30.2362 47.6424C29.6582 47.2848 29.2121 46.7863 28.8979 46.147C28.5872 45.504 28.4319 44.7563 28.4319 43.9039C28.4319 43.0514 28.5872 42.3001 28.8979 41.6499C29.2121 40.9961 29.6492 40.4868 30.2091 40.122C30.7726 39.7535 31.43 39.5693 32.1813 39.5693C32.6147 39.5693 33.0428 39.6415 33.4654 39.786C33.888 39.9305 34.2727 40.1653 34.6195 40.4904C34.9662 40.8119 35.2426 41.2381 35.4485 41.7691C35.6543 42.3001 35.7573 42.9539 35.7573 43.7305V44.2723L29.3422 44.2723L29.3422 43.167L34.4569 43.167C34.4569 42.6974 34.363 42.2784 34.1752 41.91C33.991 41.5415 33.7273 41.2507 33.3841 41.0376C33.0446 40.8245 32.6436 40.718 32.1813 40.718C31.672 40.718 31.2313 40.8444 30.8593 41.0972C30.4908 41.3465 30.2073 41.6716 30.0086 42.0725C29.8099 42.4735 29.7106 42.9033 29.7106 43.362L29.7106 44.0989C29.7106 44.7274 29.819 45.2602 30.0357 45.6973C30.256 46.1307 30.5613 46.4612 30.9514 46.6888C31.3415 46.9128 31.7948 47.0247 32.3113 47.0247C32.6473 47.0247 32.9507 46.9778 33.2216 46.8839C33.4961 46.7863 33.7327 46.6418 33.9314 46.4504C34.13 46.2553 34.2835 46.0133 34.3919 45.7244L35.6273 46.0711C35.4972 46.4901 35.2787 46.8586 34.9717 47.1764C34.6646 47.4907 34.2854 47.7363 33.8338 47.9133C33.3823 48.0867 32.8748 48.1734 32.3113 48.1734ZM38.9811 42.9936V48H37.7024V39.6777H38.9378V40.978H39.0461C39.2412 40.5554 39.5374 40.2159 39.9347 39.9594C40.332 39.6993 40.845 39.5693 41.4735 39.5693C42.037 39.5693 42.53 39.6849 42.9526 39.9161C43.3753 40.1436 43.704 40.4904 43.9388 40.9564C44.1735 41.4187 44.2909 42.0039 44.2909 42.7119V48H43.0122V42.7985C43.0122 42.1448 42.8425 41.6354 42.5029 41.2706C42.1634 40.9022 41.6974 40.718 41.105 40.718C40.6969 40.718 40.332 40.8065 40.0106 40.9835C39.6927 41.1604 39.4417 41.4187 39.2574 41.7583C39.0732 42.0978 38.9811 42.5096 38.9811 42.9936ZM50.2469 39.6777V40.7613H45.934V39.6777H50.2469ZM47.191 37.6838H48.4697V45.616C48.4697 45.9772 48.5221 46.2481 48.6268 46.4287C48.7352 46.6057 48.8725 46.7249 49.0386 46.7863C49.2084 46.8441 49.3872 46.873 49.575 46.873C49.7159 46.873 49.8315 46.8658 49.9218 46.8513C50.0121 46.8333 50.0843 46.8188 50.1385 46.808L50.3986 47.9567C50.3119 47.9892 50.1909 48.0217 50.0356 48.0542C49.8802 48.0903 49.6834 48.1084 49.445 48.1084C49.0838 48.1084 48.7298 48.0307 48.383 47.8754C48.0399 47.7201 47.7545 47.4835 47.5269 47.1656C47.303 46.8477 47.191 46.4468 47.191 45.9628V37.6838ZM7.98911 54.9036L7.98911 66H6.71042L6.71042 54.9036H7.98911ZM10.3311 66L10.3311 57.6777H11.6098L11.6098 66H10.3311ZM10.9813 56.2906C10.7321 56.2906 10.5171 56.2057 10.3365 56.036C10.1595 55.8662 10.071 55.6621 10.071 55.4237C10.071 55.1853 10.1595 54.9812 10.3365 54.8115C10.5171 54.6417 10.7321 54.5568 10.9813 54.5568C11.2305 54.5568 11.4437 54.6417 11.6206 54.8115C11.8013 54.9812 11.8916 55.1853 11.8916 55.4237C11.8916 55.6621 11.8013 55.8662 11.6206 56.036C11.4437 56.2057 11.2305 56.2906 10.9813 56.2906ZM16.4008 66.1951C15.8735 66.1951 15.3949 66.0957 14.965 65.8971C14.5352 65.6948 14.1938 65.404 13.941 65.0247C13.6881 64.6418 13.5617 64.1795 13.5617 63.6377C13.5617 63.1609 13.6556 62.7744 13.8435 62.4782C14.0313 62.1784 14.2823 61.9436 14.5966 61.7738C14.9108 61.604 15.2576 61.4776 15.6369 61.3945C16.0198 61.3079 16.4044 61.2392 16.7909 61.1887C17.2966 61.1236 17.7066 61.0749 18.0209 61.0424C18.3387 61.0062 18.5699 60.9466 18.7144 60.8636C18.8625 60.7805 18.9365 60.636 18.9365 60.4301V60.3868C18.9365 59.8522 18.7903 59.4368 18.4977 59.1406C18.2087 58.8444 17.7698 58.6963 17.1811 58.6963C16.5706 58.6963 16.092 58.8299 15.7452 59.0972C15.3985 59.3645 15.1547 59.6499 15.0138 59.9533L13.8001 59.5199C14.0168 59.0142 14.3058 58.6204 14.667 58.3387C15.0318 58.0533 15.4292 57.8547 15.859 57.7427C16.2925 57.6271 16.7187 57.5693 17.1377 57.5693C17.405 57.5693 17.712 57.6018 18.0588 57.6668C18.4092 57.7282 18.7469 57.8565 19.072 58.0515C19.4007 58.2466 19.6734 58.541 19.8901 58.9347C20.1069 59.3284 20.2152 59.8558 20.2152 60.5168L20.2152 66H18.9365V64.873H18.8715C18.7848 65.0536 18.6404 65.2469 18.4381 65.4528C18.2358 65.6587 17.9667 65.8338 17.6308 65.9783C17.2948 66.1228 16.8849 66.1951 16.4008 66.1951ZM16.5959 65.0464C17.1016 65.0464 17.5278 64.9471 17.8746 64.7484C18.225 64.5497 18.4886 64.2933 18.6656 63.979C18.8462 63.6648 18.9365 63.3343 18.9365 62.9875V61.8172C18.8824 61.8822 18.7632 61.9418 18.5789 61.996C18.3983 62.0465 18.1888 62.0917 17.9504 62.1314C17.7156 62.1675 17.4863 62.2 17.2623 62.2289C17.042 62.2542 16.8632 62.2759 16.7259 62.294C16.3936 62.3373 16.083 62.4077 15.794 62.5053C15.5086 62.5992 15.2775 62.7419 15.1005 62.9333C14.9271 63.1211 14.8404 63.3776 14.8404 63.7027C14.8404 64.147 15.0048 64.4829 15.3335 64.7105C15.6658 64.9344 16.0866 65.0464 16.5959 65.0464ZM22.5491 66V57.6777H23.8278V66H22.5491ZM23.1993 56.2906C22.9501 56.2906 22.7351 56.2057 22.5545 56.036C22.3775 55.8662 22.289 55.6621 22.289 55.4237C22.289 55.1853 22.3775 54.9812 22.5545 54.8115C22.7351 54.6417 22.9501 54.5568 23.1993 54.5568C23.4485 54.5568 23.6617 54.6417 23.8386 54.8115C24.0193 54.9812 24.1096 55.1853 24.1096 55.4237C24.1096 55.6621 24.0193 55.8662 23.8386 56.036C23.6617 56.2057 23.4485 56.2906 23.1993 56.2906ZM32.0648 59.5415L30.9161 59.8666C30.8439 59.6752 30.7373 59.4891 30.5965 59.3085C30.4592 59.1243 30.2714 58.9726 30.033 58.8534C29.7946 58.7342 29.4894 58.6746 29.1173 58.6746C28.608 58.6746 28.1836 58.792 27.844 59.0268C27.5081 59.258 27.3401 59.5524 27.3401 59.91C27.3401 60.2278 27.4557 60.4789 27.6869 60.6631C27.9181 60.8473 28.2793 61.0008 28.7705 61.1236L30.0059 61.4271C30.75 61.6077 31.3045 61.884 31.6693 62.256C32.0341 62.6245 32.2165 63.0995 32.2165 63.681C32.2165 64.1578 32.0793 64.584 31.8047 64.9597C31.5338 65.3354 31.1545 65.6316 30.6669 65.8483C30.1793 66.065 29.6122 66.1734 28.9656 66.1734C28.1168 66.1734 27.4142 65.9892 26.8579 65.6207C26.3017 65.2523 25.9495 64.7141 25.8014 64.0061L27.0151 63.7027C27.1306 64.1506 27.3492 64.4865 27.6707 64.7105C27.9957 64.9344 28.4202 65.0464 28.9439 65.0464C29.5399 65.0464 30.0131 64.92 30.3635 64.6671C30.7175 64.4107 30.8945 64.1036 30.8945 63.746C30.8945 63.4571 30.7933 63.2151 30.5911 63.02C30.3888 62.8213 30.0781 62.6732 29.6591 62.5757L28.2721 62.2506C27.5099 62.07 26.95 61.7901 26.5924 61.4108C26.2385 61.0279 26.0615 60.5493 26.0615 59.975C26.0615 59.5054 26.1933 59.09 26.457 58.7288C26.7243 58.3676 27.0873 58.084 27.546 57.8781C28.0084 57.6723 28.5321 57.5693 29.1173 57.5693C29.9409 57.5693 30.5874 57.7499 31.057 58.1111C31.5302 58.4723 31.8661 58.9491 32.0648 59.5415ZM37.5223 66.1734C36.7709 66.1734 36.1117 65.9946 35.5446 65.637C34.9811 65.2794 34.5405 64.7791 34.2226 64.1361C33.9083 63.4932 33.7512 62.7419 33.7512 61.8822C33.7512 61.0153 33.9083 60.2585 34.2226 59.612C34.5405 58.9654 34.9811 58.4633 35.5446 58.1057C36.1117 57.7481 36.7709 57.5693 37.5223 57.5693C38.2736 57.5693 38.931 57.7481 39.4945 58.1057C40.0616 58.4633 40.5023 58.9654 40.8165 59.612C41.1344 60.2585 41.2933 61.0153 41.2933 61.8822C41.2933 62.7419 41.1344 63.4932 40.8165 64.1361C40.5023 64.7791 40.0616 65.2794 39.4945 65.637C38.931 65.9946 38.2736 66.1734 37.5223 66.1734ZM37.5223 65.0247C38.093 65.0247 38.5626 64.8784 38.931 64.5859C39.2994 64.2933 39.5721 63.9086 39.7491 63.4318C39.9261 62.955 40.0146 62.4384 40.0146 61.8822C40.0146 61.3259 39.9261 60.8076 39.7491 60.3272C39.5721 59.8467 39.2994 59.4584 38.931 59.1623C38.5626 58.8661 38.093 58.718 37.5223 58.718C36.9516 58.718 36.482 58.8661 36.1135 59.1623C35.7451 59.4584 35.4724 59.8467 35.2954 60.3272C35.1184 60.8076 35.0299 61.3259 35.0299 61.8822C35.0299 62.4384 35.1184 62.955 35.2954 63.4318C35.4724 63.9086 35.7451 64.2933 36.1135 64.5859C36.482 64.8784 36.9516 65.0247 37.5223 65.0247ZM44.5239 60.9936V66H43.2452V57.6777H44.4806V58.978H44.5889C44.784 58.5554 45.0802 58.2159 45.4775 57.9594C45.8749 57.6993 46.3878 57.5693 47.0163 57.5693C47.5798 57.5693 48.0728 57.6849 48.4954 57.9161C48.9181 58.1436 49.2468 58.4904 49.4816 58.9564C49.7163 59.4187 49.8337 60.0039 49.8337 60.7119V66H48.555V60.7985C48.555 60.1448 48.3853 59.6354 48.0457 59.2706C47.7062 58.9022 47.2402 58.718 46.6478 58.718C46.2397 58.718 45.8749 58.8065 45.5534 58.9835C45.2355 59.1604 44.9845 59.4187 44.8002 59.7583C44.616 60.0978 44.5239 60.5096 44.5239 60.9936Z" fill="white"/>
<path d="M74.9574 411.328C74.2639 411.328 73.6516 411.153 73.1206 410.803C72.5897 410.449 72.1743 409.95 71.8745 409.307C71.5747 408.661 71.4247 407.897 71.4247 407.015C71.4247 406.141 71.5747 405.383 71.8745 404.74C72.1743 404.097 72.5915 403.6 73.1261 403.25C73.6607 402.899 74.2783 402.724 74.9791 402.724C75.5209 402.724 75.9489 402.814 76.2632 402.995C76.5811 403.172 76.8231 403.374 76.9892 403.602C77.159 403.826 77.2908 404.01 77.3848 404.154H77.4931V400.058H78.7718V411.155H77.5365V409.876H77.3848C77.2908 410.028 77.1572 410.219 76.9838 410.45C76.8104 410.678 76.563 410.882 76.2415 411.063C75.92 411.24 75.492 411.328 74.9574 411.328ZM75.1308 410.18C75.6437 410.18 76.0772 410.046 76.4312 409.779C76.7851 409.508 77.0542 409.134 77.2385 408.657C77.4227 408.177 77.5148 407.622 77.5148 406.994C77.5148 406.372 77.4245 405.829 77.2439 405.363C77.0633 404.893 76.796 404.528 76.442 404.268C76.088 404.005 75.6509 403.873 75.1308 403.873C74.589 403.873 74.1375 404.012 73.7762 404.29C73.4186 404.564 73.1495 404.938 72.9689 405.412C72.7919 405.881 72.7034 406.408 72.7034 406.994C72.7034 407.586 72.7937 408.124 72.9744 408.608C73.1586 409.089 73.4295 409.472 73.7871 409.757C74.1483 410.039 74.5962 410.18 75.1308 410.18ZM84.7806 411.328C83.9787 411.328 83.287 411.151 82.7054 410.797C82.1275 410.44 81.6814 409.941 81.3671 409.302C81.0565 408.659 80.9012 407.911 80.9012 407.059C80.9012 406.206 81.0565 405.455 81.3671 404.805C81.6814 404.151 82.1184 403.642 82.6783 403.277C83.2418 402.908 83.8992 402.724 84.6505 402.724C85.084 402.724 85.512 402.796 85.9346 402.941C86.3573 403.085 86.742 403.32 87.0887 403.645C87.4355 403.967 87.7118 404.393 87.9177 404.924C88.1236 405.455 88.2265 406.109 88.2265 406.885V407.427H81.8114V406.322H86.9262C86.9262 405.852 86.8323 405.433 86.6444 405.065C86.4602 404.696 86.1965 404.406 85.8534 404.192C85.5138 403.979 85.1129 403.873 84.6505 403.873C84.1412 403.873 83.7005 403.999 83.3285 404.252C82.9601 404.501 82.6765 404.826 82.4778 405.227C82.2792 405.628 82.1798 406.058 82.1798 406.517V407.254C82.1798 407.882 82.2882 408.415 82.5049 408.852C82.7253 409.286 83.0305 409.616 83.4206 409.844C83.8107 410.068 84.264 410.18 84.7806 410.18C85.1165 410.18 85.4199 410.133 85.6908 410.039C85.9653 409.941 86.2019 409.797 86.4006 409.605C86.5993 409.41 86.7528 409.168 86.8612 408.879L88.0965 409.226C87.9665 409.645 87.7479 410.013 87.4409 410.331C87.1339 410.645 86.7546 410.891 86.3031 411.068C85.8516 411.241 85.3441 411.328 84.7806 411.328ZM96.0666 404.696L94.918 405.021C94.8457 404.83 94.7392 404.644 94.5983 404.463C94.4611 404.279 94.2732 404.127 94.0348 404.008C93.7964 403.889 93.4912 403.829 93.1192 403.829C92.6098 403.829 92.1854 403.947 91.8459 404.182C91.51 404.413 91.342 404.707 91.342 405.065C91.342 405.383 91.4576 405.634 91.6888 405.818C91.9199 406.002 92.2811 406.156 92.7724 406.278L94.0077 406.582C94.7518 406.762 95.3063 407.039 95.6711 407.411C96.0359 407.779 96.2184 408.254 96.2184 408.836C96.2184 409.313 96.0811 409.739 95.8066 410.114C95.5357 410.49 95.1564 410.786 94.6688 411.003C94.1811 411.22 93.614 411.328 92.9674 411.328C92.1186 411.328 91.416 411.144 90.8598 410.776C90.3035 410.407 89.9513 409.869 89.8032 409.161L91.0169 408.857C91.1325 409.305 91.351 409.641 91.6725 409.865C91.9976 410.089 92.422 410.201 92.9458 410.201C93.5418 410.201 94.015 410.075 94.3653 409.822C94.7193 409.565 94.8963 409.258 94.8963 408.901C94.8963 408.612 94.7952 408.37 94.5929 408.175C94.3906 407.976 94.08 407.828 93.661 407.73L92.2739 407.405C91.5118 407.225 90.9519 406.945 90.5943 406.566C90.2403 406.183 90.0633 405.704 90.0633 405.13C90.0633 404.66 90.1951 404.245 90.4588 403.884C90.7261 403.522 91.0891 403.239 91.5479 403.033C92.0102 402.827 92.534 402.724 93.1192 402.724C93.9427 402.724 94.5893 402.905 95.0589 403.266C95.5321 403.627 95.868 404.104 96.0666 404.696ZM98.1432 411.155V402.832H99.4219V411.155H98.1432ZM98.7933 401.445C98.5441 401.445 98.3292 401.361 98.1486 401.191C97.9716 401.021 97.8831 400.817 97.8831 400.578C97.8831 400.34 97.9716 400.136 98.1486 399.966C98.3292 399.796 98.5441 399.712 98.7933 399.712C99.0426 399.712 99.2557 399.796 99.4327 399.966C99.6133 400.136 99.7036 400.34 99.7036 400.578C99.7036 400.817 99.6133 401.021 99.4327 401.191C99.2557 401.361 99.0426 401.445 98.7933 401.445ZM105.123 414.449C104.505 414.449 103.974 414.37 103.53 414.211C103.086 414.055 102.716 413.849 102.419 413.593C102.127 413.34 101.894 413.069 101.721 412.78L102.739 412.065C102.855 412.217 103.001 412.39 103.178 412.585C103.355 412.784 103.597 412.955 103.904 413.1C104.215 413.248 104.621 413.322 105.123 413.322C105.795 413.322 106.349 413.16 106.787 412.834C107.224 412.509 107.442 412 107.442 411.306V409.616H107.334C107.24 409.768 107.106 409.956 106.933 410.18C106.763 410.4 106.517 410.597 106.196 410.77C105.878 410.94 105.448 411.025 104.906 411.025C104.235 411.025 103.631 410.866 103.097 410.548C102.566 410.23 102.145 409.768 101.834 409.161C101.527 408.554 101.374 407.817 101.374 406.95C101.374 406.098 101.524 405.356 101.823 404.723C102.123 404.088 102.54 403.596 103.075 403.25C103.61 402.899 104.227 402.724 104.928 402.724C105.47 402.724 105.9 402.814 106.218 402.995C106.539 403.172 106.785 403.374 106.954 403.602C107.128 403.826 107.262 404.01 107.355 404.154H107.485V402.832H108.721V411.393C108.721 412.108 108.558 412.69 108.233 413.138C107.912 413.589 107.478 413.92 106.933 414.129C106.391 414.342 105.788 414.449 105.123 414.449ZM105.08 409.876C105.593 409.876 106.026 409.759 106.38 409.524C106.734 409.289 107.003 408.951 107.187 408.511C107.372 408.07 107.464 407.543 107.464 406.929C107.464 406.329 107.373 405.8 107.193 405.341C107.012 404.882 106.745 404.523 106.391 404.263C106.037 404.003 105.6 403.873 105.08 403.873C104.538 403.873 104.086 404.01 103.725 404.285C103.368 404.559 103.099 404.927 102.918 405.39C102.741 405.852 102.652 406.365 102.652 406.929C102.652 407.507 102.743 408.018 102.923 408.462C103.108 408.903 103.378 409.249 103.736 409.502C104.097 409.751 104.545 409.876 105.08 409.876ZM112.34 406.148V411.155H111.061V402.832H112.297V404.133H112.405C112.6 403.71 112.896 403.371 113.294 403.114C113.691 402.854 114.204 402.724 114.833 402.724C115.396 402.724 115.889 402.84 116.312 403.071C116.734 403.298 117.063 403.645 117.298 404.111C117.533 404.573 117.65 405.159 117.65 405.867V411.155H116.371V405.953C116.371 405.3 116.202 404.79 115.862 404.425C115.522 404.057 115.056 403.873 114.464 403.873C114.056 403.873 113.691 403.961 113.37 404.138C113.052 404.315 112.801 404.573 112.616 404.913C112.432 405.253 112.34 405.664 112.34 406.148Z" fill="white"/>
<path d="M404.94 411.155V402.832H406.175V404.089H406.262C406.414 403.678 406.688 403.344 407.085 403.087C407.483 402.831 407.931 402.702 408.429 402.702C408.523 402.702 408.64 402.704 408.781 402.708C408.922 402.711 409.029 402.717 409.101 402.724V404.024C409.058 404.014 408.958 403.997 408.803 403.976C408.651 403.95 408.491 403.938 408.321 403.938C407.916 403.938 407.555 404.023 407.237 404.192C406.923 404.359 406.674 404.59 406.489 404.886C406.309 405.179 406.219 405.513 406.219 405.888V411.155H404.94ZM413.853 411.328C413.051 411.328 412.359 411.151 411.778 410.797C411.2 410.44 410.754 409.941 410.439 409.302C410.129 408.659 409.973 407.911 409.973 407.059C409.973 406.206 410.129 405.455 410.439 404.805C410.754 404.151 411.191 403.642 411.751 403.277C412.314 402.908 412.971 402.724 413.723 402.724C414.156 402.724 414.584 402.796 415.007 402.941C415.429 403.085 415.814 403.32 416.161 403.645C416.508 403.967 416.784 404.393 416.99 404.924C417.196 405.455 417.299 406.109 417.299 406.885V407.427H410.884V406.322H415.998C415.998 405.852 415.904 405.433 415.717 405.065C415.532 404.696 415.269 404.406 414.926 404.192C414.586 403.979 414.185 403.873 413.723 403.873C413.213 403.873 412.773 403.999 412.401 404.252C412.032 404.501 411.749 404.826 411.55 405.227C411.351 405.628 411.252 406.058 411.252 406.517V407.254C411.252 407.882 411.36 408.415 411.577 408.852C411.797 409.286 412.103 409.616 412.493 409.844C412.883 410.068 413.336 410.18 413.853 410.18C414.189 410.18 414.492 410.133 414.763 410.039C415.038 409.941 415.274 409.797 415.473 409.605C415.671 409.41 415.825 409.168 415.933 408.879L417.169 409.226C417.039 409.645 416.82 410.013 416.513 410.331C416.206 410.645 415.827 410.891 415.375 411.068C414.924 411.241 414.416 411.328 413.853 411.328ZM425.139 404.696L423.99 405.021C423.918 404.83 423.811 404.644 423.671 404.463C423.533 404.279 423.345 404.127 423.107 404.008C422.869 403.889 422.563 403.829 422.191 403.829C421.682 403.829 421.258 403.947 420.918 404.182C420.582 404.413 420.414 404.707 420.414 405.065C420.414 405.383 420.53 405.634 420.761 405.818C420.992 406.002 421.353 406.156 421.845 406.278L423.08 406.582C423.824 406.762 424.378 407.039 424.743 407.411C425.108 407.779 425.291 408.254 425.291 408.836C425.291 409.313 425.153 409.739 424.879 410.114C424.608 410.49 424.229 410.786 423.741 411.003C423.253 411.22 422.686 411.328 422.04 411.328C421.191 411.328 420.488 411.144 419.932 410.776C419.376 410.407 419.024 409.869 418.875 409.161L420.089 408.857C420.205 409.305 420.423 409.641 420.745 409.865C421.07 410.089 421.494 410.201 422.018 410.201C422.614 410.201 423.087 410.075 423.438 409.822C423.792 409.565 423.969 409.258 423.969 408.901C423.969 408.612 423.867 408.37 423.665 408.175C423.463 407.976 423.152 407.828 422.733 407.73L421.346 407.405C420.584 407.225 420.024 406.945 419.666 406.566C419.312 406.183 419.135 405.704 419.135 405.13C419.135 404.66 419.267 404.245 419.531 403.884C419.798 403.522 420.161 403.239 420.62 403.033C421.082 402.827 421.606 402.724 422.191 402.724C423.015 402.724 423.661 402.905 424.131 403.266C424.604 403.627 424.94 404.104 425.139 404.696ZM430.705 411.328C429.903 411.328 429.211 411.151 428.63 410.797C428.052 410.44 427.605 409.941 427.291 409.302C426.981 408.659 426.825 407.911 426.825 407.059C426.825 406.206 426.981 405.455 427.291 404.805C427.605 404.151 428.043 403.642 428.602 403.277C429.166 402.908 429.823 402.724 430.575 402.724C431.008 402.724 431.436 402.796 431.859 402.941C432.281 403.085 432.666 403.32 433.013 403.645C433.36 403.967 433.636 404.393 433.842 404.924C434.048 405.455 434.151 406.109 434.151 406.885V407.427H427.736V406.322H432.85C432.85 405.852 432.756 405.433 432.569 405.065C432.384 404.696 432.121 404.406 431.777 404.192C431.438 403.979 431.037 403.873 430.575 403.873C430.065 403.873 429.625 403.999 429.253 404.252C428.884 404.501 428.601 404.826 428.402 405.227C428.203 405.628 428.104 406.058 428.104 406.517V407.254C428.104 407.882 428.212 408.415 428.429 408.852C428.649 409.286 428.955 409.616 429.345 409.844C429.735 410.068 430.188 410.18 430.705 410.18C431.041 410.18 431.344 410.133 431.615 410.039C431.889 409.941 432.126 409.797 432.325 409.605C432.523 409.41 432.677 409.168 432.785 408.879L434.021 409.226C433.891 409.645 433.672 410.013 433.365 410.331C433.058 410.645 432.679 410.891 432.227 411.068C431.776 411.241 431.268 411.328 430.705 411.328ZM438.545 411.35C438.017 411.35 437.539 411.251 437.109 411.052C436.679 410.85 436.338 410.559 436.085 410.18C435.832 409.797 435.706 409.334 435.706 408.792C435.706 408.316 435.8 407.929 435.987 407.633C436.175 407.333 436.426 407.098 436.741 406.929C437.055 406.759 437.402 406.632 437.781 406.549C438.164 406.463 438.548 406.394 438.935 406.343C439.441 406.278 439.851 406.23 440.165 406.197C440.483 406.161 440.714 406.101 440.858 406.018C441.006 405.935 441.08 405.791 441.08 405.585V405.542C441.08 405.007 440.934 404.592 440.642 404.295C440.353 403.999 439.914 403.851 439.325 403.851C438.715 403.851 438.236 403.985 437.889 404.252C437.542 404.519 437.299 404.805 437.158 405.108L435.944 404.675C436.161 404.169 436.45 403.775 436.811 403.493C437.176 403.208 437.573 403.009 438.003 402.897C438.436 402.782 438.863 402.724 439.282 402.724C439.549 402.724 439.856 402.757 440.203 402.822C440.553 402.883 440.891 403.011 441.216 403.206C441.545 403.401 441.817 403.696 442.034 404.089C442.251 404.483 442.359 405.011 442.359 405.672V411.155H441.08V410.028H441.015C440.929 410.208 440.784 410.402 440.582 410.608C440.38 410.813 440.111 410.989 439.775 411.133C439.439 411.278 439.029 411.35 438.545 411.35ZM438.74 410.201C439.246 410.201 439.672 410.102 440.019 409.903C440.369 409.705 440.633 409.448 440.81 409.134C440.99 408.82 441.08 408.489 441.08 408.142V406.972C441.026 407.037 440.907 407.097 440.723 407.151C440.542 407.201 440.333 407.246 440.094 407.286C439.86 407.322 439.63 407.355 439.406 407.384C439.186 407.409 439.007 407.431 438.87 407.449C438.538 407.492 438.227 407.563 437.938 407.66C437.653 407.754 437.421 407.897 437.244 408.088C437.071 408.276 436.984 408.532 436.984 408.857C436.984 409.302 437.149 409.638 437.477 409.865C437.81 410.089 438.231 410.201 438.74 410.201ZM444.693 411.155V402.832H445.928V404.089H446.015C446.167 403.678 446.441 403.344 446.839 403.087C447.236 402.831 447.684 402.702 448.182 402.702C448.276 402.702 448.394 402.704 448.535 402.708C448.675 402.711 448.782 402.717 448.854 402.724V404.024C448.811 404.014 448.712 403.997 448.556 403.976C448.405 403.95 448.244 403.938 448.074 403.938C447.669 403.938 447.308 404.023 446.99 404.192C446.676 404.359 446.427 404.59 446.243 404.886C446.062 405.179 445.972 405.513 445.972 405.888V411.155H444.693ZM453.498 411.328C452.717 411.328 452.046 411.144 451.482 410.776C450.919 410.407 450.485 409.9 450.182 409.253C449.878 408.606 449.727 407.868 449.727 407.037C449.727 406.192 449.882 405.446 450.193 404.799C450.507 404.149 450.944 403.642 451.504 403.277C452.067 402.908 452.725 402.724 453.476 402.724C454.061 402.724 454.588 402.832 455.058 403.049C455.528 403.266 455.912 403.569 456.212 403.959C456.512 404.35 456.698 404.805 456.77 405.325H455.492C455.394 404.946 455.177 404.61 454.841 404.317C454.509 404.021 454.061 403.873 453.498 403.873C452.999 403.873 452.562 404.003 452.186 404.263C451.814 404.519 451.524 404.882 451.314 405.352C451.108 405.818 451.005 406.365 451.005 406.994C451.005 407.637 451.106 408.196 451.309 408.673C451.515 409.15 451.804 409.52 452.176 409.784C452.551 410.048 452.992 410.18 453.498 410.18C453.83 410.18 454.132 410.122 454.402 410.006C454.673 409.891 454.903 409.724 455.091 409.508C455.278 409.291 455.412 409.031 455.492 408.727H456.77C456.698 409.219 456.519 409.661 456.234 410.055C455.952 410.445 455.578 410.756 455.112 410.987C454.65 411.214 454.112 411.328 453.498 411.328ZM459.918 406.148V411.155H458.639V400.058H459.918V404.133H460.027C460.222 403.703 460.514 403.362 460.904 403.109C461.298 402.852 461.822 402.724 462.476 402.724C463.043 402.724 463.539 402.838 463.966 403.065C464.392 403.289 464.722 403.634 464.957 404.1C465.195 404.563 465.315 405.151 465.315 405.867V411.155H464.036V405.953C464.036 405.292 463.864 404.781 463.521 404.42C463.182 404.055 462.71 403.873 462.107 403.873C461.688 403.873 461.312 403.961 460.98 404.138C460.651 404.315 460.391 404.573 460.2 404.913C460.012 405.253 459.918 405.664 459.918 406.148Z" fill="white"/>
<path d="M481.84 46.4391V47.9723H474.311V46.4391H481.84ZM474.691 33.7536V47.9723H472.807V33.7536H474.691ZM480.844 39.8669V41.4001H474.311V39.8669H480.844ZM481.742 33.7536V35.2965H474.311V33.7536H481.742ZM485.707 39.0661V47.9723H483.9V37.4059H485.658L485.707 39.0661ZM489.008 37.3473L488.998 39.027C488.848 38.9945 488.705 38.9749 488.568 38.9684C488.438 38.9554 488.288 38.9489 488.119 38.9489C487.702 38.9489 487.335 39.014 487.016 39.1442C486.697 39.2744 486.426 39.4567 486.205 39.6911C485.984 39.9254 485.808 40.2054 485.678 40.5309C485.554 40.8499 485.473 41.2015 485.434 41.5856L484.926 41.8786C484.926 41.2405 484.988 40.6416 485.111 40.0817C485.242 39.5218 485.44 39.027 485.707 38.5973C485.974 38.1611 486.312 37.8226 486.723 37.5817C487.139 37.3343 487.634 37.2106 488.207 37.2106C488.337 37.2106 488.487 37.2269 488.656 37.2594C488.826 37.2855 488.943 37.3148 489.008 37.3473ZM492.641 37.4059V47.9723H490.824V37.4059H492.641ZM490.688 34.6032C490.688 34.3102 490.775 34.0628 490.951 33.861C491.133 33.6592 491.4 33.5583 491.752 33.5583C492.097 33.5583 492.361 33.6592 492.543 33.861C492.732 34.0628 492.826 34.3102 492.826 34.6032C492.826 34.8831 492.732 35.124 492.543 35.3258C492.361 35.5211 492.097 35.6188 491.752 35.6188C491.4 35.6188 491.133 35.5211 490.951 35.3258C490.775 35.124 490.688 34.8831 490.688 34.6032ZM497.348 39.6618V47.9723H495.541V37.4059H497.25L497.348 39.6618ZM496.918 42.2887L496.166 42.2594C496.173 41.5368 496.28 40.8695 496.488 40.2575C496.697 39.639 496.99 39.1019 497.367 38.6461C497.745 38.1904 498.194 37.8389 498.715 37.5915C499.242 37.3376 499.825 37.2106 500.463 37.2106C500.984 37.2106 501.452 37.2822 501.869 37.4254C502.286 37.5622 502.641 37.7835 502.934 38.0895C503.233 38.3955 503.461 38.7926 503.617 39.2809C503.773 39.7627 503.852 40.3519 503.852 41.0485V47.9723H502.035V41.029C502.035 40.4756 501.954 40.0329 501.791 39.7008C501.628 39.3623 501.391 39.1182 501.078 38.9684C500.766 38.8122 500.382 38.734 499.926 38.734C499.477 38.734 499.066 38.8284 498.695 39.0172C498.331 39.206 498.015 39.4665 497.748 39.7985C497.488 40.1305 497.283 40.5114 497.133 40.9411C496.99 41.3642 496.918 41.8135 496.918 42.2887Z" fill="white"/>
<path d="M280.141 138.014H281.967L286.625 149.606L291.273 138.014H293.109L287.328 152.233H285.902L280.141 138.014ZM279.545 138.014H281.156L281.42 146.686V152.233H279.545V138.014ZM292.084 138.014H293.695V152.233H291.82V146.686L292.084 138.014ZM301.117 152.428C300.382 152.428 299.714 152.304 299.115 152.057C298.523 151.803 298.012 151.448 297.582 150.992C297.159 150.537 296.833 149.996 296.605 149.371C296.378 148.746 296.264 148.063 296.264 147.32V146.91C296.264 146.051 296.391 145.286 296.645 144.615C296.898 143.938 297.243 143.365 297.68 142.897C298.116 142.428 298.611 142.073 299.164 141.832C299.717 141.591 300.29 141.471 300.883 141.471C301.638 141.471 302.289 141.601 302.836 141.861C303.389 142.122 303.842 142.486 304.193 142.955C304.545 143.417 304.805 143.964 304.975 144.596C305.144 145.221 305.229 145.904 305.229 146.647V147.457H297.338V145.983H303.422V145.846C303.396 145.377 303.298 144.921 303.129 144.479C302.966 144.036 302.706 143.671 302.348 143.385C301.99 143.098 301.501 142.955 300.883 142.955C300.473 142.955 300.095 143.043 299.75 143.219C299.405 143.388 299.109 143.642 298.861 143.981C298.614 144.319 298.422 144.733 298.285 145.221C298.148 145.709 298.08 146.272 298.08 146.91V147.32C298.08 147.822 298.148 148.294 298.285 148.736C298.428 149.173 298.633 149.557 298.9 149.889C299.174 150.221 299.503 150.481 299.887 150.67C300.277 150.859 300.72 150.953 301.215 150.953C301.853 150.953 302.393 150.823 302.836 150.563C303.279 150.302 303.666 149.954 303.998 149.518L305.092 150.387C304.864 150.732 304.574 151.061 304.223 151.373C303.871 151.686 303.438 151.94 302.924 152.135C302.416 152.33 301.814 152.428 301.117 152.428Z" fill="white"/>
<path d="M1.77852 354.121V342.678H3.01386V344H3.16557C3.25949 343.855 3.38952 343.671 3.55568 343.447C3.72545 343.219 3.96746 343.017 4.28172 342.84C4.59958 342.66 5.02943 342.569 5.57124 342.569C6.272 342.569 6.88967 342.744 7.42426 343.095C7.95886 343.445 8.37606 343.942 8.67586 344.585C8.97567 345.228 9.12557 345.986 9.12557 346.861C9.12557 347.742 8.97567 348.506 8.67586 349.152C8.37606 349.795 7.96066 350.294 7.42968 350.648C6.8987 350.998 6.28644 351.173 5.59292 351.173C5.05832 351.173 4.63029 351.085 4.30881 350.908C3.98733 350.727 3.7399 350.523 3.56652 350.296C3.39313 350.064 3.25949 349.873 3.16557 349.721H3.05721V354.121H1.77852ZM3.03553 346.839C3.03553 347.467 3.12764 348.022 3.31186 348.502C3.49608 348.979 3.76518 349.353 4.11917 349.624C4.47316 349.891 4.90661 350.025 5.41954 350.025C5.95413 350.025 6.40023 349.884 6.75783 349.602C7.11904 349.317 7.38995 348.934 7.57055 348.453C7.75477 347.969 7.84688 347.431 7.84688 346.839C7.84688 346.254 7.75658 345.726 7.57597 345.257C7.39898 344.784 7.12988 344.41 6.76866 344.135C6.41106 343.857 5.96135 343.718 5.41954 343.718C4.89939 343.718 4.46232 343.85 4.10834 344.113C3.75435 344.374 3.48705 344.738 3.30644 345.208C3.12584 345.674 3.03553 346.218 3.03553 346.839ZM11.0761 351V342.678H12.3115V343.935H12.3982C12.5499 343.523 12.8244 343.189 13.2217 342.932C13.6191 342.676 14.067 342.548 14.5654 342.548C14.6593 342.548 14.7767 342.549 14.9176 342.553C15.0585 342.557 15.165 342.562 15.2373 342.569V343.87C15.1939 343.859 15.0946 343.843 14.9393 343.821C14.7876 343.796 14.6268 343.783 14.4571 343.783C14.0525 343.783 13.6913 343.868 13.3734 344.038C13.0592 344.204 12.8099 344.435 12.6257 344.731C12.4451 345.024 12.3548 345.358 12.3548 345.734V351H11.0761ZM19.8807 351.173C19.1293 351.173 18.4701 350.995 17.903 350.637C17.3395 350.279 16.8989 349.779 16.581 349.136C16.2667 348.493 16.1096 347.742 16.1096 346.882C16.1096 346.015 16.2667 345.259 16.581 344.612C16.8989 343.965 17.3395 343.463 17.903 343.106C18.4701 342.748 19.1293 342.569 19.8807 342.569C20.632 342.569 21.2894 342.748 21.8529 343.106C22.42 343.463 22.8607 343.965 23.1749 344.612C23.4928 345.259 23.6517 346.015 23.6517 346.882C23.6517 347.742 23.4928 348.493 23.1749 349.136C22.8607 349.779 22.42 350.279 21.8529 350.637C21.2894 350.995 20.632 351.173 19.8807 351.173ZM19.8807 350.025C20.4514 350.025 20.921 349.878 21.2894 349.586C21.6578 349.293 21.9305 348.909 22.1075 348.432C22.2845 347.955 22.373 347.438 22.373 346.882C22.373 346.326 22.2845 345.808 22.1075 345.327C21.9305 344.847 21.6578 344.458 21.2894 344.162C20.921 343.866 20.4514 343.718 19.8807 343.718C19.31 343.718 18.8404 343.866 18.4719 344.162C18.1035 344.458 17.8308 344.847 17.6538 345.327C17.4768 345.808 17.3883 346.326 17.3883 346.882C17.3883 347.438 17.4768 347.955 17.6538 348.432C17.8308 348.909 18.1035 349.293 18.4719 349.586C18.8404 349.878 19.31 350.025 19.8807 350.025ZM25.6036 342.678H26.8823V351.607C26.8823 352.12 26.7938 352.564 26.6168 352.94C26.4434 353.315 26.1798 353.606 25.8258 353.812C25.4754 354.018 25.0329 354.121 24.4983 354.121C24.455 354.121 24.4116 354.121 24.3683 354.121C24.3249 354.121 24.2816 354.121 24.2382 354.121V352.929C24.2816 352.929 24.3213 352.929 24.3574 352.929C24.3936 352.929 24.4333 352.929 24.4766 352.929C24.8667 352.929 25.1521 352.813 25.3327 352.582C25.5133 352.355 25.6036 352.029 25.6036 351.607V342.678ZM26.2321 341.291C25.9829 341.291 25.768 341.206 25.5874 341.036C25.4104 340.866 25.3219 340.662 25.3219 340.424C25.3219 340.185 25.4104 339.981 25.5874 339.811C25.768 339.642 25.9829 339.557 26.2321 339.557C26.4814 339.557 26.6945 339.642 26.8715 339.811C27.0521 339.981 27.1424 340.185 27.1424 340.424C27.1424 340.662 27.0521 340.866 26.8715 341.036C26.6945 341.206 26.4814 341.291 26.2321 341.291ZM32.7136 351.173C31.9117 351.173 31.22 350.996 30.6385 350.642C30.0605 350.285 29.6144 349.786 29.3002 349.147C28.9895 348.504 28.8342 347.756 28.8342 346.904C28.8342 346.051 28.9895 345.3 29.3002 344.65C29.6144 343.996 30.0515 343.487 30.6114 343.122C31.1749 342.754 31.8323 342.569 32.5836 342.569C33.0171 342.569 33.4451 342.642 33.8677 342.786C34.2903 342.931 34.675 343.165 35.0218 343.49C35.3685 343.812 35.6449 344.238 35.8508 344.769C36.0567 345.3 36.1596 345.954 36.1596 346.73V347.272H29.7445V346.167H34.8592C34.8592 345.697 34.7653 345.278 34.5775 344.91C34.3933 344.542 34.1296 344.251 33.7864 344.038C33.4469 343.825 33.0459 343.718 32.5836 343.718C32.0743 343.718 31.6336 343.844 31.2616 344.097C30.8931 344.346 30.6096 344.672 30.4109 345.073C30.2122 345.473 30.1129 345.903 30.1129 346.362V347.099C30.1129 347.727 30.2213 348.26 30.438 348.697C30.6583 349.131 30.9636 349.461 31.3537 349.689C31.7438 349.913 32.1971 350.025 32.7136 350.025C33.0496 350.025 33.353 349.978 33.6239 349.884C33.8984 349.786 34.135 349.642 34.3337 349.45C34.5323 349.255 34.6859 349.013 34.7942 348.724L36.0296 349.071C35.8995 349.49 35.681 349.859 35.374 350.176C35.0669 350.491 34.6877 350.736 34.2361 350.913C33.7846 351.087 33.2771 351.173 32.7136 351.173ZM41.4857 351.173C40.7055 351.173 40.0336 350.989 39.4701 350.621C38.9066 350.252 38.4732 349.745 38.1697 349.098C37.8663 348.452 37.7146 347.713 37.7146 346.882C37.7146 346.037 37.8699 345.291 38.1806 344.644C38.4948 343.994 38.9319 343.487 39.4918 343.122C40.0553 342.754 40.7127 342.569 41.464 342.569C42.0492 342.569 42.5765 342.678 43.0461 342.894C43.5157 343.111 43.9004 343.415 44.2002 343.805C44.5 344.195 44.686 344.65 44.7583 345.17H43.4796C43.382 344.791 43.1653 344.455 42.8294 344.162C42.4971 343.866 42.0492 343.718 41.4857 343.718C40.9872 343.718 40.5501 343.848 40.1745 344.108C39.8024 344.365 39.5116 344.728 39.3021 345.197C39.0963 345.663 38.9933 346.21 38.9933 346.839C38.9933 347.482 39.0944 348.042 39.2967 348.518C39.5026 348.995 39.7916 349.366 40.1636 349.629C40.5393 349.893 40.98 350.025 41.4857 350.025C41.818 350.025 42.1196 349.967 42.3905 349.851C42.6614 349.736 42.8908 349.57 43.0786 349.353C43.2664 349.136 43.4001 348.876 43.4796 348.573H44.7583C44.686 349.064 44.5072 349.506 44.2219 349.9C43.9401 350.29 43.5663 350.601 43.1003 350.832C42.6379 351.06 42.0997 351.173 41.4857 351.173ZM50.2469 342.678V343.761H45.934V342.678H50.2469ZM47.191 340.684H48.4697V348.616C48.4697 348.977 48.5221 349.248 48.6268 349.429C48.7352 349.606 48.8725 349.725 49.0386 349.786C49.2084 349.844 49.3872 349.873 49.575 349.873C49.7159 349.873 49.8315 349.866 49.9218 349.851C50.0121 349.833 50.0843 349.819 50.1385 349.808L50.3986 350.957C50.3119 350.989 50.1909 351.022 50.0356 351.054C49.8802 351.09 49.6834 351.108 49.445 351.108C49.0838 351.108 48.7298 351.031 48.383 350.875C48.0399 350.72 47.7545 350.483 47.5269 350.166C47.303 349.848 47.191 349.447 47.191 348.963V340.684ZM10.8079 369V360.678H12.0433V361.978H12.1516C12.325 361.534 12.6049 361.189 12.9914 360.943C13.3779 360.694 13.8421 360.569 14.3839 360.569C14.933 360.569 15.3899 360.694 15.7547 360.943C16.1232 361.189 16.4103 361.534 16.6162 361.978H16.7029C16.916 361.548 17.2357 361.207 17.6619 360.954C18.0881 360.698 18.5993 360.569 19.1953 360.569C19.9394 360.569 20.548 360.802 21.0212 361.268C21.4944 361.731 21.731 362.451 21.731 363.43V369H20.4523V363.43C20.4523 362.816 20.2843 362.377 19.9484 362.113C19.6125 361.85 19.2169 361.718 18.7618 361.718C18.1766 361.718 17.7233 361.895 17.4018 362.249C17.0804 362.599 16.9196 363.044 16.9196 363.582V369H15.6193V363.3C15.6193 362.827 15.4657 362.446 15.1587 362.157C14.8517 361.864 14.4562 361.718 13.9721 361.718C13.6398 361.718 13.3292 361.806 13.0402 361.983C12.7548 362.16 12.5237 362.406 12.3467 362.72C12.1733 363.031 12.0866 363.39 12.0866 363.799V369H10.8079ZM27.4282 372.294C26.8105 372.294 26.2795 372.215 25.8352 372.056C25.391 371.901 25.0207 371.695 24.7245 371.438C24.4319 371.185 24.199 370.914 24.0256 370.625L25.0442 369.91C25.1598 370.062 25.3061 370.235 25.4831 370.43C25.6601 370.629 25.9021 370.801 26.2091 370.945C26.5197 371.093 26.9261 371.167 27.4282 371.167C28.1 371.167 28.6545 371.005 29.0916 370.68C29.5286 370.355 29.7472 369.845 29.7472 369.152V367.461H29.6388C29.5449 367.613 29.4112 367.801 29.2379 368.025C29.0681 368.245 28.8225 368.442 28.501 368.615C28.1831 368.785 27.7533 368.87 27.2115 368.87C26.5396 368.87 25.9364 368.711 25.4018 368.393C24.8708 368.075 24.45 367.613 24.1394 367.006C23.8323 366.399 23.6788 365.662 23.6788 364.795C23.6788 363.943 23.8287 363.201 24.1285 362.569C24.4283 361.933 24.8455 361.442 25.3801 361.095C25.9147 360.744 26.5324 360.569 27.2331 360.569C27.775 360.569 28.2048 360.66 28.5227 360.84C28.8441 361.017 29.0898 361.219 29.2595 361.447C29.4329 361.671 29.5666 361.855 29.6605 362H29.7905V360.678H31.0259V369.238C31.0259 369.954 30.8633 370.535 30.5382 370.983C30.2168 371.435 29.7833 371.765 29.2379 371.975C28.696 372.188 28.0928 372.294 27.4282 372.294ZM27.3848 367.721C27.8978 367.721 28.3312 367.604 28.6852 367.369C29.0392 367.134 29.3083 366.797 29.4925 366.356C29.6767 365.915 29.7688 365.388 29.7688 364.774C29.7688 364.174 29.6785 363.645 29.4979 363.186C29.3173 362.728 29.05 362.368 28.696 362.108C28.3421 361.848 27.905 361.718 27.3848 361.718C26.843 361.718 26.3915 361.855 26.0303 362.13C25.6727 362.404 25.4036 362.773 25.223 363.235C25.046 363.697 24.9575 364.21 24.9575 364.774C24.9575 365.352 25.0478 365.863 25.2284 366.307C25.4126 366.748 25.6835 367.095 26.0411 367.347C26.4024 367.597 26.8503 367.721 27.3848 367.721ZM33.3665 369V360.678H34.6019V361.978H34.7102C34.8836 361.534 35.1636 361.189 35.55 360.943C35.9365 360.694 36.4007 360.569 36.9425 360.569C37.4916 360.569 37.9485 360.694 38.3133 360.943C38.6818 361.189 38.9689 361.534 39.1748 361.978H39.2615C39.4746 361.548 39.7943 361.207 40.2205 360.954C40.6468 360.698 41.1579 360.569 41.7539 360.569C42.498 360.569 43.1066 360.802 43.5798 361.268C44.053 361.731 44.2896 362.451 44.2896 363.43V369H43.0109V363.43C43.0109 362.816 42.8429 362.377 42.507 362.113C42.1711 361.85 41.7755 361.718 41.3204 361.718C40.7353 361.718 40.2819 361.895 39.9605 362.249C39.639 362.599 39.4782 363.044 39.4782 363.582V369H38.1779V363.3C38.1779 362.827 38.0244 362.446 37.7173 362.157C37.4103 361.864 37.0148 361.718 36.5307 361.718C36.1984 361.718 35.8878 361.806 35.5988 361.983C35.3135 362.16 35.0823 362.406 34.9053 362.72C34.7319 363.031 34.6452 363.39 34.6452 363.799V369H33.3665ZM50.2469 360.678V361.761H45.934V360.678H50.2469ZM47.191 358.684H48.4697V366.616C48.4697 366.977 48.5221 367.248 48.6268 367.429C48.7352 367.606 48.8725 367.725 49.0386 367.786C49.2084 367.844 49.3872 367.873 49.575 367.873C49.7159 367.873 49.8315 367.866 49.9218 367.851C50.0121 367.833 50.0843 367.819 50.1385 367.808L50.3986 368.957C50.3119 368.989 50.1909 369.022 50.0356 369.054C49.8802 369.09 49.6834 369.108 49.445 369.108C49.0838 369.108 48.7298 369.031 48.383 368.875C48.0399 368.72 47.7545 368.483 47.5269 368.166C47.303 367.848 47.191 367.447 47.191 366.963V358.684Z" fill="white"/>
<line opacity="0.5" x1="70.6445" y1="40.7798" x2="445.727" y2="40.7798" stroke="#BCBCBC" stroke-width="1.27147" stroke-dasharray="10.17 10.17"/>
<line opacity="0.5" x1="70.6445" y1="179.37" x2="377.068" y2="179.37" stroke="#BCBCBC" stroke-width="1.27147" stroke-dasharray="10.17 10.17"/>
<line opacity="0.5" x1="70.6445" y1="145.04" x2="255.007" y2="145.04" stroke="#BCBCBC" stroke-width="1.27147" stroke-dasharray="10.17 10.17"/>
<line opacity="0.5" x1="70.6484" y1="264.364" x2="224.496" y2="264.364" stroke="#BCBCBC" stroke-width="1.27147" stroke-dasharray="10.17 10.17"/>
<line opacity="0.5" x1="445.095" y1="383.44" x2="445.095" y2="41.4156" stroke="#BCBCBC" stroke-width="1.27147" stroke-dasharray="10.17 10.17"/>
<line opacity="0.5" x1="376.435" y1="383.44" x2="376.435" y2="180.005" stroke="#BCBCBC" stroke-width="1.27147" stroke-dasharray="10.17 10.17"/>
<line opacity="0.5" x1="254.372" y1="383.44" x2="254.372" y2="145.676" stroke="#BCBCBC" stroke-width="1.27147" stroke-dasharray="10.17 10.17"/>
<circle cx="445.73" cy="41.4155" r="15.2576" fill="#242424"/>
<path d="M440.324 45.4683C439.693 45.4683 439.16 45.2504 438.724 44.8145C438.288 44.3786 438.071 43.846 438.072 43.2167C438.073 42.5875 438.291 42.0543 438.726 41.6172C439.161 41.1801 439.693 40.9628 440.324 40.9652C440.954 40.9676 441.487 41.1855 441.923 41.619C442.359 42.0525 442.576 42.5851 442.575 43.2167C442.574 43.8484 442.356 44.3816 441.921 44.8163C441.487 45.251 440.954 45.4683 440.324 45.4683ZM451.131 45.4683C450.501 45.4683 449.967 45.2504 449.532 44.8145C449.096 44.3786 448.878 43.846 448.879 43.2167C448.881 42.5875 449.099 42.0543 449.533 41.6172C449.968 41.1801 450.501 40.9628 451.131 40.9652C451.761 40.9676 452.295 41.1855 452.731 41.619C453.166 42.0525 453.384 42.5851 453.383 43.2167C453.381 43.8484 453.163 44.3816 452.729 44.8163C452.294 45.251 451.761 45.4683 451.131 45.4683ZM445.727 55.8255C449.75 55.8255 453.157 54.4295 455.949 51.6376C458.741 48.8456 460.137 45.4383 460.137 41.4155C460.137 40.695 460.092 39.9973 460.002 39.3225C459.912 38.6476 459.747 37.9943 459.507 37.3627C458.876 37.5128 458.246 37.6257 457.616 37.7013C456.985 37.777 456.325 37.8142 455.634 37.813C452.902 37.813 450.32 37.2276 447.889 36.0568C445.457 34.886 443.386 33.2499 441.674 31.1484C440.714 33.49 439.341 35.5242 437.555 37.251C435.769 38.9778 433.69 40.2759 431.317 41.1453V41.4155C431.317 45.4383 432.713 48.8456 435.505 51.6376C438.297 54.4295 441.705 55.8255 445.727 55.8255ZM445.727 59.428C443.236 59.428 440.894 58.9554 438.702 58.0104C436.511 57.0653 434.605 55.7816 432.983 54.1593C431.362 52.537 430.079 50.6307 429.134 48.4404C428.189 46.25 427.716 43.9084 427.715 41.4155C427.714 38.9226 428.187 36.581 429.134 34.3906C430.082 32.2003 431.365 30.294 432.983 28.6717C434.602 27.0494 436.509 25.7663 438.702 24.8224C440.896 23.8786 443.238 23.4055 445.727 23.4031C448.217 23.4007 450.558 23.8738 452.752 24.8224C454.946 25.7711 456.852 27.0542 458.471 28.6717C460.09 30.2892 461.374 32.1955 462.322 34.3906C463.271 36.5858 463.743 38.9274 463.74 41.4155C463.736 43.9036 463.263 46.2452 462.32 48.4404C461.378 50.6355 460.095 52.5418 458.471 54.1593C456.848 55.7768 454.941 57.0605 452.752 58.0104C450.563 58.9602 448.221 59.4328 445.727 59.428Z" fill="#F8F8F8"/>
<circle cx="252.469" cy="145.676" r="15.2576" fill="#242424"/>
<path d="M247.062 149.729C246.431 149.729 245.898 149.511 245.462 149.075C245.026 148.639 244.809 148.106 244.81 147.477C244.811 146.848 245.029 146.315 245.464 145.878C245.899 145.44 246.431 145.223 247.062 145.226C247.692 145.228 248.225 145.446 248.661 145.879C249.097 146.313 249.315 146.845 249.313 147.477C249.312 148.109 249.094 148.642 248.66 149.077C248.225 149.511 247.692 149.729 247.062 149.729ZM257.869 149.729C257.239 149.729 256.706 149.511 256.27 149.075C255.834 148.639 255.617 148.106 255.618 147.477C255.619 146.848 255.837 146.315 256.272 145.878C256.706 145.44 257.239 145.223 257.869 145.226C258.5 145.228 259.033 145.446 259.469 145.879C259.905 146.313 260.122 146.845 260.121 147.477C260.12 148.109 259.902 148.642 259.467 149.077C259.032 149.511 258.5 149.729 257.869 149.729ZM252.466 160.086C256.488 160.086 259.896 158.69 262.688 155.898C265.48 153.106 266.876 149.699 266.876 145.676C266.876 144.955 266.831 144.258 266.74 143.583C266.65 142.908 266.485 142.255 266.245 141.623C265.615 141.773 264.984 141.886 264.354 141.962C263.723 142.037 263.063 142.075 262.372 142.073C259.641 142.073 257.059 141.488 254.627 140.317C252.195 139.146 250.124 137.51 248.413 135.409C247.452 137.75 246.079 139.785 244.293 141.511C242.508 143.238 240.428 144.536 238.056 145.406V145.676C238.056 149.699 239.452 153.106 242.244 155.898C245.035 158.69 248.443 160.086 252.466 160.086ZM252.466 163.688C249.974 163.688 247.632 163.216 245.441 162.271C243.249 161.326 241.343 160.042 239.722 158.42C238.101 156.797 236.818 154.891 235.873 152.701C234.927 150.51 234.454 148.169 234.453 145.676C234.452 143.183 234.925 140.841 235.873 138.651C236.82 136.461 238.103 134.554 239.722 132.932C241.34 131.31 243.247 130.027 245.441 129.083C247.635 128.139 249.976 127.666 252.466 127.663C254.955 127.661 257.297 128.134 259.49 129.083C261.684 130.031 263.591 131.315 265.209 132.932C266.828 134.55 268.112 136.456 269.06 138.651C270.009 140.846 270.482 143.188 270.478 145.676C270.474 148.164 270.001 150.506 269.059 152.701C268.116 154.896 266.833 156.802 265.209 158.42C263.586 160.037 261.68 161.321 259.49 162.271C257.301 163.221 254.96 163.693 252.466 163.688Z" fill="#F8F8F8"/>
<circle cx="377.066" cy="180.005" r="15.2576" fill="#242424"/>
<path d="M371.663 184.058C371.033 184.058 370.5 183.84 370.064 183.404C369.628 182.968 369.411 182.436 369.412 181.807C369.413 181.177 369.631 180.644 370.066 180.207C370.5 179.77 371.033 179.553 371.663 179.555C372.294 179.558 372.827 179.775 373.263 180.209C373.699 180.642 373.916 181.175 373.915 181.807C373.914 182.438 373.696 182.971 373.261 183.406C372.826 183.841 372.294 184.058 371.663 184.058ZM382.471 184.058C381.84 184.058 381.307 183.84 380.871 183.404C380.435 182.968 380.218 182.436 380.219 181.807C380.221 181.177 380.438 180.644 380.873 180.207C381.308 179.77 381.84 179.553 382.471 179.555C383.101 179.558 383.634 179.775 384.07 180.209C384.506 180.642 384.724 181.175 384.722 181.807C384.721 182.438 384.503 182.971 384.069 183.406C383.634 183.841 383.101 184.058 382.471 184.058ZM377.067 194.415C381.09 194.415 384.497 193.019 387.289 190.228C390.081 187.436 391.477 184.028 391.477 180.005C391.477 179.285 391.432 178.587 391.342 177.912C391.252 177.238 391.087 176.584 390.847 175.953C390.216 176.103 389.586 176.216 388.955 176.291C388.325 176.367 387.664 176.404 386.974 176.403C384.242 176.403 381.66 175.818 379.229 174.647C376.797 173.476 374.726 171.84 373.014 169.738C372.054 172.08 370.681 174.114 368.895 175.841C367.109 177.568 365.03 178.866 362.657 179.735V180.005C362.657 184.028 364.053 187.436 366.845 190.228C369.637 193.019 373.044 194.415 377.067 194.415ZM377.067 198.018C374.575 198.018 372.234 197.545 370.042 196.6C367.851 195.655 365.944 194.372 364.323 192.749C362.702 191.127 361.419 189.221 360.474 187.03C359.529 184.84 359.056 182.498 359.055 180.005C359.053 177.513 359.527 175.171 360.474 172.981C361.422 170.79 362.705 168.884 364.323 167.262C365.942 165.639 367.848 164.356 370.042 163.412C372.236 162.469 374.578 161.995 377.067 161.993C379.556 161.991 381.898 162.464 384.092 163.412C386.286 164.361 388.192 165.644 389.811 167.262C391.43 168.879 392.713 170.785 393.662 172.981C394.611 175.176 395.083 177.517 395.08 180.005C395.076 182.494 394.603 184.835 393.66 187.03C392.718 189.225 391.434 191.132 389.811 192.749C388.187 194.367 386.281 195.65 384.092 196.6C381.903 197.55 379.561 198.023 377.067 198.018Z" fill="#F8F8F8"/>
<circle cx="255.613" cy="260.615" r="15.2576" fill="#242424"/>
<path d="M250.214 264.668C249.584 264.668 249.051 264.45 248.615 264.014C248.179 263.578 247.961 263.045 247.963 262.416C247.964 261.787 248.182 261.254 248.616 260.817C249.051 260.38 249.584 260.162 250.214 260.165C250.845 260.167 251.378 260.385 251.814 260.819C252.25 261.252 252.467 261.785 252.466 262.416C252.465 263.048 252.247 263.581 251.812 264.016C251.377 264.45 250.845 264.668 250.214 264.668ZM261.022 264.668C260.391 264.668 259.858 264.45 259.422 264.014C258.986 263.578 258.769 263.045 258.77 262.416C258.771 261.787 258.989 261.254 259.424 260.817C259.859 260.38 260.391 260.162 261.022 260.165C261.652 260.167 262.185 260.385 262.621 260.819C263.057 261.252 263.274 261.785 263.273 262.416C263.272 263.048 263.054 263.581 262.619 264.016C262.185 264.45 261.652 264.668 261.022 264.668ZM255.618 275.025C259.641 275.025 263.048 273.629 265.84 270.837C268.632 268.045 270.028 264.638 270.028 260.615C270.028 259.894 269.983 259.197 269.893 258.522C269.803 257.847 269.638 257.194 269.397 256.562C268.767 256.712 268.137 256.825 267.506 256.901C266.876 256.976 266.215 257.014 265.525 257.013C262.793 257.013 260.211 256.427 257.779 255.256C255.348 254.085 253.276 252.449 251.565 250.348C250.604 252.69 249.231 254.724 247.446 256.451C245.66 258.177 243.581 259.475 241.208 260.345V260.615C241.208 264.638 242.604 268.045 245.396 270.837C248.188 273.629 251.595 275.025 255.618 275.025ZM255.618 278.627C253.126 278.627 250.785 278.155 248.593 277.21C246.402 276.265 244.495 274.981 242.874 273.359C241.253 271.736 239.97 269.83 239.025 267.64C238.08 265.45 237.607 263.108 237.605 260.615C237.604 258.122 238.077 255.78 239.025 253.59C239.972 251.4 241.255 249.494 242.874 247.871C244.493 246.249 246.399 244.966 248.593 244.022C250.787 243.078 253.129 242.605 255.618 242.603C258.107 242.6 260.449 243.073 262.643 244.022C264.837 244.971 266.743 246.254 268.362 247.871C269.98 249.489 271.264 251.395 272.213 253.59C273.161 255.785 273.634 258.127 273.63 260.615C273.627 263.103 273.154 265.445 272.211 267.64C271.268 269.835 269.985 271.741 268.362 273.359C266.738 274.976 264.832 276.26 262.643 277.21C260.454 278.16 258.112 278.632 255.618 278.627Z" fill="#F8F8F8"/>
<path d="M291.273 265.639V267.172H284.164V265.639H291.273ZM284.535 252.953V267.172H282.65V252.953H284.535ZM292.68 262.006V261.781C292.68 261.019 292.79 260.313 293.012 259.662C293.233 259.004 293.552 258.435 293.969 257.953C294.385 257.465 294.89 257.087 295.482 256.82C296.075 256.547 296.739 256.41 297.475 256.41C298.217 256.41 298.884 256.547 299.477 256.82C300.076 257.087 300.583 257.465 301 257.953C301.423 258.435 301.745 259.004 301.967 259.662C302.188 260.313 302.299 261.019 302.299 261.781V262.006C302.299 262.767 302.188 263.474 301.967 264.125C301.745 264.776 301.423 265.346 301 265.834C300.583 266.316 300.079 266.693 299.486 266.967C298.9 267.234 298.236 267.367 297.494 267.367C296.752 267.367 296.085 267.234 295.492 266.967C294.9 266.693 294.392 266.316 293.969 265.834C293.552 265.346 293.233 264.776 293.012 264.125C292.79 263.474 292.68 262.767 292.68 262.006ZM294.486 261.781V262.006C294.486 262.533 294.548 263.031 294.672 263.5C294.796 263.962 294.981 264.372 295.229 264.73C295.482 265.088 295.798 265.372 296.176 265.58C296.553 265.782 296.993 265.883 297.494 265.883C297.989 265.883 298.422 265.782 298.793 265.58C299.171 265.372 299.483 265.088 299.73 264.73C299.978 264.372 300.163 263.962 300.287 263.5C300.417 263.031 300.482 262.533 300.482 262.006V261.781C300.482 261.26 300.417 260.769 300.287 260.307C300.163 259.838 299.975 259.424 299.721 259.066C299.473 258.702 299.161 258.415 298.783 258.207C298.412 257.999 297.976 257.894 297.475 257.894C296.98 257.894 296.544 257.999 296.166 258.207C295.795 258.415 295.482 258.702 295.229 259.066C294.981 259.424 294.796 259.838 294.672 260.307C294.548 260.769 294.486 261.26 294.486 261.781ZM306.371 258.266V267.172H304.564V256.605H306.322L306.371 258.266ZM309.672 256.547L309.662 258.226C309.512 258.194 309.369 258.174 309.232 258.168C309.102 258.155 308.952 258.148 308.783 258.148C308.367 258.148 307.999 258.213 307.68 258.344C307.361 258.474 307.09 258.656 306.869 258.891C306.648 259.125 306.472 259.405 306.342 259.73C306.218 260.049 306.137 260.401 306.098 260.785L305.59 261.078C305.59 260.44 305.652 259.841 305.775 259.281C305.906 258.721 306.104 258.226 306.371 257.797C306.638 257.361 306.977 257.022 307.387 256.781C307.803 256.534 308.298 256.41 308.871 256.41C309.001 256.41 309.151 256.426 309.32 256.459C309.49 256.485 309.607 256.514 309.672 256.547ZM313.305 256.605V267.172H311.488V256.605H313.305ZM311.352 253.803C311.352 253.51 311.439 253.262 311.615 253.06C311.798 252.859 312.064 252.758 312.416 252.758C312.761 252.758 313.025 252.859 313.207 253.06C313.396 253.262 313.49 253.51 313.49 253.803C313.49 254.083 313.396 254.323 313.207 254.525C313.025 254.721 312.761 254.818 312.416 254.818C312.064 254.818 311.798 254.721 311.615 254.525C311.439 254.323 311.352 254.083 311.352 253.803Z" fill="white"/>
<path d="M407.963 172.343H412.67C413.738 172.343 414.639 172.506 415.375 172.832C416.117 173.157 416.68 173.639 417.064 174.277C417.455 174.909 417.65 175.687 417.65 176.611C417.65 177.262 417.517 177.858 417.25 178.398C416.99 178.932 416.612 179.388 416.117 179.765C415.629 180.136 415.043 180.413 414.359 180.595L413.832 180.801H409.408L409.389 179.267H412.729C413.406 179.267 413.969 179.15 414.418 178.916C414.867 178.675 415.206 178.353 415.434 177.949C415.661 177.545 415.775 177.099 415.775 176.611C415.775 176.064 415.668 175.586 415.453 175.176C415.238 174.765 414.9 174.45 414.438 174.228C413.982 174 413.393 173.886 412.67 173.886H409.848V186.562H407.963V172.343ZM416.273 186.562L412.816 180.117L414.779 180.107L418.285 186.445V186.562H416.273ZM424.398 186.758C423.663 186.758 422.995 186.634 422.396 186.386C421.804 186.133 421.293 185.778 420.863 185.322C420.44 184.866 420.115 184.326 419.887 183.701C419.659 183.076 419.545 182.392 419.545 181.65V181.24C419.545 180.381 419.672 179.616 419.926 178.945C420.18 178.268 420.525 177.695 420.961 177.226C421.397 176.758 421.892 176.403 422.445 176.162C422.999 175.921 423.572 175.801 424.164 175.801C424.919 175.801 425.57 175.931 426.117 176.191C426.671 176.452 427.123 176.816 427.475 177.285C427.826 177.747 428.087 178.294 428.256 178.926C428.425 179.551 428.51 180.234 428.51 180.976V181.787H420.619V180.312H426.703V180.176C426.677 179.707 426.579 179.251 426.41 178.808C426.247 178.366 425.987 178.001 425.629 177.715C425.271 177.428 424.783 177.285 424.164 177.285C423.754 177.285 423.376 177.373 423.031 177.549C422.686 177.718 422.39 177.972 422.143 178.31C421.895 178.649 421.703 179.062 421.566 179.551C421.43 180.039 421.361 180.602 421.361 181.24V181.65C421.361 182.151 421.43 182.623 421.566 183.066C421.71 183.502 421.915 183.886 422.182 184.218C422.455 184.551 422.784 184.811 423.168 185C423.559 185.189 424.001 185.283 424.496 185.283C425.134 185.283 425.674 185.153 426.117 184.892C426.56 184.632 426.947 184.284 427.279 183.847L428.373 184.717C428.145 185.062 427.855 185.39 427.504 185.703C427.152 186.015 426.719 186.269 426.205 186.465C425.697 186.66 425.095 186.758 424.398 186.758ZM430.609 171.562H432.426V184.511L432.27 186.562H430.609V171.562ZM439.564 181.191V181.396C439.564 182.164 439.473 182.877 439.291 183.535C439.109 184.186 438.842 184.752 438.49 185.234C438.139 185.716 437.709 186.09 437.201 186.357C436.693 186.624 436.111 186.758 435.453 186.758C434.783 186.758 434.193 186.644 433.686 186.416C433.184 186.181 432.761 185.846 432.416 185.41C432.071 184.974 431.794 184.446 431.586 183.828C431.384 183.209 431.244 182.513 431.166 181.738V180.84C431.244 180.058 431.384 179.358 431.586 178.74C431.794 178.121 432.071 177.594 432.416 177.158C432.761 176.715 433.184 176.38 433.686 176.152C434.187 175.918 434.77 175.801 435.434 175.801C436.098 175.801 436.687 175.931 437.201 176.191C437.715 176.445 438.145 176.81 438.49 177.285C438.842 177.76 439.109 178.33 439.291 178.994C439.473 179.651 439.564 180.384 439.564 181.191ZM437.748 181.396V181.191C437.748 180.664 437.699 180.169 437.602 179.707C437.504 179.238 437.348 178.828 437.133 178.476C436.918 178.118 436.635 177.838 436.283 177.636C435.932 177.428 435.499 177.324 434.984 177.324C434.529 177.324 434.132 177.402 433.793 177.558C433.461 177.715 433.178 177.926 432.943 178.193C432.709 178.454 432.517 178.753 432.367 179.092C432.224 179.424 432.117 179.769 432.045 180.127V182.48C432.149 182.936 432.318 183.375 432.553 183.799C432.794 184.215 433.113 184.557 433.51 184.824C433.913 185.091 434.411 185.224 435.004 185.224C435.492 185.224 435.909 185.127 436.254 184.931C436.605 184.73 436.889 184.453 437.104 184.101C437.325 183.75 437.488 183.343 437.592 182.881C437.696 182.418 437.748 181.924 437.748 181.396ZM446.234 186.758C445.499 186.758 444.831 186.634 444.232 186.386C443.64 186.133 443.129 185.778 442.699 185.322C442.276 184.866 441.951 184.326 441.723 183.701C441.495 183.076 441.381 182.392 441.381 181.65V181.24C441.381 180.381 441.508 179.616 441.762 178.945C442.016 178.268 442.361 177.695 442.797 177.226C443.233 176.758 443.728 176.403 444.281 176.162C444.835 175.921 445.408 175.801 446 175.801C446.755 175.801 447.406 175.931 447.953 176.191C448.507 176.452 448.959 176.816 449.311 177.285C449.662 177.747 449.923 178.294 450.092 178.926C450.261 179.551 450.346 180.234 450.346 180.976V181.787H442.455V180.312H448.539V180.176C448.513 179.707 448.415 179.251 448.246 178.808C448.083 178.366 447.823 178.001 447.465 177.715C447.107 177.428 446.618 177.285 446 177.285C445.59 177.285 445.212 177.373 444.867 177.549C444.522 177.718 444.226 177.972 443.979 178.31C443.731 178.649 443.539 179.062 443.402 179.551C443.266 180.039 443.197 180.602 443.197 181.24V181.65C443.197 182.151 443.266 182.623 443.402 183.066C443.546 183.502 443.751 183.886 444.018 184.218C444.291 184.551 444.62 184.811 445.004 185C445.395 185.189 445.837 185.283 446.332 185.283C446.97 185.283 447.51 185.153 447.953 184.892C448.396 184.632 448.783 184.284 449.115 183.847L450.209 184.717C449.981 185.062 449.691 185.39 449.34 185.703C448.988 186.015 448.555 186.269 448.041 186.465C447.533 186.66 446.931 186.758 446.234 186.758ZM454.271 171.562V186.562H452.455V171.562H454.271ZM460.727 175.996L456.117 180.927L453.539 183.603L453.393 181.679L455.238 179.472L458.52 175.996H460.727ZM459.076 186.562L455.307 181.523L456.244 179.912L461.205 186.562H459.076ZM468.822 184.756V179.316C468.822 178.899 468.738 178.538 468.568 178.232C468.406 177.92 468.158 177.679 467.826 177.509C467.494 177.34 467.084 177.256 466.596 177.256C466.14 177.256 465.74 177.334 465.395 177.49C465.056 177.646 464.789 177.851 464.594 178.105C464.405 178.359 464.311 178.633 464.311 178.926H462.504C462.504 178.548 462.602 178.174 462.797 177.802C462.992 177.431 463.272 177.096 463.637 176.797C464.008 176.491 464.451 176.25 464.965 176.074C465.486 175.892 466.065 175.801 466.703 175.801C467.471 175.801 468.148 175.931 468.734 176.191C469.327 176.452 469.789 176.845 470.121 177.373C470.46 177.894 470.629 178.548 470.629 179.336V184.258C470.629 184.609 470.658 184.983 470.717 185.381C470.782 185.778 470.876 186.12 471 186.406V186.562H469.115C469.024 186.354 468.952 186.077 468.9 185.732C468.848 185.381 468.822 185.055 468.822 184.756ZM469.135 180.156L469.154 181.426H467.328C466.814 181.426 466.355 181.468 465.951 181.552C465.548 181.631 465.209 181.751 464.936 181.914C464.662 182.077 464.454 182.282 464.311 182.529C464.167 182.77 464.096 183.053 464.096 183.379C464.096 183.711 464.171 184.013 464.32 184.287C464.47 184.56 464.695 184.778 464.994 184.941C465.3 185.097 465.674 185.176 466.117 185.176C466.671 185.176 467.159 185.058 467.582 184.824C468.005 184.59 468.34 184.303 468.588 183.965C468.842 183.626 468.979 183.297 468.998 182.978L469.77 183.847C469.724 184.121 469.6 184.424 469.398 184.756C469.197 185.088 468.926 185.407 468.588 185.713C468.256 186.012 467.859 186.263 467.396 186.465C466.941 186.66 466.426 186.758 465.854 186.758C465.137 186.758 464.509 186.618 463.969 186.338C463.435 186.058 463.018 185.683 462.719 185.215C462.426 184.739 462.279 184.209 462.279 183.623C462.279 183.056 462.39 182.558 462.611 182.129C462.833 181.692 463.152 181.331 463.568 181.045C463.985 180.752 464.486 180.53 465.072 180.381C465.658 180.231 466.312 180.156 467.035 180.156H469.135ZM475.277 171.562V186.562H473.471V171.562H475.277ZM474.848 180.879L474.096 180.849C474.102 180.127 474.21 179.459 474.418 178.847C474.626 178.229 474.919 177.692 475.297 177.236C475.674 176.78 476.124 176.429 476.645 176.181C477.172 175.927 477.755 175.801 478.393 175.801C478.913 175.801 479.382 175.872 479.799 176.015C480.215 176.152 480.57 176.373 480.863 176.679C481.163 176.985 481.391 177.383 481.547 177.871C481.703 178.353 481.781 178.942 481.781 179.638V186.562H479.965V179.619C479.965 179.065 479.883 178.623 479.721 178.291C479.558 177.952 479.32 177.708 479.008 177.558C478.695 177.402 478.311 177.324 477.855 177.324C477.406 177.324 476.996 177.418 476.625 177.607C476.26 177.796 475.945 178.056 475.678 178.388C475.417 178.72 475.212 179.101 475.062 179.531C474.919 179.954 474.848 180.403 474.848 180.879Z" fill="white"/>
</svg>
